RangeenSColr0.ttf.ufo
<glyph name="exclam" format="2">
  <advance width="163"/>
  <unicode hex="0021"/>
  <outline>
    <contour>
      <point x="86" y="834"/>
      <point x="68" y="834"/>
      <point x="55" y="821"/>
      <point x="55" y="812" type="qcurve"/>
      <point x="61" y="323" type="line"/>
      <point x="61" y="314"/>
      <point x="74" y="301"/>
      <point x="92" y="301"/>
      <point x="105" y="314"/>
      <point x="105" y="323" type="qcurve"/>
      <point x="99" y="812" type="line"/>
      <point x="99" y="821"/>
    </contour>
    <contour>
      <point x="50" y="812" type="line"/>
      <point x="50" y="823"/>
      <point x="66" y="839"/>
      <point x="88" y="839"/>
      <point x="104" y="823"/>
      <point x="104" y="812" type="qcurve"/>
      <point x="110" y="323" type="line"/>
      <point x="110" y="312"/>
      <point x="94" y="296"/>
      <point x="72" y="296"/>
      <point x="56" y="312"/>
      <point x="56" y="323" type="qcurve"/>
    </contour>
    <contour>
      <point x="95" y="225"/>
      <point x="77" y="225"/>
      <point x="64" y="212"/>
      <point x="64" y="203" type="qcurve"/>
      <point x="64" y="137" type="line"/>
      <point x="64" y="128"/>
      <point x="77" y="115"/>
      <point x="95" y="115"/>
      <point x="108" y="128"/>
      <point x="108" y="137" type="qcurve"/>
      <point x="108" y="203" type="line"/>
      <point x="108" y="212"/>
    </contour>
    <contour>
      <point x="97" y="110"/>
      <point x="75" y="110"/>
      <point x="59" y="126"/>
      <point x="59" y="137" type="qcurve"/>
      <point x="59" y="203" type="line"/>
      <point x="59" y="214"/>
      <point x="75" y="230"/>
      <point x="97" y="230"/>
      <point x="113" y="214"/>
      <point x="113" y="203" type="qcurve"/>
      <point x="113" y="137" type="line"/>
      <point x="113" y="126"/>
    </contour>
  </outline>
</glyph>
<glyph name="slash" format="2">
  <advance width="386"/>
  <unicode hex="002F"/>
  <outline>
    <contour>
      <point x="55" y="107" type="qcurve"/>
      <point x="55" y="98"/>
      <point x="68" y="85"/>
      <point x="77" y="85" type="qcurve"/>
      <point x="93" y="85"/>
      <point x="98" y="98" type="qcurve"/>
      <point x="330" y="656" type="line"/>
      <point x="331" y="659"/>
      <point x="331" y="665" type="qcurve"/>
      <point x="331" y="674"/>
      <point x="318" y="687"/>
      <point x="309" y="687" type="qcurve"/>
      <point x="293" y="687"/>
      <point x="288" y="674" type="qcurve"/>
      <point x="56" y="116" type="line"/>
      <point x="55" y="113"/>
    </contour>
    <contour>
      <point x="309" y="692" type="qcurve"/>
      <point x="320" y="692"/>
      <point x="336" y="676"/>
      <point x="336" y="665" type="qcurve"/>
      <point x="336" y="660"/>
      <point x="334" y="654" type="qcurve"/>
      <point x="102" y="96" type="line"/>
      <point x="95" y="80"/>
      <point x="77" y="80" type="qcurve"/>
      <point x="66" y="80"/>
      <point x="50" y="96"/>
      <point x="50" y="107" type="qcurve"/>
      <point x="50" y="112"/>
      <point x="52" y="118" type="qcurve"/>
      <point x="284" y="676" type="line"/>
      <point x="291" y="692"/>
    </contour>
  </outline>
</glyph>
<glyph name="five" format="2">
  <advance width="514"/>
  <unicode hex="0035"/>
  <outline>
    <contour>
      <point x="442" y="-28" type="qcurve"/>
      <point x="442" y="74"/>
      <point x="343" y="229"/>
      <point x="253" y="229" type="qcurve"/>
      <point x="234" y="229"/>
      <point x="196" y="222"/>
      <point x="151" y="212"/>
      <point x="138" y="210" type="qcurve"/>
      <point x="137" y="210" type="line"/>
      <point x="134" y="210"/>
      <point x="130" y="366"/>
      <point x="130" y="386" type="qcurve"/>
      <point x="130" y="389"/>
      <point x="133" y="389" type="qcurve"/>
      <point x="437" y="389" type="line"/>
      <point x="446" y="389"/>
      <point x="459" y="402"/>
      <point x="459" y="420"/>
      <point x="446" y="433"/>
      <point x="437" y="433" type="qcurve"/>
      <point x="107" y="433" type="line"/>
      <point x="98" y="433"/>
      <point x="85" y="420"/>
      <point x="85" y="411" type="qcurve"/>
      <point x="85" y="410" type="line"/>
      <point x="91" y="184" type="line"/>
      <point x="91" y="175"/>
      <point x="104" y="163"/>
      <point x="113" y="163" type="qcurve"/>
      <point x="139" y="163"/>
      <point x="231" y="184"/>
      <point x="253" y="184" type="qcurve"/>
      <point x="321" y="184"/>
      <point x="397" y="55"/>
      <point x="397" y="-28" type="qcurve"/>
      <point x="397" y="-99"/>
      <point x="292" y="-188"/>
      <point x="216" y="-188" type="qcurve"/>
      <point x="179" y="-188"/>
      <point x="100" y="-129"/>
      <point x="77" y="-129" type="qcurve"/>
      <point x="68" y="-129"/>
      <point x="55" y="-142"/>
      <point x="55" y="-151" type="qcurve"/>
      <point x="55" y="-182"/>
      <point x="168" y="-233"/>
      <point x="216" y="-233" type="qcurve"/>
      <point x="310" y="-233"/>
      <point x="442" y="-119"/>
    </contour>
    <contour>
      <point x="464" y="422"/>
      <point x="464" y="400"/>
      <point x="448" y="384"/>
      <point x="437" y="384" type="qcurve"/>
      <point x="135" y="384" type="line"/>
      <point x="140" y="215" type="line"/>
      <point x="143" y="215"/>
      <point x="228" y="234"/>
      <point x="253" y="234" type="qcurve"/>
      <point x="316" y="234"/>
      <point x="407" y="153"/>
      <point x="447" y="38"/>
      <point x="447" y="-28" type="qcurve"/>
      <point x="447" y="-121"/>
      <point x="312" y="-238"/>
      <point x="216" y="-238" type="qcurve"/>
      <point x="165" y="-238"/>
      <point x="50" y="-185"/>
      <point x="50" y="-151" type="qcurve"/>
      <point x="50" y="-140"/>
      <point x="66" y="-124"/>
      <point x="77" y="-124" type="qcurve"/>
      <point x="100" y="-124"/>
      <point x="180" y="-183"/>
      <point x="216" y="-183" type="qcurve"/>
      <point x="290" y="-183"/>
      <point x="392" y="-96"/>
      <point x="392" y="-28" type="qcurve"/>
      <point x="392" y="53"/>
      <point x="319" y="179"/>
      <point x="253" y="179" type="qcurve"/>
      <point x="231" y="179"/>
      <point x="139" y="158"/>
      <point x="113" y="158" type="qcurve"/>
      <point x="102" y="158"/>
      <point x="86" y="173"/>
      <point x="86" y="184" type="qcurve"/>
      <point x="80" y="410" type="line"/>
      <point x="80" y="411" type="line"/>
      <point x="80" y="422"/>
      <point x="96" y="438"/>
      <point x="107" y="438" type="qcurve"/>
      <point x="437" y="438" type="line"/>
      <point x="448" y="438"/>
    </contour>
  </outline>
</glyph>
<glyph name="equal" format="2">
  <advance width="502"/>
  <unicode hex="003D"/>
  <outline>
    <contour>
      <point x="55" y="381"/>
      <point x="55" y="363"/>
      <point x="68" y="350"/>
      <point x="77" y="350" type="qcurve"/>
      <point x="425" y="350" type="line"/>
      <point x="434" y="350"/>
      <point x="447" y="363"/>
      <point x="447" y="381"/>
      <point x="434" y="394"/>
      <point x="425" y="394" type="qcurve"/>
      <point x="77" y="394" type="line"/>
      <point x="68" y="394"/>
    </contour>
    <contour>
      <point x="452" y="383"/>
      <point x="452" y="361"/>
      <point x="436" y="345"/>
      <point x="425" y="345" type="qcurve"/>
      <point x="77" y="345" type="line"/>
      <point x="66" y="345"/>
      <point x="50" y="361"/>
      <point x="50" y="383"/>
      <point x="66" y="399"/>
      <point x="77" y="399" type="qcurve"/>
      <point x="425" y="399" type="line"/>
      <point x="436" y="399"/>
    </contour>
    <contour>
      <point x="55" y="481"/>
      <point x="55" y="463"/>
      <point x="68" y="450"/>
      <point x="77" y="450" type="qcurve"/>
      <point x="425" y="450" type="line"/>
      <point x="434" y="450"/>
      <point x="447" y="463"/>
      <point x="447" y="481"/>
      <point x="434" y="494"/>
      <point x="425" y="494" type="qcurve"/>
      <point x="77" y="494" type="line"/>
      <point x="68" y="494"/>
    </contour>
    <contour>
      <point x="452" y="483"/>
      <point x="452" y="461"/>
      <point x="436" y="445"/>
      <point x="425" y="445" type="qcurve"/>
      <point x="77" y="445" type="line"/>
      <point x="66" y="445"/>
      <point x="50" y="461"/>
      <point x="50" y="483"/>
      <point x="66" y="499"/>
      <point x="77" y="499" type="qcurve"/>
      <point x="425" y="499" type="line"/>
      <point x="436" y="499"/>
    </contour>
  </outline>
</glyph>
<glyph name="A" format="2">
  <advance width="511"/>
  <unicode hex="0041"/>
  <outline>
    <contour>
      <point x="50" y="452" type="qcurve"/>
      <point x="50" y="463"/>
      <point x="66" y="479"/>
      <point x="77" y="479" type="qcurve"/>
      <point x="82" y="479" type="line"/>
      <point x="118" y="473" type="line"/>
      <point x="123" y="472"/>
      <point x="143" y="462"/>
      <point x="149" y="461" type="qcurve"/>
      <point x="149" y="466"/>
      <point x="148" y="487"/>
      <point x="148" y="492" type="qcurve"/>
      <point x="148" y="541"/>
      <point x="188" y="687"/>
      <point x="273" y="815"/>
      <point x="323" y="815" type="qcurve"/>
      <point x="338" y="815"/>
      <point x="354" y="794"/>
      <point x="354" y="779" type="qcurve"/>
      <point x="354" y="774" type="line"/>
      <point x="360" y="735"/>
      <point x="389" y="571"/>
      <point x="395" y="528" type="qcurve"/>
      <point x="416" y="375" type="line"/>
      <point x="416" y="374"/>
      <point x="416" y="374" type="qcurve"/>
      <point x="417" y="372" type="line"/>
      <point x="423" y="232" type="line"/>
      <point x="424" y="218"/>
      <point x="426" y="132"/>
      <point x="431" y="110" type="qcurve"/>
      <point x="433" y="100"/>
      <point x="461" y="12"/>
      <point x="461" y="-8" type="qcurve"/>
      <point x="461" y="-20"/>
      <point x="445" y="-37"/>
      <point x="433" y="-37" type="qcurve"/>
      <point x="394" y="-37"/>
      <point x="383" y="49" type="qcurve"/>
      <point x="374" y="70"/>
      <point x="364" y="148"/>
      <point x="357" y="167" type="qcurve"/>
      <point x="353" y="179"/>
      <point x="329" y="248"/>
      <point x="320" y="270"/>
      <point x="295" y="320"/>
      <point x="272" y="344"/>
      <point x="235" y="373"/>
      <point x="211" y="383" type="qcurve"/>
      <point x="213" y="369"/>
      <point x="222" y="309"/>
      <point x="227" y="273"/>
      <point x="231" y="221"/>
      <point x="231" y="198" type="qcurve"/>
      <point x="231" y="156"/>
      <point x="215" y="60"/>
      <point x="165" y="-31"/>
      <point x="128" y="-31" type="qcurve"/>
      <point x="122" y="-31" type="line"/>
      <point x="111" y="-31"/>
      <point x="95" y="-15"/>
      <point x="95" y="-4" type="qcurve"/>
      <point x="95" y="19"/>
      <point x="118" y="23" type="qcurve"/>
      <point x="176" y="75"/>
      <point x="176" y="197" type="qcurve"/>
      <point x="176" y="239"/>
      <point x="154" y="395"/>
      <point x="153" y="402" type="qcurve"/>
      <point x="126" y="410"/>
      <point x="122" y="410" type="qcurve"/>
      <point x="111" y="410"/>
      <point x="99" y="420" type="qcurve"/>
      <point x="73" y="425" type="line"/>
      <point x="50" y="429"/>
    </contour>
    <contour>
      <point x="433" y="-32" type="qcurve"/>
      <point x="443" y="-32"/>
      <point x="456" y="-17"/>
      <point x="456" y="-8" type="qcurve"/>
      <point x="456" y="10"/>
      <point x="428" y="94"/>
      <point x="426" y="109" type="qcurve"/>
      <point x="423" y="136"/>
      <point x="418" y="231" type="qcurve"/>
      <point x="412" y="372" type="line"/>
      <point x="412" y="373" type="line"/>
      <point x="411" y="374" type="line"/>
      <point x="390" y="527" type="line"/>
      <point x="387" y="547"/>
      <point x="349" y="726"/>
      <point x="349" y="774" type="qcurve"/>
      <point x="349" y="779" type="line"/>
      <point x="349" y="791"/>
      <point x="336" y="810"/>
      <point x="323" y="810" type="qcurve"/>
      <point x="306" y="810"/>
      <point x="281" y="785" type="qcurve"/>
      <point x="224" y="728"/>
      <point x="153" y="572"/>
      <point x="153" y="492" type="qcurve"/>
      <point x="153" y="486"/>
      <point x="154" y="464"/>
      <point x="154" y="458" type="qcurve"/>
      <point x="154" y="455"/>
      <point x="152" y="455" type="qcurve"/>
      <point x="143" y="455"/>
      <point x="121" y="467"/>
      <point x="117" y="468" type="qcurve"/>
      <point x="81" y="474" type="line"/>
      <point x="77" y="474" type="line"/>
      <point x="68" y="474"/>
      <point x="55" y="461"/>
      <point x="55" y="452" type="qcurve"/>
      <point x="55" y="434"/>
      <point x="73" y="430" type="qcurve"/>
      <point x="101" y="425" type="line"/>
      <point x="104" y="425"/>
      <point x="115" y="415"/>
      <point x="122" y="415" type="qcurve"/>
      <point x="181" y="415"/>
      <point x="181" y="197" type="qcurve"/>
      <point x="181" y="143"/>
      <point x="151" y="22"/>
      <point x="119" y="18" type="qcurve"/>
      <point x="100" y="16"/>
      <point x="100" y="-4" type="qcurve"/>
      <point x="100" y="-13"/>
      <point x="113" y="-26"/>
      <point x="122" y="-26" type="qcurve"/>
      <point x="128" y="-26" type="line"/>
      <point x="154" y="-26"/>
      <point x="195" y="26"/>
      <point x="216" y="102"/>
      <point x="226" y="172"/>
      <point x="226" y="198" type="qcurve"/>
      <point x="226" y="232"/>
      <point x="205" y="357"/>
      <point x="205" y="387" type="qcurve"/>
      <point x="205" y="389"/>
      <point x="208" y="389" type="qcurve"/>
      <point x="256" y="389"/>
      <point x="320" y="302"/>
      <point x="350" y="179"/>
      <point x="373" y="55"/>
      <point x="407" y="-32"/>
    </contour>
    <contour>
      <point x="225" y="468" type="line"/>
      <point x="255" y="468"/>
      <point x="330" y="420"/>
      <point x="347" y="394" type="qcurve"/>
      <point x="351" y="402" type="line"/>
      <point x="352" y="440" type="line"/>
      <point x="351" y="442" type="line"/>
      <point x="350" y="443" type="line"/>
      <point x="350" y="451" type="line"/>
      <point x="350" y="455"/>
      <point x="348" y="468"/>
      <point x="348" y="478"/>
      <point x="344" y="509"/>
      <point x="344" y="515" type="qcurve"/>
      <point x="344" y="572"/>
      <point x="318" y="699"/>
      <point x="296" y="734" type="qcurve"/>
      <point x="281" y="731"/>
      <point x="224" y="630"/>
      <point x="224" y="617" type="qcurve"/>
      <point x="224" y="596"/>
      <point x="203" y="521"/>
      <point x="203" y="499" type="qcurve"/>
      <point x="203" y="467"/>
      <point x="224" y="467" type="qcurve"/>
    </contour>
    <contour>
      <point x="297" y="740" type="qcurve"/>
      <point x="317" y="740"/>
      <point x="350" y="559"/>
      <point x="350" y="515" type="qcurve"/>
      <point x="350" y="509"/>
      <point x="354" y="478"/>
      <point x="354" y="473" type="qcurve"/>
      <point x="354" y="469"/>
      <point x="356" y="455"/>
      <point x="356" y="451" type="qcurve"/>
      <point x="356" y="450"/>
      <point x="356" y="450" type="qcurve"/>
      <point x="355" y="448" type="line"/>
      <point x="358" y="445"/>
      <point x="358" y="443" type="qcurve"/>
      <point x="357" y="443" type="line"/>
      <point x="355" y="401" type="line"/>
      <point x="355" y="391"/>
      <point x="349" y="391" type="qcurve"/>
      <point x="350" y="390"/>
      <point x="350" y="389" type="qcurve"/>
      <point x="350" y="386"/>
      <point x="347" y="386" type="qcurve"/>
      <point x="345" y="386"/>
      <point x="345" y="388" type="qcurve"/>
      <point x="313" y="441"/>
      <point x="225" y="462" type="qcurve"/>
      <point x="224" y="462" type="line"/>
      <point x="198" y="462"/>
      <point x="198" y="499" type="qcurve"/>
      <point x="198" y="521"/>
      <point x="218" y="596"/>
      <point x="218" y="617" type="qcurve"/>
      <point x="218" y="634"/>
      <point x="278" y="740"/>
    </contour>
  </outline>
</glyph>
<glyph name="C" format="2">
  <advance width="490"/>
  <unicode hex="0043"/>
  <outline>
    <contour>
      <point x="297" y="20" type="qcurve"/>
      <point x="279" y="20"/>
      <point x="216" y="40"/>
      <point x="201" y="40" type="qcurve"/>
      <point x="187" y="40" type="line"/>
      <point x="166" y="40"/>
      <point x="115" y="161"/>
      <point x="111" y="194" type="qcurve"/>
      <point x="103" y="248" type="line"/>
      <point x="100" y="387" type="line"/>
      <point x="113" y="513" type="line"/>
      <point x="115" y="529"/>
      <point x="154" y="606"/>
      <point x="158" y="617" type="qcurve"/>
      <point x="183" y="694"/>
      <point x="200" y="717" type="qcurve"/>
      <point x="231" y="758"/>
      <point x="291" y="758" type="qcurve"/>
      <point x="321" y="758"/>
      <point x="370" y="715"/>
      <point x="373" y="684" type="qcurve"/>
      <point x="374" y="676"/>
      <point x="387" y="664"/>
      <point x="395" y="664" type="qcurve"/>
      <point x="404" y="664"/>
      <point x="417" y="677"/>
      <point x="417" y="686" type="qcurve"/>
      <point x="417" y="731"/>
      <point x="338" y="802"/>
      <point x="291" y="802" type="qcurve"/>
      <point x="250" y="802"/>
      <point x="191" y="775"/>
      <point x="158" y="733"/>
      <point x="131" y="674"/>
      <point x="115" y="618"/>
      <point x="89" y="556"/>
      <point x="73" y="536" type="qcurve"/>
      <point x="69" y="532"/>
      <point x="69" y="524" type="qcurve"/>
      <point x="55" y="390" type="line"/>
      <point x="55" y="388" type="line"/>
      <point x="55" y="387" type="line"/>
      <point x="59" y="245" type="line"/>
      <point x="59" y="243" type="line"/>
      <point x="67" y="187" type="line"/>
      <point x="72" y="152"/>
      <point x="100" y="70"/>
      <point x="155" y="-4"/>
      <point x="187" y="-4" type="qcurve"/>
      <point x="196" y="-4" type="line"/>
      <point x="211" y="-4"/>
      <point x="278" y="-25"/>
      <point x="297" y="-25" type="qcurve"/>
      <point x="334" y="-25"/>
      <point x="405" y="12"/>
      <point x="414" y="36" type="qcurve"/>
      <point x="432" y="84" type="line"/>
      <point x="433" y="86"/>
      <point x="433" y="91" type="qcurve"/>
      <point x="435" y="151" type="line"/>
      <point x="435" y="152" type="line"/>
      <point x="435" y="161"/>
      <point x="422" y="174"/>
      <point x="404" y="174"/>
      <point x="391" y="162"/>
      <point x="391" y="153" type="qcurve"/>
      <point x="389" y="97" type="line"/>
      <point x="388" y="96" type="line"/>
      <point x="374" y="58" type="line"/>
      <point x="368" y="40"/>
      <point x="322" y="20"/>
    </contour>
    <contour>
      <point x="395" y="659" type="qcurve"/>
      <point x="382" y="659"/>
      <point x="361" y="688"/>
      <point x="347" y="724"/>
      <point x="315" y="753"/>
      <point x="291" y="753" type="qcurve"/>
      <point x="254" y="753"/>
      <point x="203" y="720"/>
      <point x="176" y="662"/>
      <point x="157" y="602"/>
      <point x="133" y="533"/>
      <point x="118" y="512" type="qcurve"/>
      <point x="105" y="387" type="line"/>
      <point x="108" y="248" type="line"/>
      <point x="116" y="195" type="line"/>
      <point x="122" y="171"/>
      <point x="139" y="112"/>
      <point x="173" y="45"/>
      <point x="187" y="45" type="qcurve"/>
      <point x="201" y="45" type="line"/>
      <point x="216" y="45"/>
      <point x="279" y="25"/>
      <point x="297" y="25" type="qcurve"/>
      <point x="307" y="25"/>
      <point x="323" y="28"/>
      <point x="333" y="30"/>
      <point x="346" y="39"/>
      <point x="352" y="43"/>
      <point x="367" y="58"/>
      <point x="370" y="60" type="qcurve"/>
      <point x="384" y="97" type="line"/>
      <point x="386" y="153" type="line"/>
      <point x="386" y="164"/>
      <point x="402" y="179"/>
      <point x="424" y="179"/>
      <point x="440" y="163"/>
      <point x="440" y="152" type="qcurve"/>
      <point x="440" y="151" type="line"/>
      <point x="438" y="91" type="line"/>
      <point x="438" y="85"/>
      <point x="437" y="82" type="qcurve"/>
      <point x="419" y="34" type="line"/>
      <point x="409" y="7"/>
      <point x="336" y="-30"/>
      <point x="297" y="-30" type="qcurve"/>
      <point x="250" y="-30"/>
      <point x="196" y="-9" type="qcurve"/>
      <point x="187" y="-9" type="line"/>
      <point x="154" y="-9"/>
      <point x="96" y="67"/>
      <point x="67" y="151"/>
      <point x="62" y="186" type="qcurve"/>
      <point x="54" y="242" type="line"/>
      <point x="54" y="245" type="line"/>
      <point x="50" y="387" type="line"/>
      <point x="50" y="388" type="line"/>
      <point x="50" y="391" type="line"/>
      <point x="64" y="525" type="line"/>
      <point x="66" y="541"/>
      <point x="106" y="619"/>
      <point x="112" y="638" type="qcurve"/>
      <point x="124" y="675"/>
      <point x="148" y="725"/>
      <point x="189" y="779"/>
      <point x="250" y="807"/>
      <point x="291" y="807" type="qcurve"/>
      <point x="340" y="807"/>
      <point x="422" y="732"/>
      <point x="422" y="686" type="qcurve"/>
      <point x="422" y="675"/>
      <point x="406" y="659"/>
    </contour>
  </outline>
</glyph>
<glyph name="E" format="2">
  <advance width="477"/>
  <unicode hex="0045"/>
  <outline>
    <contour>
      <point x="386" y="740" type="qcurve"/>
      <point x="386" y="755"/>
      <point x="324" y="786"/>
      <point x="302" y="786" type="qcurve"/>
      <point x="287" y="786"/>
      <point x="226" y="792"/>
      <point x="210" y="792" type="qcurve"/>
      <point x="148" y="792"/>
      <point x="57" y="662"/>
      <point x="57" y="594" type="qcurve"/>
      <point x="57" y="592"/>
      <point x="58" y="582"/>
      <point x="58" y="579" type="qcurve"/>
      <point x="58" y="569"/>
      <point x="55" y="530"/>
      <point x="55" y="520" type="qcurve"/>
      <point x="55" y="486"/>
      <point x="102" y="410"/>
      <point x="134" y="410" type="qcurve"/>
      <point x="138" y="410" type="line"/>
      <point x="142" y="410"/>
      <point x="164" y="403"/>
      <point x="164" y="401" type="qcurve"/>
      <point x="164" y="396"/>
      <point x="136" y="370"/>
      <point x="100" y="340"/>
      <point x="98" y="338" type="qcurve"/>
      <point x="55" y="295"/>
      <point x="55" y="227" type="qcurve"/>
      <point x="55" y="183" type="line"/>
      <point x="55" y="89"/>
      <point x="186" y="-20"/>
      <point x="282" y="-20" type="qcurve"/>
      <point x="323" y="-20"/>
      <point x="422" y="54"/>
      <point x="422" y="92" type="qcurve"/>
      <point x="422" y="101"/>
      <point x="409" y="114"/>
      <point x="400" y="114" type="qcurve"/>
      <point x="384" y="114"/>
      <point x="350" y="70"/>
      <point x="309" y="25"/>
      <point x="283" y="25" type="qcurve"/>
      <point x="204" y="25"/>
      <point x="100" y="109"/>
      <point x="100" y="186" type="qcurve"/>
      <point x="100" y="212" type="line"/>
      <point x="100" y="228" type="line"/>
      <point x="100" y="281"/>
      <point x="196" y="377"/>
      <point x="245" y="390" type="qcurve"/>
      <point x="262" y="394"/>
      <point x="262" y="412" type="qcurve"/>
      <point x="262" y="421"/>
      <point x="249" y="434"/>
      <point x="240" y="434" type="qcurve"/>
      <point x="212" y="434" type="line"/>
      <point x="202" y="434"/>
      <point x="154" y="455"/>
      <point x="139" y="455" type="qcurve"/>
      <point x="138" y="455" type="line"/>
      <point x="123" y="455"/>
      <point x="101" y="502"/>
      <point x="101" y="523" type="qcurve"/>
      <point x="101" y="532"/>
      <point x="103" y="569"/>
      <point x="103" y="578" type="qcurve"/>
      <point x="103" y="581"/>
      <point x="102" y="592"/>
      <point x="102" y="595" type="qcurve"/>
      <point x="103" y="642"/>
      <point x="168" y="747"/>
      <point x="212" y="747" type="qcurve"/>
      <point x="227" y="747"/>
      <point x="287" y="742"/>
      <point x="302" y="742" type="qcurve"/>
      <point x="310" y="742"/>
      <point x="350" y="718"/>
      <point x="364" y="718" type="qcurve"/>
      <point x="373" y="718"/>
      <point x="386" y="731"/>
    </contour>
    <contour>
      <point x="134" y="405" type="line"/>
      <point x="99" y="405"/>
      <point x="50" y="484"/>
      <point x="50" y="520" type="qcurve"/>
      <point x="50" y="530"/>
      <point x="53" y="569"/>
      <point x="53" y="579" type="qcurve"/>
      <point x="53" y="582"/>
      <point x="52" y="592"/>
      <point x="52" y="594" type="qcurve"/>
      <point x="52" y="665"/>
      <point x="145" y="797"/>
      <point x="210" y="797" type="qcurve"/>
      <point x="226" y="797"/>
      <point x="287" y="791"/>
      <point x="302" y="791" type="qcurve"/>
      <point x="328" y="791"/>
      <point x="391" y="758"/>
      <point x="391" y="740" type="qcurve"/>
      <point x="391" y="729"/>
      <point x="375" y="713"/>
      <point x="364" y="713" type="qcurve"/>
      <point x="350" y="713"/>
      <point x="310" y="737"/>
      <point x="302" y="737" type="qcurve"/>
      <point x="287" y="737"/>
      <point x="227" y="742"/>
      <point x="212" y="742" type="qcurve"/>
      <point x="169" y="742"/>
      <point x="108" y="645"/>
      <point x="107" y="595" type="qcurve"/>
      <point x="108" y="589"/>
      <point x="108" y="578" type="qcurve"/>
      <point x="108" y="569"/>
      <point x="106" y="532"/>
      <point x="106" y="523" type="qcurve"/>
      <point x="106" y="515"/>
      <point x="107" y="502"/>
      <point x="112" y="491"/>
      <point x="115" y="484"/>
      <point x="122" y="475"/>
      <point x="126" y="471"/>
      <point x="137" y="462"/>
      <point x="139" y="460" type="qcurve"/>
      <point x="154" y="460"/>
      <point x="202" y="439"/>
      <point x="212" y="439" type="qcurve"/>
      <point x="240" y="439" type="line"/>
      <point x="251" y="439"/>
      <point x="267" y="423"/>
      <point x="267" y="412" type="qcurve"/>
      <point x="267" y="393"/>
      <point x="216" y="351"/>
      <point x="156" y="317"/>
      <point x="105" y="260"/>
      <point x="105" y="228" type="qcurve"/>
      <point x="105" y="212" type="line"/>
      <point x="105" y="186" type="line"/>
      <point x="105" y="111"/>
      <point x="206" y="30"/>
      <point x="283" y="30" type="qcurve"/>
      <point x="303" y="30"/>
      <point x="338" y="58"/>
      <point x="358" y="91"/>
      <point x="386" y="119"/>
      <point x="400" y="119" type="qcurve"/>
      <point x="411" y="119"/>
      <point x="427" y="103"/>
      <point x="427" y="92" type="qcurve"/>
      <point x="427" y="52"/>
      <point x="326" y="-25"/>
      <point x="282" y="-25" type="qcurve"/>
      <point x="184" y="-25"/>
      <point x="50" y="87"/>
      <point x="50" y="183" type="qcurve"/>
      <point x="50" y="211" type="line"/>
      <point x="50" y="227" type="line"/>
      <point x="50" y="321"/>
      <point x="155" y="400" type="qcurve"/>
      <point x="152" y="401"/>
      <point x="139" y="405"/>
      <point x="138" y="405" type="qcurve"/>
    </contour>
  </outline>
</glyph>
<glyph name="F" format="2">
  <advance width="586"/>
  <unicode hex="0046"/>
  <outline>
    <contour>
      <point x="166" y="240" type="qcurve"/>
      <point x="166" y="234"/>
      <point x="163" y="207"/>
      <point x="163" y="200" type="qcurve"/>
      <point x="163" y="188"/>
      <point x="165" y="134"/>
      <point x="165" y="122" type="qcurve"/>
      <point x="165" y="100"/>
      <point x="163" y="73"/>
      <point x="154" y="43"/>
      <point x="134" y="28"/>
      <point x="118" y="28" type="qcurve"/>
      <point x="108" y="28"/>
      <point x="82" y="34"/>
      <point x="77" y="34" type="qcurve"/>
      <point x="68" y="34"/>
      <point x="55" y="21"/>
      <point x="55" y="12" type="qcurve"/>
      <point x="55" y="-17"/>
      <point x="117" y="-17" type="qcurve"/>
      <point x="210" y="-17"/>
      <point x="210" y="122" type="qcurve"/>
      <point x="210" y="134"/>
      <point x="208" y="184"/>
      <point x="208" y="197" type="qcurve"/>
      <point x="208" y="207"/>
      <point x="211" y="233"/>
      <point x="211" y="238" type="qcurve"/>
      <point x="211" y="246"/>
      <point x="210" y="279"/>
      <point x="210" y="288" type="qcurve"/>
      <point x="210" y="381"/>
      <point x="216" y="381" type="qcurve"/>
      <point x="300" y="378" type="line"/>
      <point x="301" y="378" type="line"/>
      <point x="310" y="378"/>
      <point x="323" y="391"/>
      <point x="323" y="400" type="qcurve"/>
      <point x="323" y="420"/>
      <point x="302" y="422" type="qcurve"/>
      <point x="218" y="426" type="line"/>
      <point x="216" y="426"/>
      <point x="216" y="429" type="qcurve"/>
      <point x="216" y="446"/>
      <point x="220" y="513"/>
      <point x="220" y="531" type="qcurve"/>
      <point x="220" y="543" type="line"/>
      <point x="220" y="559"/>
      <point x="216" y="629"/>
      <point x="216" y="647" type="qcurve"/>
      <point x="216" y="659"/>
      <point x="426" y="761"/>
      <point x="442" y="761" type="qcurve"/>
      <point x="460" y="761"/>
      <point x="476" y="733"/>
      <point x="478" y="698"/>
      <point x="493" y="670"/>
      <point x="509" y="670" type="qcurve"/>
      <point x="518" y="670"/>
      <point x="531" y="683"/>
      <point x="531" y="692" type="qcurve"/>
      <point x="531" y="734"/>
      <point x="482" y="806"/>
      <point x="443" y="806" type="qcurve"/>
      <point x="412" y="806"/>
      <point x="346" y="771"/>
      <point x="300" y="730"/>
      <point x="240" y="695"/>
      <point x="214" y="695" type="qcurve"/>
      <point x="214" y="696"/>
      <point x="199" y="730"/>
      <point x="181" y="768"/>
      <point x="177" y="772" type="qcurve"/>
      <point x="127" y="820" type="line"/>
      <point x="121" y="826"/>
      <point x="111" y="826" type="qcurve"/>
      <point x="102" y="826"/>
      <point x="89" y="814"/>
      <point x="89" y="805" type="qcurve"/>
      <point x="87" y="749" type="line"/>
      <point x="87" y="748" type="line"/>
      <point x="87" y="728"/>
      <point x="149" y="661"/>
      <point x="170" y="653" type="qcurve"/>
      <point x="173" y="652"/>
      <point x="175" y="629"/>
      <point x="176" y="595"/>
      <point x="176" y="564"/>
      <point x="175" y="534"/>
      <point x="175" y="532" type="qcurve"/>
      <point x="175" y="438"/>
      <point x="169" y="438" type="qcurve"/>
      <point x="160" y="438"/>
      <point x="123" y="446"/>
      <point x="113" y="446" type="qcurve"/>
      <point x="105" y="446" type="line"/>
      <point x="96" y="446"/>
      <point x="83" y="433"/>
      <point x="83" y="415"/>
      <point x="96" y="402"/>
      <point x="105" y="402" type="qcurve"/>
      <point x="113" y="402" type="line"/>
      <point x="122" y="402"/>
      <point x="169" y="395"/>
      <point x="169" y="390" type="qcurve"/>
      <point x="169" y="373"/>
      <point x="165" y="305"/>
      <point x="165" y="288" type="qcurve"/>
      <point x="165" y="280"/>
      <point x="166" y="248"/>
    </contour>
    <contour>
      <point x="216" y="238" type="qcurve"/>
      <point x="216" y="233"/>
      <point x="213" y="207"/>
      <point x="213" y="197" type="qcurve"/>
      <point x="213" y="185"/>
      <point x="215" y="135"/>
      <point x="215" y="122" type="qcurve"/>
      <point x="215" y="-22"/>
      <point x="117" y="-22" type="qcurve"/>
      <point x="50" y="-22"/>
      <point x="50" y="12" type="qcurve"/>
      <point x="50" y="23"/>
      <point x="66" y="39"/>
      <point x="77" y="39" type="qcurve"/>
      <point x="82" y="39"/>
      <point x="108" y="33"/>
      <point x="118" y="33" type="qcurve"/>
      <point x="137" y="33"/>
      <point x="157" y="62"/>
      <point x="160" y="93"/>
      <point x="160" y="122" type="qcurve"/>
      <point x="160" y="134"/>
      <point x="158" y="188"/>
      <point x="158" y="200" type="qcurve"/>
      <point x="158" y="220"/>
      <point x="161" y="240" type="qcurve"/>
      <point x="160" y="256"/>
      <point x="160" y="288" type="qcurve"/>
      <point x="160" y="322"/>
      <point x="164" y="388" type="qcurve"/>
      <point x="130" y="397"/>
      <point x="113" y="397" type="qcurve"/>
      <point x="105" y="397" type="line"/>
      <point x="94" y="397"/>
      <point x="78" y="413"/>
      <point x="78" y="435"/>
      <point x="94" y="451"/>
      <point x="105" y="451" type="qcurve"/>
      <point x="113" y="451" type="line"/>
      <point x="137" y="451"/>
      <point x="167" y="444" type="qcurve"/>
      <point x="172" y="533"/>
      <point x="166" y="649" type="qcurve"/>
      <point x="145" y="658"/>
      <point x="82" y="728"/>
      <point x="82" y="748" type="qcurve"/>
      <point x="82" y="749" type="line"/>
      <point x="84" y="805" type="line"/>
      <point x="85" y="816"/>
      <point x="100" y="831"/>
      <point x="111" y="831" type="qcurve"/>
      <point x="123" y="831"/>
      <point x="130" y="824" type="qcurve"/>
      <point x="180" y="776" type="line"/>
      <point x="205" y="751"/>
      <point x="215" y="701" type="qcurve"/>
      <point x="245" y="710"/>
      <point x="323" y="767"/>
      <point x="402" y="811"/>
      <point x="484" y="811"/>
      <point x="536" y="737"/>
      <point x="536" y="692" type="qcurve"/>
      <point x="536" y="681"/>
      <point x="520" y="665"/>
      <point x="509" y="665" type="qcurve"/>
      <point x="492" y="665"/>
      <point x="476" y="693"/>
      <point x="474" y="728"/>
      <point x="458" y="756"/>
      <point x="442" y="756" type="qcurve"/>
      <point x="411" y="756"/>
      <point x="334" y="708"/>
      <point x="252" y="652"/>
      <point x="222" y="645" type="qcurve"/>
      <point x="222" y="634"/>
      <point x="224" y="591"/>
      <point x="225" y="557"/>
      <point x="225" y="543" type="qcurve"/>
      <point x="225" y="531" type="line"/>
      <point x="225" y="497"/>
      <point x="221" y="431" type="qcurve"/>
      <point x="302" y="427" type="line"/>
      <point x="313" y="426"/>
      <point x="328" y="410"/>
      <point x="328" y="400" type="qcurve"/>
      <point x="328" y="389"/>
      <point x="312" y="373"/>
      <point x="301" y="373" type="qcurve"/>
      <point x="300" y="373" type="line"/>
      <point x="218" y="376" type="line"/>
      <point x="215" y="331"/>
      <point x="215" y="288" type="qcurve"/>
      <point x="215" y="279"/>
      <point x="216" y="246"/>
    </contour>
  </outline>
</glyph>
<glyph name="H" format="2">
  <advance width="826"/>
  <unicode hex="0048"/>
  <outline>
    <contour>
      <point x="308" y="269" type="qcurve"/>
      <point x="306" y="241"/>
      <point x="222" y="109"/>
      <point x="222" y="75" type="qcurve"/>
      <point x="222" y="61"/>
      <point x="248" y="32"/>
      <point x="262" y="32" type="qcurve"/>
      <point x="288" y="32"/>
      <point x="336" y="98"/>
      <point x="336" y="125" type="qcurve"/>
      <point x="336" y="149"/>
      <point x="318" y="265"/>
    </contour>
    <contour>
      <point x="306" y="276" type="qcurve"/>
      <point x="318" y="276"/>
      <point x="340" y="151"/>
      <point x="340" y="125" type="qcurve"/>
      <point x="340" y="96"/>
      <point x="291" y="28"/>
      <point x="262" y="28" type="qcurve"/>
      <point x="246" y="28"/>
      <point x="218" y="59"/>
      <point x="218" y="75" type="qcurve"/>
      <point x="218" y="109"/>
      <point x="304" y="244"/>
      <point x="304" y="273" type="qcurve"/>
      <point x="304" y="276"/>
    </contour>
    <contour>
      <point x="542" y="515" type="qcurve"/>
      <point x="542" y="492"/>
      <point x="388" y="347"/>
      <point x="363" y="347" type="qcurve"/>
      <point x="354" y="347"/>
      <point x="354" y="534" type="qcurve"/>
      <point x="354" y="546"/>
      <point x="355" y="592"/>
      <point x="355" y="604" type="qcurve"/>
      <point x="355" y="609"/>
      <point x="354" y="635"/>
      <point x="354" y="643" type="qcurve"/>
      <point x="354" y="715"/>
      <point x="361" y="720" type="qcurve"/>
      <point x="387" y="739"/>
      <point x="387" y="772" type="qcurve"/>
      <point x="387" y="781"/>
      <point x="374" y="794"/>
      <point x="365" y="794" type="qcurve"/>
      <point x="350" y="794"/>
      <point x="325" y="752"/>
      <point x="319" y="752" type="qcurve"/>
      <point x="282" y="752"/>
      <point x="158" y="814"/>
      <point x="115" y="814" type="qcurve"/>
      <point x="93" y="814"/>
      <point x="55" y="798"/>
      <point x="55" y="782" type="qcurve"/>
      <point x="55" y="716" type="line"/>
      <point x="55" y="712" type="line"/>
      <point x="65" y="662" type="line"/>
      <point x="69" y="644"/>
      <point x="87" y="644" type="qcurve"/>
      <point x="96" y="644"/>
      <point x="109" y="657"/>
      <point x="109" y="666" type="qcurve"/>
      <point x="109" y="670" type="line"/>
      <point x="100" y="718" type="line"/>
      <point x="99" y="718" type="line"/>
      <point x="99" y="764" type="line"/>
      <point x="99" y="770"/>
      <point x="115" y="770" type="qcurve"/>
      <point x="127" y="770"/>
      <point x="313" y="708"/>
      <point x="313" y="705" type="qcurve"/>
      <point x="313" y="694"/>
      <point x="309" y="653"/>
      <point x="309" y="643" type="qcurve"/>
      <point x="309" y="635"/>
      <point x="310" y="608"/>
      <point x="310" y="603" type="qcurve"/>
      <point x="310" y="592"/>
      <point x="309" y="544"/>
      <point x="309" y="533" type="qcurve"/>
      <point x="309" y="495"/>
      <point x="317" y="347"/>
      <point x="317" y="311" type="qcurve"/>
      <point x="317" y="309"/>
      <point x="316" y="309" type="qcurve"/>
      <point x="283" y="281"/>
      <point x="245" y="245"/>
      <point x="185" y="178"/>
      <point x="155" y="110"/>
      <point x="155" y="75" type="qcurve"/>
      <point x="155" y="37"/>
      <point x="224" y="-18"/>
      <point x="263" y="-18" type="qcurve"/>
      <point x="366" y="-18"/>
      <point x="366" y="178" type="qcurve"/>
      <point x="366" y="198"/>
      <point x="363" y="270"/>
      <point x="363" y="288" type="qcurve"/>
      <point x="363" y="290"/>
      <point x="364" y="290" type="qcurve"/>
      <point x="380" y="303"/>
      <point x="442" y="352"/>
      <point x="480" y="384"/>
      <point x="530" y="430"/>
      <point x="549" y="451" type="qcurve"/>
      <point x="549" y="452"/>
      <point x="551" y="452" type="qcurve"/>
      <point x="554" y="452"/>
      <point x="561" y="322"/>
      <point x="569" y="180"/>
      <point x="571" y="171" type="qcurve"/>
      <point x="585" y="104"/>
      <point x="662" y="33"/>
      <point x="736" y="1" type="qcurve"/>
      <point x="748" y="-2"/>
      <point x="749" y="-2" type="qcurve"/>
      <point x="758" y="-2"/>
      <point x="771" y="11"/>
      <point x="771" y="20" type="qcurve"/>
      <point x="771" y="34"/>
      <point x="720" y="65"/>
      <point x="659" y="92"/>
      <point x="654" y="97" type="qcurve"/>
      <point x="620" y="131"/>
      <point x="604" y="275"/>
      <point x="603" y="452"/>
      <point x="589" y="498" type="qcurve"/>
      <point x="589" y="502" type="line"/>
      <point x="589" y="508"/>
      <point x="614" y="545"/>
      <point x="615" y="548" type="qcurve"/>
      <point x="645" y="613"/>
      <point x="645" y="686" type="qcurve"/>
      <point x="645" y="697"/>
      <point x="639" y="743"/>
      <point x="639" y="756" type="qcurve"/>
      <point x="639" y="762" type="line"/>
      <point x="639" y="806"/>
      <point x="611" y="806" type="qcurve"/>
      <point x="589" y="806"/>
      <point x="557" y="760"/>
      <point x="542" y="690"/>
      <point x="536" y="631"/>
      <point x="536" y="605" type="qcurve"/>
      <point x="536" y="573"/>
    </contour>
    <contour>
      <point x="365" y="355" type="qcurve"/>
      <point x="410" y="391"/>
      <point x="450" y="423"/>
      <point x="515" y="487"/>
      <point x="537" y="516" type="qcurve"/>
      <point x="531" y="574"/>
      <point x="531" y="605" type="qcurve"/>
      <point x="531" y="632"/>
      <point x="537" y="693"/>
      <point x="553" y="765"/>
      <point x="587" y="811"/>
      <point x="611" y="811" type="qcurve"/>
      <point x="644" y="811"/>
      <point x="644" y="762" type="qcurve"/>
      <point x="644" y="756" type="line"/>
      <point x="644" y="743"/>
      <point x="650" y="697"/>
      <point x="650" y="686" type="qcurve"/>
      <point x="650" y="585"/>
      <point x="594" y="501" type="qcurve"/>
      <point x="597" y="474"/>
      <point x="602" y="307"/>
      <point x="611" y="203"/>
      <point x="653" y="95"/>
      <point x="689" y="80" type="qcurve"/>
      <point x="690" y="80"/>
      <point x="719" y="68"/>
      <point x="738" y="60"/>
      <point x="763" y="45"/>
      <point x="776" y="29"/>
      <point x="776" y="20" type="qcurve"/>
      <point x="776" y="9"/>
      <point x="760" y="-7"/>
      <point x="749" y="-7" type="qcurve"/>
      <point x="705" y="-7"/>
      <point x="641" y="22"/>
      <point x="602" y="78"/>
      <point x="577" y="142"/>
      <point x="565" y="233"/>
      <point x="560" y="309"/>
      <point x="553" y="411"/>
      <point x="549" y="444" type="qcurve"/>
      <point x="530" y="423"/>
      <point x="481" y="378"/>
      <point x="445" y="349"/>
      <point x="382" y="299"/>
      <point x="368" y="287" type="qcurve"/>
      <point x="371" y="231"/>
      <point x="371" y="178" type="qcurve"/>
      <point x="371" y="-23"/>
      <point x="263" y="-23" type="qcurve"/>
      <point x="222" y="-23"/>
      <point x="150" y="34"/>
      <point x="150" y="75" type="qcurve"/>
      <point x="150" y="110"/>
      <point x="180" y="180"/>
      <point x="240" y="247"/>
      <point x="279" y="284"/>
      <point x="312" y="312" type="qcurve"/>
      <point x="304" y="458"/>
      <point x="304" y="533" type="qcurve"/>
      <point x="304" y="580"/>
      <point x="305" y="603" type="qcurve"/>
      <point x="304" y="615"/>
      <point x="304" y="643" type="qcurve"/>
      <point x="304" y="673"/>
      <point x="307" y="703" type="qcurve"/>
      <point x="270" y="705"/>
      <point x="151" y="765"/>
      <point x="115" y="765" type="qcurve"/>
      <point x="110" y="765"/>
      <point x="104" y="762" type="qcurve"/>
      <point x="104" y="719" type="line"/>
      <point x="114" y="671" type="line"/>
      <point x="114" y="666" type="line"/>
      <point x="114" y="655"/>
      <point x="98" y="639"/>
      <point x="87" y="639" type="qcurve"/>
      <point x="77" y="639"/>
      <point x="62" y="652"/>
      <point x="60" y="661" type="qcurve"/>
      <point x="50" y="711" type="line"/>
      <point x="50" y="716" type="line"/>
      <point x="50" y="782" type="line"/>
      <point x="50" y="800"/>
      <point x="91" y="819"/>
      <point x="115" y="819" type="qcurve"/>
      <point x="158" y="819"/>
      <point x="283" y="757"/>
      <point x="319" y="757" type="qcurve"/>
      <point x="320" y="758" type="line"/>
      <point x="337" y="799"/>
      <point x="365" y="799" type="qcurve"/>
      <point x="376" y="799"/>
      <point x="392" y="783"/>
      <point x="392" y="772" type="qcurve"/>
      <point x="392" y="736"/>
      <point x="365" y="716" type="qcurve"/>
      <point x="359" y="684"/>
      <point x="359" y="643" type="qcurve"/>
      <point x="359" y="634"/>
      <point x="360" y="609"/>
      <point x="360" y="604" type="qcurve"/>
      <point x="360" y="592"/>
      <point x="359" y="546"/>
      <point x="359" y="534" type="qcurve"/>
      <point x="359" y="475"/>
    </contour>
    <contour>
      <point x="548" y="649" type="qcurve"/>
      <point x="548" y="676"/>
      <point x="571" y="760"/>
      <point x="591" y="760" type="qcurve"/>
      <point x="610" y="760"/>
      <point x="628" y="691"/>
      <point x="628" y="663" type="qcurve"/>
      <point x="628" y="628"/>
      <point x="601" y="554"/>
      <point x="572" y="554" type="qcurve"/>
      <point x="567" y="554" type="line"/>
      <point x="558" y="554"/>
      <point x="548" y="628"/>
    </contour>
    <contour>
      <point x="554" y="649" type="qcurve"/>
      <point x="554" y="591"/>
      <point x="569" y="560" type="qcurve"/>
      <point x="572" y="560" type="line"/>
      <point x="597" y="560"/>
      <point x="624" y="631"/>
      <point x="624" y="663" type="qcurve"/>
      <point x="624" y="687"/>
      <point x="607" y="754"/>
      <point x="575" y="754"/>
      <point x="554" y="672"/>
    </contour>
  </outline>
</glyph>
<glyph name="K" format="2">
  <advance width="896"/>
  <unicode hex="004B"/>
  <outline>
    <contour>
      <point x="159" y="-31" type="qcurve"/>
      <point x="148" y="-31"/>
      <point x="132" y="-15"/>
      <point x="132" y="-4" type="qcurve"/>
      <point x="132" y="17"/>
      <point x="158" y="75"/>
      <point x="200" y="147"/>
      <point x="205" y="157" type="qcurve"/>
      <point x="238" y="306"/>
      <point x="238" y="523" type="qcurve"/>
      <point x="238" y="631"/>
      <point x="228" y="736" type="qcurve"/>
      <point x="173" y="715"/>
      <point x="125" y="715" type="qcurve"/>
      <point x="77" y="715" type="line"/>
      <point x="66" y="715"/>
      <point x="50" y="731"/>
      <point x="50" y="753"/>
      <point x="66" y="769"/>
      <point x="77" y="769" type="qcurve"/>
      <point x="125" y="769" type="line"/>
      <point x="165" y="769"/>
      <point x="248" y="803"/>
      <point x="251" y="803" type="qcurve"/>
      <point x="261" y="803"/>
      <point x="277" y="781"/>
      <point x="286" y="737"/>
      <point x="292" y="694"/>
      <point x="293" y="629"/>
      <point x="294" y="590"/>
      <point x="293" y="529"/>
      <point x="293" y="523" type="qcurve"/>
      <point x="293" y="424"/>
      <point x="283" y="309" type="qcurve"/>
      <point x="376" y="470"/>
      <point x="495" y="558" type="qcurve"/>
      <point x="513" y="571"/>
      <point x="585" y="664"/>
      <point x="659" y="733"/>
      <point x="693" y="733" type="qcurve"/>
      <point x="718" y="733"/>
      <point x="740" y="653"/>
      <point x="740" y="618" type="qcurve"/>
      <point x="740" y="544"/>
      <point x="644" y="431"/>
      <point x="508" y="379"/>
      <point x="435" y="379" type="qcurve"/>
      <point x="420" y="379" type="line"/>
      <point x="419" y="375"/>
      <point x="419" y="366" type="qcurve"/>
      <point x="419" y="296"/>
      <point x="537" y="148"/>
      <point x="701" y="57"/>
      <point x="769" y="57" type="qcurve"/>
      <point x="775" y="57"/>
      <point x="786" y="86"/>
      <point x="804" y="115"/>
      <point x="819" y="115" type="qcurve"/>
      <point x="830" y="115"/>
      <point x="846" y="99"/>
      <point x="846" y="88" type="qcurve"/>
      <point x="846" y="62"/>
      <point x="797" y="3"/>
      <point x="769" y="3" type="qcurve"/>
      <point x="639" y="3"/>
      <point x="387" y="216"/>
      <point x="366" y="338" type="qcurve"/>
      <point x="320" y="268"/>
      <point x="258" y="139" type="qcurve"/>
      <point x="218" y="-31"/>
    </contour>
    <contour>
      <point x="251" y="798" type="qcurve"/>
      <point x="250" y="798"/>
      <point x="166" y="764"/>
      <point x="125" y="764" type="qcurve"/>
      <point x="77" y="764" type="line"/>
      <point x="68" y="764"/>
      <point x="55" y="751"/>
      <point x="55" y="733"/>
      <point x="68" y="720"/>
      <point x="77" y="720" type="qcurve"/>
      <point x="125" y="720" type="line"/>
      <point x="146" y="720"/>
      <point x="216" y="742"/>
      <point x="230" y="742" type="qcurve"/>
      <point x="243" y="742"/>
      <point x="243" y="523" type="qcurve"/>
      <point x="243" y="521"/>
      <point x="244" y="387"/>
      <point x="242" y="344"/>
      <point x="237" y="243"/>
      <point x="222" y="180"/>
      <point x="210" y="155" type="qcurve"/>
      <point x="204" y="143"/>
      <point x="164" y="75"/>
      <point x="137" y="16"/>
      <point x="137" y="-4" type="qcurve"/>
      <point x="137" y="-13"/>
      <point x="150" y="-26"/>
      <point x="159" y="-26" type="qcurve"/>
      <point x="187" y="-26"/>
      <point x="221" y="30"/>
      <point x="247" y="128"/>
      <point x="253" y="141" type="qcurve"/>
      <point x="255" y="146"/>
      <point x="279" y="200"/>
      <point x="304" y="253"/>
      <point x="333" y="311"/>
      <point x="359" y="347"/>
      <point x="367" y="347" type="qcurve"/>
      <point x="368" y="347"/>
      <point x="374" y="327"/>
      <point x="380" y="303"/>
      <point x="381" y="301" type="qcurve"/>
      <point x="420" y="192"/>
      <point x="650" y="8"/>
      <point x="769" y="8" type="qcurve"/>
      <point x="794" y="8"/>
      <point x="841" y="64"/>
      <point x="841" y="88" type="qcurve"/>
      <point x="841" y="97"/>
      <point x="828" y="110"/>
      <point x="819" y="110" type="qcurve"/>
      <point x="802" y="110"/>
      <point x="778" y="52"/>
      <point x="769" y="52" type="qcurve"/>
      <point x="718" y="52"/>
      <point x="592" y="108"/>
      <point x="486" y="196"/>
      <point x="414" y="312"/>
      <point x="414" y="366" type="qcurve"/>
      <point x="414" y="384"/>
      <point x="418" y="384" type="qcurve"/>
      <point x="435" y="384" type="line"/>
      <point x="507" y="384"/>
      <point x="640" y="435"/>
      <point x="735" y="545"/>
      <point x="735" y="618" type="qcurve"/>
      <point x="735" y="650"/>
      <point x="716" y="728"/>
      <point x="693" y="728" type="qcurve"/>
      <point x="659" y="728"/>
      <point x="585" y="658"/>
      <point x="514" y="566"/>
      <point x="498" y="554" type="qcurve"/>
      <point x="377" y="465"/>
      <point x="282" y="296" type="qcurve"/>
      <point x="282" y="295"/>
      <point x="280" y="295" type="qcurve"/>
      <point x="277" y="295"/>
      <point x="277" y="297" type="qcurve"/>
      <point x="277" y="332"/>
      <point x="288" y="484"/>
      <point x="288" y="523" type="qcurve"/>
      <point x="288" y="527"/>
      <point x="289" y="588"/>
      <point x="288" y="625"/>
      <point x="287" y="690"/>
      <point x="281" y="732"/>
      <point x="274" y="776"/>
      <point x="260" y="798"/>
    </contour>
    <contour>
      <point x="703" y="626" type="qcurve"/>
      <point x="703" y="546"/>
      <point x="578" y="429"/>
      <point x="502" y="429" type="qcurve"/>
      <point x="476" y="434" type="line"/>
      <point x="464" y="436" type="line"/>
      <point x="462" y="436"/>
      <point x="462" y="438" type="qcurve"/>
      <point x="462" y="444"/>
      <point x="497" y="488"/>
      <point x="542" y="541"/>
      <point x="549" y="551" type="qcurve"/>
      <point x="605" y="633"/>
      <point x="628" y="653" type="qcurve"/>
      <point x="648" y="670"/>
      <point x="665" y="670" type="qcurve"/>
      <point x="681" y="670"/>
      <point x="703" y="645"/>
    </contour>
    <contour>
      <point x="470" y="440" type="qcurve"/>
      <point x="472" y="440"/>
      <point x="485" y="436"/>
      <point x="498" y="434"/>
      <point x="502" y="434" type="qcurve"/>
      <point x="577" y="434"/>
      <point x="698" y="549"/>
      <point x="698" y="626" type="qcurve"/>
      <point x="698" y="644"/>
      <point x="679" y="665"/>
      <point x="665" y="665" type="qcurve"/>
      <point x="640" y="665"/>
      <point x="565" y="572"/>
      <point x="486" y="455"/>
    </contour>
  </outline>
</glyph>
<glyph name="Q" format="2">
  <advance width="527"/>
  <unicode hex="0051"/>
  <outline>
    <contour>
      <point x="277" y="723" type="qcurve"/>
      <point x="273" y="723"/>
      <point x="253" y="721"/>
      <point x="248" y="721" type="qcurve"/>
      <point x="232" y="721" type="line"/>
      <point x="206" y="721"/>
      <point x="164" y="699"/>
      <point x="138" y="669"/>
      <point x="119" y="611"/>
      <point x="110" y="569"/>
      <point x="105" y="492"/>
      <point x="105" y="452"/>
      <point x="105" y="413" type="qcurve"/>
      <point x="105" y="402"/>
      <point x="105" y="397" type="qcurve"/>
      <point x="105" y="337"/>
      <point x="124" y="219"/>
      <point x="165" y="108"/>
      <point x="239" y="35"/>
      <point x="289" y="30" type="qcurve"/>
      <point x="288" y="32" type="line"/>
      <point x="288" y="34" type="line"/>
      <point x="288" y="47"/>
      <point x="300" y="56" type="qcurve"/>
      <point x="361" y="100"/>
      <point x="422" y="283"/>
      <point x="422" y="395" type="qcurve"/>
      <point x="422" y="404"/>
      <point x="420" y="438"/>
      <point x="420" y="446" type="qcurve"/>
      <point x="420" y="452"/>
      <point x="422" y="480"/>
      <point x="422" y="487" type="qcurve"/>
      <point x="422" y="548"/>
      <point x="397" y="649"/>
      <point x="329" y="723"/>
    </contour>
    <contour>
      <point x="425" y="446" type="qcurve"/>
      <point x="425" y="438"/>
      <point x="427" y="404"/>
      <point x="427" y="395" type="qcurve"/>
      <point x="427" y="281"/>
      <point x="365" y="96"/>
      <point x="303" y="52" type="qcurve"/>
      <point x="293" y="45"/>
      <point x="293" y="34" type="qcurve"/>
      <point x="293" y="33"/>
      <point x="294" y="28"/>
      <point x="294" y="27" type="qcurve"/>
      <point x="294" y="25"/>
      <point x="292" y="25" type="qcurve"/>
      <point x="240" y="25"/>
      <point x="162" y="99"/>
      <point x="120" y="216"/>
      <point x="100" y="337"/>
      <point x="100" y="397" type="qcurve"/>
      <point x="100" y="402"/>
      <point x="100" y="413" type="qcurve"/>
      <point x="100" y="452"/>
      <point x="100" y="495"/>
      <point x="105" y="571"/>
      <point x="115" y="616"/>
      <point x="134" y="673"/>
      <point x="162" y="704"/>
      <point x="204" y="726"/>
      <point x="232" y="726" type="qcurve"/>
      <point x="248" y="726" type="line"/>
      <point x="253" y="726"/>
      <point x="273" y="728"/>
      <point x="277" y="728" type="qcurve"/>
      <point x="318" y="728"/>
      <point x="378" y="686"/>
      <point x="411" y="614"/>
      <point x="427" y="532"/>
      <point x="427" y="487" type="qcurve"/>
      <point x="427" y="480"/>
      <point x="425" y="452"/>
    </contour>
    <contour>
      <point x="276" y="773" type="qcurve"/>
      <point x="272" y="773"/>
      <point x="252" y="771"/>
      <point x="247" y="771" type="qcurve"/>
      <point x="233" y="771" type="line"/>
      <point x="204" y="771"/>
      <point x="157" y="755"/>
      <point x="123" y="732"/>
      <point x="96" y="690"/>
      <point x="78" y="651"/>
      <point x="65" y="591"/>
      <point x="59" y="546"/>
      <point x="56" y="476"/>
      <point x="55" y="431"/>
      <point x="55" y="396" type="qcurve"/>
      <point x="55" y="322"/>
      <point x="80" y="184"/>
      <point x="134" y="56"/>
      <point x="235" y="-21"/>
      <point x="302" y="-21" type="qcurve"/>
      <point x="312" y="-21"/>
      <point x="346" y="-8"/>
      <point x="352" y="-8" type="qcurve"/>
      <point x="360" y="-8"/>
      <point x="391" y="-51"/>
      <point x="391" y="-60" type="qcurve"/>
      <point x="391" y="-62" type="line"/>
      <point x="391" y="-70"/>
      <point x="363" y="-120"/>
      <point x="353" y="-120" type="qcurve"/>
      <point x="294" y="-120" type="line"/>
      <point x="285" y="-120"/>
      <point x="271" y="-133"/>
      <point x="271" y="-151"/>
      <point x="285" y="-164"/>
      <point x="294" y="-164" type="qcurve"/>
      <point x="366" y="-164" type="line"/>
      <point x="387" y="-164"/>
      <point x="436" y="-89"/>
      <point x="436" y="-60" type="qcurve"/>
      <point x="436" y="-36"/>
      <point x="381" y="20"/>
      <point x="381" y="31" type="qcurve"/>
      <point x="381" y="38" type="line"/>
      <point x="381" y="42"/>
      <point x="376" y="56"/>
      <point x="376" y="59" type="qcurve"/>
      <point x="377" y="61" type="line"/>
      <point x="424" y="117"/>
      <point x="472" y="294"/>
      <point x="472" y="395" type="qcurve"/>
      <point x="472" y="404"/>
      <point x="470" y="438"/>
      <point x="470" y="446" type="qcurve"/>
      <point x="470" y="453"/>
      <point x="472" y="481"/>
      <point x="472" y="488" type="qcurve"/>
      <point x="472" y="563"/>
      <point x="435" y="687"/>
      <point x="344" y="773"/>
    </contour>
    <contour>
      <point x="351" y="-115" type="line"/>
      <point x="354" y="-112"/>
      <point x="375" y="-87"/>
      <point x="386" y="-69"/>
      <point x="386" y="-62" type="qcurve"/>
      <point x="386" y="-60" type="line"/>
      <point x="386" y="-55"/>
      <point x="382" y="-45"/>
      <point x="372" y="-33"/>
      <point x="366" y="-26"/>
      <point x="353" y="-14"/>
      <point x="352" y="-13" type="qcurve"/>
      <point x="328" y="-26"/>
      <point x="302" y="-26" type="qcurve"/>
      <point x="233" y="-26"/>
      <point x="131" y="52"/>
      <point x="76" y="181"/>
      <point x="50" y="321"/>
      <point x="50" y="396" type="qcurve"/>
      <point x="50" y="442"/>
      <point x="51" y="502"/>
      <point x="59" y="590"/>
      <point x="73" y="647"/>
      <point x="100" y="713"/>
      <point x="138" y="750"/>
      <point x="196" y="776"/>
      <point x="233" y="776" type="qcurve"/>
      <point x="247" y="776" type="line"/>
      <point x="267" y="778"/>
      <point x="276" y="778" type="qcurve"/>
      <point x="345" y="778"/>
      <point x="439" y="691"/>
      <point x="477" y="565"/>
      <point x="477" y="488" type="qcurve"/>
      <point x="477" y="474"/>
      <point x="475" y="446" type="qcurve"/>
      <point x="477" y="414"/>
      <point x="477" y="395" type="qcurve"/>
      <point x="477" y="175"/>
      <point x="382" y="59" type="qcurve"/>
      <point x="386" y="50"/>
      <point x="386" y="38" type="qcurve"/>
      <point x="386" y="31" type="line"/>
      <point x="389" y="27"/>
      <point x="425" y="-9"/>
      <point x="441" y="-40"/>
      <point x="441" y="-60" type="qcurve"/>
      <point x="441" y="-92"/>
      <point x="389" y="-169"/>
      <point x="366" y="-169" type="qcurve"/>
      <point x="294" y="-169" type="line"/>
      <point x="283" y="-169"/>
      <point x="266" y="-153"/>
      <point x="266" y="-131"/>
      <point x="283" y="-115"/>
      <point x="294" y="-115" type="qcurve"/>
    </contour>
  </outline>
</glyph>
<glyph name="T" format="2">
  <advance width="526"/>
  <unicode hex="0054"/>
  <outline>
    <contour>
      <point x="123" y="762" type="qcurve"/>
      <point x="167" y="762"/>
      <point x="321" y="672"/>
      <point x="369" y="672" type="qcurve"/>
      <point x="378" y="672" type="line"/>
      <point x="380" y="672"/>
      <point x="380" y="670" type="qcurve"/>
      <point x="380" y="37" type="line"/>
      <point x="380" y="34"/>
      <point x="371" y="22"/>
      <point x="369" y="22" type="qcurve"/>
      <point x="364" y="22"/>
      <point x="323" y="50"/>
      <point x="323" y="53" type="qcurve"/>
      <point x="323" y="74" type="line"/>
      <point x="323" y="83"/>
      <point x="310" y="96"/>
      <point x="292" y="96"/>
      <point x="278" y="83"/>
      <point x="278" y="74" type="qcurve"/>
      <point x="278" y="40" type="line"/>
      <point x="278" y="23"/>
      <point x="349" y="-24"/>
      <point x="370" y="-24" type="qcurve"/>
      <point x="389" y="-24"/>
      <point x="425" y="12"/>
      <point x="425" y="30" type="qcurve"/>
      <point x="425" y="684" type="line"/>
      <point x="425" y="693"/>
      <point x="471" y="740"/>
      <point x="471" y="760" type="qcurve"/>
      <point x="471" y="776"/>
      <point x="447" y="802"/>
      <point x="431" y="802" type="qcurve"/>
      <point x="414" y="802"/>
      <point x="396" y="775"/>
      <point x="394" y="744"/>
      <point x="382" y="717"/>
      <point x="370" y="717" type="qcurve"/>
      <point x="328" y="717"/>
      <point x="170" y="806"/>
      <point x="123" y="806" type="qcurve"/>
      <point x="55" y="806"/>
      <point x="55" y="757" type="qcurve"/>
      <point x="55" y="721"/>
      <point x="94" y="628"/>
      <point x="123" y="628" type="qcurve"/>
      <point x="132" y="628"/>
      <point x="145" y="641"/>
      <point x="145" y="650" type="qcurve"/>
      <point x="145" y="663"/>
      <point x="101" y="729"/>
      <point x="100" y="757" type="qcurve"/>
      <point x="100" y="762"/>
    </contour>
    <contour>
      <point x="290" y="101"/>
      <point x="312" y="101"/>
      <point x="328" y="85"/>
      <point x="328" y="74" type="qcurve"/>
      <point x="328" y="55" type="line"/>
      <point x="343" y="44"/>
      <point x="369" y="28" type="qcurve"/>
      <point x="371" y="30"/>
      <point x="375" y="38" type="qcurve"/>
      <point x="375" y="667" type="line"/>
      <point x="369" y="667" type="line"/>
      <point x="320" y="667"/>
      <point x="167" y="757"/>
      <point x="123" y="757" type="qcurve"/>
      <point x="113" y="757"/>
      <point x="105" y="755" type="qcurve"/>
      <point x="108" y="729"/>
      <point x="150" y="664"/>
      <point x="150" y="650" type="qcurve"/>
      <point x="150" y="639"/>
      <point x="134" y="623"/>
      <point x="123" y="623" type="qcurve"/>
      <point x="92" y="623"/>
      <point x="50" y="719"/>
      <point x="50" y="757" type="qcurve"/>
      <point x="50" y="811"/>
      <point x="123" y="811" type="qcurve"/>
      <point x="171" y="811"/>
      <point x="328" y="722"/>
      <point x="370" y="722" type="qcurve"/>
      <point x="379" y="722"/>
      <point x="389" y="749"/>
      <point x="394" y="780"/>
      <point x="414" y="807"/>
      <point x="431" y="807" type="qcurve"/>
      <point x="449" y="807"/>
      <point x="476" y="778"/>
      <point x="476" y="760" type="qcurve"/>
      <point x="476" y="739"/>
      <point x="430" y="695"/>
      <point x="430" y="684" type="qcurve"/>
      <point x="430" y="30" type="line"/>
      <point x="430" y="10"/>
      <point x="392" y="-29"/>
      <point x="370" y="-29" type="qcurve"/>
      <point x="347" y="-29"/>
      <point x="273" y="21"/>
      <point x="273" y="40" type="qcurve"/>
      <point x="273" y="74" type="line"/>
      <point x="273" y="85"/>
    </contour>
  </outline>
</glyph>
<glyph name="grave" format="2">
  <advance width="277"/>
  <unicode hex="0060"/>
  <outline>
    <contour>
      <point x="77" y="571" type="qcurve"/>
      <point x="68" y="571"/>
      <point x="55" y="558"/>
      <point x="55" y="549" type="qcurve"/>
      <point x="55" y="539"/>
      <point x="60" y="534" type="qcurve"/>
      <point x="183" y="396" type="line"/>
      <point x="189" y="389"/>
      <point x="200" y="389" type="qcurve"/>
      <point x="209" y="389"/>
      <point x="222" y="402"/>
      <point x="222" y="411" type="qcurve"/>
      <point x="222" y="421"/>
      <point x="217" y="426" type="qcurve"/>
      <point x="94" y="564" type="line"/>
      <point x="88" y="571"/>
    </contour>
    <contour>
      <point x="227" y="411" type="qcurve"/>
      <point x="227" y="400"/>
      <point x="211" y="384"/>
      <point x="200" y="384" type="qcurve"/>
      <point x="186" y="384"/>
      <point x="179" y="393" type="qcurve"/>
      <point x="56" y="531" type="line"/>
      <point x="50" y="537"/>
      <point x="50" y="549" type="qcurve"/>
      <point x="50" y="560"/>
      <point x="66" y="576"/>
      <point x="77" y="576" type="qcurve"/>
      <point x="90" y="576"/>
      <point x="98" y="567" type="qcurve"/>
      <point x="221" y="429" type="line"/>
      <point x="227" y="423"/>
    </contour>
  </outline>
</glyph>
<glyph name="e" format="2">
  <advance width="594"/>
  <unicode hex="0065"/>
  <outline>
    <contour>
      <point x="413" y="369" type="qcurve"/>
      <point x="402" y="376"/>
      <point x="341" y="386"/>
      <point x="324" y="386" type="qcurve"/>
      <point x="289" y="386"/>
      <point x="196" y="292"/>
      <point x="196" y="257" type="qcurve"/>
      <point x="196" y="242"/>
      <point x="189" y="176"/>
      <point x="189" y="160" type="qcurve"/>
      <point x="189" y="154" type="line"/>
      <point x="396" y="223"/>
    </contour>
    <contour>
      <point x="324" y="391" type="qcurve"/>
      <point x="344" y="391"/>
      <point x="419" y="381"/>
      <point x="419" y="371" type="qcurve"/>
      <point x="419" y="328"/>
      <point x="376" y="252"/>
      <point x="302" y="198"/>
      <point x="229" y="162"/>
      <point x="187" y="148" type="qcurve"/>
      <point x="186" y="148" type="line"/>
      <point x="184" y="148"/>
      <point x="184" y="160" type="qcurve"/>
      <point x="184" y="179"/>
      <point x="191" y="251"/>
      <point x="191" y="257" type="qcurve"/>
      <point x="191" y="294"/>
      <point x="287" y="391"/>
    </contour>
    <contour>
      <point x="27" y="70" type="qcurve"/>
      <point x="44" y="70"/>
      <point x="119" y="87"/>
      <point x="138" y="87" type="qcurve"/>
      <point x="165" y="31"/>
      <point x="239" y="-28"/>
      <point x="301" y="-28" type="qcurve"/>
      <point x="337" y="-28"/>
      <point x="398" y="-18"/>
      <point x="458" y="11"/>
      <point x="488" y="28"/>
      <point x="556" y="76"/>
      <point x="565" y="82" type="qcurve"/>
      <point x="571" y="88" type="line"/>
      <point x="586" y="109" type="line"/>
      <point x="590" y="114"/>
      <point x="590" y="122" type="qcurve"/>
      <point x="590" y="131"/>
      <point x="576" y="144"/>
      <point x="567" y="144" type="qcurve"/>
      <point x="555" y="144"/>
      <point x="549" y="135" type="qcurve"/>
      <point x="537" y="118" type="line"/>
      <point x="505" y="74"/>
      <point x="370" y="17"/>
      <point x="301" y="17" type="qcurve"/>
      <point x="257" y="17"/>
      <point x="183" y="60"/>
      <point x="183" y="98" type="qcurve"/>
      <point x="183" y="100"/>
      <point x="207" y="109"/>
      <point x="236" y="117"/>
      <point x="238" y="118" type="qcurve"/>
      <point x="330" y="155"/>
      <point x="464" y="284"/>
      <point x="464" y="374" type="qcurve"/>
      <point x="464" y="393"/>
      <point x="435" y="419"/>
      <point x="387" y="430"/>
      <point x="346" y="435"/>
      <point x="324" y="435" type="qcurve"/>
      <point x="266" y="435"/>
      <point x="147" y="315"/>
      <point x="146" y="258" type="qcurve"/>
      <point x="146" y="242"/>
      <point x="139" y="178"/>
      <point x="139" y="161" type="qcurve"/>
      <point x="139" y="157"/>
      <point x="140" y="140"/>
      <point x="140" y="136" type="qcurve"/>
      <point x="140" y="126"/>
      <point x="72" y="122"/>
      <point x="5" y="110"/>
      <point x="5" y="92" type="qcurve"/>
      <point x="5" y="83"/>
      <point x="18" y="70"/>
    </contour>
    <contour>
      <point x="189" y="96" type="qcurve"/>
      <point x="195" y="61"/>
      <point x="258" y="22"/>
      <point x="301" y="22" type="qcurve"/>
      <point x="334" y="22"/>
      <point x="388" y="32"/>
      <point x="437" y="56"/>
      <point x="466" y="73"/>
      <point x="521" y="113"/>
      <point x="533" y="121" type="qcurve"/>
      <point x="545" y="138" type="line"/>
      <point x="553" y="149"/>
      <point x="567" y="149" type="qcurve"/>
      <point x="578" y="149"/>
      <point x="595" y="133"/>
      <point x="595" y="122" type="qcurve"/>
      <point x="595" y="114"/>
      <point x="590" y="106" type="qcurve"/>
      <point x="575" y="85" type="line"/>
      <point x="538" y="34"/>
      <point x="382" y="-33"/>
      <point x="301" y="-33" type="qcurve"/>
      <point x="241" y="-33"/>
      <point x="147" y="29"/>
      <point x="136" y="82" type="qcurve"/>
      <point x="60" y="65"/>
      <point x="27" y="65" type="qcurve"/>
      <point x="16" y="65"/>
      <point x="0" y="81"/>
      <point x="0" y="92" type="qcurve"/>
      <point x="0" y="109"/>
      <point x="46" y="127"/>
      <point x="128" y="136"/>
      <point x="135" y="138" type="qcurve"/>
      <point x="134" y="146"/>
      <point x="134" y="161" type="qcurve"/>
      <point x="134" y="272"/>
      <point x="234" y="440"/>
      <point x="324" y="440" type="qcurve"/>
      <point x="347" y="440"/>
      <point x="391" y="435"/>
      <point x="439" y="422"/>
      <point x="469" y="394"/>
      <point x="469" y="374" type="qcurve"/>
      <point x="469" y="318"/>
      <point x="418" y="223"/>
      <point x="331" y="156"/>
      <point x="240" y="111"/>
    </contour>
  </outline>
</glyph>
<glyph name="p" format="2">
  <advance width="373"/>
  <unicode hex="0070"/>
  <outline>
    <contour>
      <point x="231" y="122" type="qcurve"/>
      <point x="264" y="132"/>
      <point x="280" y="184" type="qcurve"/>
      <point x="280" y="198"/>
      <point x="276" y="254"/>
      <point x="276" y="269" type="qcurve"/>
      <point x="276" y="282" type="line"/>
      <point x="276" y="308"/>
      <point x="244" y="354"/>
      <point x="220" y="354" type="qcurve"/>
      <point x="205" y="354"/>
      <point x="193" y="339" type="qcurve"/>
      <point x="169" y="291" type="line"/>
      <point x="166" y="186" type="line"/>
      <point x="170" y="135" type="line"/>
      <point x="178" y="134"/>
    </contour>
    <contour>
      <point x="220" y="359" type="qcurve"/>
      <point x="246" y="359"/>
      <point x="281" y="311"/>
      <point x="281" y="282" type="qcurve"/>
      <point x="281" y="269" type="line"/>
      <point x="281" y="254"/>
      <point x="285" y="198"/>
      <point x="285" y="184" type="qcurve"/>
      <point x="285" y="164"/>
      <point x="248" y="117"/>
      <point x="231" y="117" type="qcurve"/>
      <point x="223" y="117"/>
      <point x="165" y="128"/>
      <point x="165" y="132" type="qcurve"/>
      <point x="161" y="186" type="line"/>
      <point x="164" y="292" type="line"/>
      <point x="164" y="293" type="line"/>
      <point x="189" y="342" type="line"/>
      <point x="197" y="359"/>
    </contour>
    <contour>
      <point x="89" y="388" type="qcurve"/>
      <point x="89" y="369"/>
      <point x="109" y="256"/>
      <point x="109" y="242" type="qcurve"/>
      <point x="109" y="235"/>
      <point x="103" y="218"/>
      <point x="97" y="206"/>
      <point x="84" y="188"/>
      <point x="77" y="179"/>
      <point x="60" y="161"/>
      <point x="59" y="159" type="qcurve"/>
      <point x="11" y="105" type="line"/>
      <point x="5" y="99"/>
      <point x="5" y="81"/>
      <point x="18" y="68"/>
      <point x="27" y="68" type="qcurve"/>
      <point x="38" y="68"/>
      <point x="44" y="75" type="qcurve"/>
      <point x="92" y="128" type="line"/>
      <point x="109" y="151"/>
      <point x="113" y="151" type="qcurve"/>
      <point x="116" y="151"/>
      <point x="116" y="149" type="qcurve"/>
      <point x="119" y="89" type="line"/>
      <point x="119" y="87"/>
      <point x="123" y="79"/>
      <point x="123" y="77" type="qcurve"/>
      <point x="131" y="-129" type="line"/>
      <point x="131" y="-130" type="line"/>
      <point x="139" y="-220" type="line"/>
      <point x="141" y="-240"/>
      <point x="161" y="-240" type="qcurve"/>
      <point x="187" y="-240"/>
      <point x="212" y="-184"/>
      <point x="212" y="-153" type="qcurve"/>
      <point x="212" y="-124"/>
      <point x="186" y="4"/>
      <point x="186" y="28" type="qcurve"/>
      <point x="186" y="39"/>
      <point x="173" y="66"/>
      <point x="173" y="72" type="qcurve"/>
      <point x="173" y="74"/>
      <point x="175" y="74" type="qcurve"/>
      <point x="180" y="74"/>
      <point x="202" y="69"/>
      <point x="209" y="69" type="qcurve"/>
      <point x="213" y="69"/>
      <point x="226" y="71"/>
      <point x="229" y="71" type="qcurve"/>
      <point x="242" y="71"/>
      <point x="282" y="58"/>
      <point x="296" y="58" type="qcurve"/>
      <point x="369" y="58"/>
      <point x="369" y="92" type="qcurve"/>
      <point x="369" y="101"/>
      <point x="355" y="114"/>
      <point x="346" y="114" type="qcurve"/>
      <point x="340" y="114"/>
      <point x="311" y="103"/>
      <point x="297" y="103" type="qcurve"/>
      <point x="294" y="103"/>
      <point x="294" y="105" type="qcurve"/>
      <point x="294" y="115"/>
      <point x="330" y="165"/>
      <point x="330" y="195"/>
      <point x="326" y="254"/>
      <point x="326" y="269" type="qcurve"/>
      <point x="326" y="282" type="line"/>
      <point x="326" y="329"/>
      <point x="266" y="404"/>
      <point x="221" y="404" type="qcurve"/>
      <point x="209" y="404"/>
      <point x="166" y="376"/>
      <point x="158" y="376" type="qcurve"/>
      <point x="155" y="376"/>
      <point x="135" y="428"/>
      <point x="118" y="428" type="qcurve"/>
      <point x="89" y="428"/>
    </contour>
    <contour>
      <point x="221" y="410" type="qcurve"/>
      <point x="267" y="409"/>
      <point x="331" y="331"/>
      <point x="331" y="282" type="qcurve"/>
      <point x="331" y="269" type="line"/>
      <point x="331" y="254"/>
      <point x="335" y="195"/>
      <point x="335" y="180" type="qcurve"/>
      <point x="335" y="150"/>
      <point x="302" y="108" type="qcurve"/>
      <point x="315" y="109"/>
      <point x="341" y="118"/>
      <point x="346" y="119" type="qcurve"/>
      <point x="357" y="119"/>
      <point x="374" y="103"/>
      <point x="374" y="92" type="qcurve"/>
      <point x="374" y="53"/>
      <point x="296" y="53" type="qcurve"/>
      <point x="274" y="53"/>
      <point x="228" y="66" type="qcurve"/>
      <point x="216" y="64"/>
      <point x="209" y="64" type="qcurve"/>
      <point x="198" y="64"/>
      <point x="180" y="68" type="qcurve"/>
      <point x="191" y="46"/>
      <point x="191" y="28" type="qcurve"/>
      <point x="191" y="4"/>
      <point x="217" y="-124"/>
      <point x="217" y="-153" type="qcurve"/>
      <point x="217" y="-185"/>
      <point x="189" y="-245"/>
      <point x="161" y="-245" type="qcurve"/>
      <point x="150" y="-245"/>
      <point x="135" y="-230"/>
      <point x="134" y="-220" type="qcurve"/>
      <point x="126" y="-130" type="line"/>
      <point x="126" y="-129" type="line"/>
      <point x="118" y="76" type="line"/>
      <point x="114" y="84"/>
      <point x="114" y="89" type="qcurve"/>
      <point x="111" y="142" type="line"/>
      <point x="106" y="136"/>
      <point x="95" y="125" type="qcurve"/>
      <point x="48" y="72" type="line"/>
      <point x="40" y="63"/>
      <point x="27" y="63" type="qcurve"/>
      <point x="16" y="63"/>
      <point x="0" y="79"/>
      <point x="0" y="101"/>
      <point x="7" y="108" type="qcurve"/>
      <point x="55" y="162" type="line"/>
      <point x="93" y="205"/>
      <point x="104" y="243" type="qcurve"/>
      <point x="103" y="252"/>
      <point x="92" y="315"/>
      <point x="84" y="372"/>
      <point x="84" y="388" type="qcurve"/>
      <point x="84" y="433"/>
      <point x="118" y="433" type="qcurve"/>
      <point x="148" y="433"/>
      <point x="159" y="384" type="qcurve"/>
      <point x="169" y="394"/>
      <point x="215" y="410"/>
    </contour>
  </outline>
</glyph>
<glyph name="uni098A" format="2">
  <advance width="500"/>
  <unicode hex="098A"/>
  <outline>
    <contour>
      <point x="239" y="866" type="qcurve"/>
      <point x="235" y="866"/>
      <point x="218" y="866"/>
      <point x="214" y="866" type="qcurve"/>
      <point x="191" y="866"/>
      <point x="110" y="830"/>
      <point x="86" y="830" type="qcurve"/>
      <point x="70" y="830"/>
      <point x="57" y="844" type="qcurve"/>
      <point x="21" y="879" type="line"/>
      <point x="6" y="894"/>
      <point x="-13" y="945"/>
      <point x="-16" y="964" type="qcurve"/>
      <point x="-16" y="965"/>
      <point x="-15" y="966" type="qcurve"/>
      <point x="20" y="1001" type="line"/>
      <point x="21" y="1002"/>
      <point x="23" y="1002"/>
      <point x="24" y="1001" type="qcurve"/>
      <point x="59" y="966" type="line"/>
      <point x="60" y="965"/>
      <point x="60" y="964" type="qcurve"/>
      <point x="64" y="935"/>
      <point x="79" y="907" type="qcurve"/>
      <point x="82" y="906"/>
      <point x="86" y="906" type="qcurve"/>
      <point x="109" y="906"/>
      <point x="190" y="942"/>
      <point x="214" y="942" type="qcurve"/>
      <point x="218" y="942"/>
      <point x="235" y="942"/>
      <point x="239" y="942" type="qcurve"/>
      <point x="270" y="942"/>
      <point x="279" y="933" type="qcurve"/>
      <point x="314" y="898" type="line"/>
      <point x="324" y="888"/>
      <point x="324" y="860" type="qcurve"/>
      <point x="324" y="848"/>
      <point x="316" y="835" type="qcurve"/>
      <point x="344" y="839"/>
      <point x="362" y="842" type="qcurve"/>
      <point x="379" y="844"/>
      <point x="392" y="844" type="qcurve"/>
      <point x="409" y="844"/>
      <point x="435" y="837"/>
      <point x="471" y="821"/>
      <point x="476" y="819" type="qcurve"/>
      <point x="503" y="819" type="line"/>
      <point x="504" y="819"/>
      <point x="505" y="818" type="qcurve"/>
      <point x="540" y="783" type="line"/>
      <point x="541" y="782"/>
      <point x="541" y="780"/>
      <point x="540" y="779" type="qcurve"/>
      <point x="505" y="744" type="line"/>
      <point x="504" y="743"/>
      <point x="503" y="743" type="qcurve"/>
      <point x="476" y="743" type="line"/>
      <point x="476" y="743"/>
      <point x="475" y="743" type="qcurve"/>
      <point x="469" y="746"/>
      <point x="434" y="762"/>
      <point x="408" y="769"/>
      <point x="392" y="769" type="qcurve"/>
      <point x="379" y="769"/>
      <point x="362" y="766" type="qcurve"/>
      <point x="347" y="764"/>
      <point x="257" y="749"/>
      <point x="238" y="746" type="qcurve"/>
      <point x="237" y="746"/>
      <point x="237" y="746" type="qcurve"/>
      <point x="235" y="746"/>
      <point x="234" y="747" type="qcurve"/>
      <point x="198" y="782" type="line"/>
      <point x="197" y="783"/>
      <point x="197" y="785" type="qcurve"/>
      <point x="197" y="787"/>
      <point x="204" y="794" type="qcurve"/>
      <point x="204" y="794"/>
      <point x="219" y="808"/>
      <point x="222" y="812"/>
      <point x="234" y="825"/>
      <point x="239" y="833"/>
      <point x="246" y="844"/>
      <point x="248" y="855"/>
      <point x="248" y="860" type="qcurve"/>
      <point x="248" y="863"/>
      <point x="248" y="866" type="qcurve"/>
      <point x="244" y="866"/>
    </contour>
    <contour>
      <point x="86" y="835" type="qcurve"/>
      <point x="109" y="835"/>
      <point x="190" y="871"/>
      <point x="214" y="871" type="qcurve"/>
      <point x="218" y="871"/>
      <point x="235" y="871"/>
      <point x="239" y="871" type="qcurve"/>
      <point x="253" y="871"/>
      <point x="253" y="869" type="qcurve"/>
      <point x="253" y="865"/>
      <point x="253" y="860" type="qcurve"/>
      <point x="253" y="853"/>
      <point x="248" y="838"/>
      <point x="243" y="829"/>
      <point x="230" y="812"/>
      <point x="225" y="808"/>
      <point x="208" y="790"/>
      <point x="207" y="790" type="qcurve"/>
      <point x="204" y="787"/>
      <point x="203" y="785" type="qcurve"/>
      <point x="237" y="751" type="line"/>
      <point x="237" y="751"/>
      <point x="238" y="751" type="qcurve"/>
      <point x="256" y="754"/>
      <point x="346" y="769"/>
      <point x="362" y="771" type="qcurve"/>
      <point x="379" y="774"/>
      <point x="392" y="774" type="qcurve"/>
      <point x="409" y="774"/>
      <point x="435" y="767"/>
      <point x="471" y="750"/>
      <point x="476" y="748" type="qcurve"/>
      <point x="502" y="748" type="line"/>
      <point x="535" y="781" type="line"/>
      <point x="502" y="814" type="line"/>
      <point x="476" y="814" type="line"/>
      <point x="476" y="814"/>
      <point x="475" y="814" type="qcurve"/>
      <point x="469" y="816"/>
      <point x="434" y="832"/>
      <point x="408" y="839"/>
      <point x="392" y="839" type="qcurve"/>
      <point x="379" y="839"/>
      <point x="362" y="837" type="qcurve"/>
      <point x="344" y="834"/>
      <point x="312" y="829" type="qcurve"/>
      <point x="312" y="829"/>
      <point x="311" y="829" type="qcurve"/>
      <point x="309" y="829"/>
      <point x="309" y="831" type="qcurve"/>
      <point x="309" y="832"/>
      <point x="309" y="833" type="qcurve"/>
      <point x="319" y="848"/>
      <point x="319" y="860" type="qcurve"/>
      <point x="319" y="886"/>
      <point x="311" y="894" type="qcurve"/>
      <point x="275" y="930" type="line"/>
      <point x="268" y="937"/>
      <point x="239" y="937" type="qcurve"/>
      <point x="235" y="937"/>
      <point x="218" y="937"/>
      <point x="214" y="937" type="qcurve"/>
      <point x="191" y="937"/>
      <point x="110" y="901"/>
      <point x="86" y="901" type="qcurve"/>
      <point x="76" y="901"/>
      <point x="75" y="903" type="qcurve"/>
      <point x="60" y="932"/>
      <point x="55" y="963" type="qcurve"/>
      <point x="22" y="996" type="line"/>
      <point x="-11" y="963" type="line"/>
      <point x="-8" y="945"/>
      <point x="11" y="896"/>
      <point x="25" y="883" type="qcurve"/>
      <point x="60" y="847" type="line"/>
      <point x="73" y="835"/>
    </contour>
    <contour>
      <point x="6" y="66" type="qcurve"/>
      <point x="1" y="66"/>
      <point x="-3" y="71" type="qcurve"/>
      <point x="-39" y="106" type="line"/>
      <point x="-49" y="117"/>
      <point x="-66" y="190"/>
      <point x="-73" y="243"/>
      <point x="-73" y="248" type="qcurve"/>
      <point x="-73" y="249"/>
      <point x="-72" y="250" type="qcurve"/>
      <point x="-37" y="285" type="line"/>
      <point x="-36" y="286"/>
      <point x="-34" y="286"/>
      <point x="-33" y="285" type="qcurve"/>
      <point x="2" y="250" type="line"/>
      <point x="3" y="249"/>
      <point x="3" y="248" type="qcurve"/>
      <point x="9" y="182"/>
      <point x="22" y="140" type="qcurve"/>
      <point x="33" y="136"/>
      <point x="60" y="122"/>
      <point x="74" y="112"/>
      <point x="75" y="111" type="qcurve"/>
      <point x="110" y="75" type="line"/>
      <point x="111" y="75"/>
      <point x="111" y="73"/>
      <point x="110" y="72" type="qcurve"/>
      <point x="75" y="36" type="line"/>
      <point x="74" y="36"/>
      <point x="72" y="36"/>
      <point x="71" y="36" type="qcurve"/>
      <point x="34" y="66"/>
    </contour>
    <contour>
      <point x="6" y="71" type="qcurve"/>
      <point x="34" y="71"/>
      <point x="73" y="42" type="qcurve"/>
      <point x="105" y="74" type="line"/>
      <point x="71" y="107" type="line"/>
      <point x="44" y="129"/>
      <point x="19" y="135" type="qcurve"/>
      <point x="18" y="135"/>
      <point x="17" y="137" type="qcurve"/>
      <point x="5" y="178"/>
      <point x="-2" y="247" type="qcurve"/>
      <point x="-35" y="280" type="line"/>
      <point x="-68" y="247" type="line"/>
      <point x="-56" y="130"/>
      <point x="-35" y="109" type="qcurve"/>
      <point x="0" y="74" type="line"/>
      <point x="3" y="71"/>
    </contour>
    <contour>
      <point x="202" y="297" type="qcurve"/>
      <point x="201" y="297"/>
      <point x="197" y="297"/>
      <point x="195" y="297"/>
      <point x="195" y="297" type="qcurve"/>
      <point x="184" y="297"/>
      <point x="181" y="300" type="qcurve"/>
      <point x="146" y="336" type="line"/>
      <point x="144" y="337"/>
      <point x="144" y="339" type="qcurve"/>
      <point x="144" y="362"/>
      <point x="168" y="454"/>
      <point x="168" y="475" type="qcurve"/>
      <point x="169" y="507"/>
      <point x="198" y="613"/>
      <point x="200" y="628" type="qcurve"/>
      <point x="216" y="723" type="line"/>
      <point x="202" y="725"/>
      <point x="183" y="725" type="qcurve"/>
      <point x="168" y="725"/>
      <point x="106" y="722"/>
      <point x="91" y="722" type="qcurve"/>
      <point x="28" y="722"/>
      <point x="-1" y="744" type="qcurve"/>
      <point x="-36" y="779" type="line"/>
      <point x="-37" y="780"/>
      <point x="-37" y="782"/>
      <point x="-36" y="783" type="qcurve"/>
      <point x="-1" y="818" type="line"/>
      <point x="0" y="819"/>
      <point x="2" y="819"/>
      <point x="3" y="818" type="qcurve"/>
      <point x="30" y="797"/>
      <point x="91" y="797" type="qcurve"/>
      <point x="106" y="797"/>
      <point x="168" y="800"/>
      <point x="183" y="800" type="qcurve"/>
      <point x="234" y="800"/>
      <point x="259" y="786" type="qcurve"/>
      <point x="260" y="785"/>
      <point x="260" y="785" type="qcurve"/>
      <point x="295" y="750" type="line"/>
      <point x="296" y="749"/>
      <point x="296" y="748" type="qcurve"/>
      <point x="276" y="628" type="line"/>
      <point x="273" y="605"/>
      <point x="244" y="505"/>
      <point x="244" y="475" type="qcurve"/>
      <point x="243" y="454"/>
      <point x="229" y="395" type="qcurve"/>
      <point x="232" y="401"/>
      <point x="251" y="435"/>
      <point x="261" y="453"/>
      <point x="279" y="477"/>
      <point x="287" y="486" type="qcurve"/>
      <point x="322" y="521" type="line"/>
      <point x="346" y="545"/>
      <point x="374" y="545" type="qcurve"/>
      <point x="384" y="545"/>
      <point x="396" y="533" type="qcurve"/>
      <point x="432" y="498" type="line"/>
      <point x="452" y="477"/>
      <point x="491" y="388"/>
      <point x="492" y="367" type="qcurve"/>
      <point x="492" y="363"/>
      <point x="492" y="359" type="qcurve"/>
      <point x="492" y="314"/>
      <point x="460" y="250" type="qcurve"/>
      <point x="436" y="204"/>
      <point x="402" y="170" type="qcurve"/>
      <point x="367" y="134" type="line"/>
      <point x="282" y="49"/>
      <point x="142" y="49" type="qcurve"/>
      <point x="122" y="49"/>
      <point x="105" y="66" type="qcurve"/>
      <point x="70" y="101" type="line"/>
      <point x="51" y="120"/>
      <point x="22" y="209"/>
      <point x="12" y="272"/>
      <point x="4" y="327" type="qcurve"/>
      <point x="-3" y="386"/>
      <point x="-8" y="398" type="qcurve"/>
      <point x="-8" y="399"/>
      <point x="-8" y="399" type="qcurve"/>
      <point x="-8" y="400"/>
      <point x="-7" y="401" type="qcurve"/>
      <point x="28" y="436" type="line"/>
      <point x="29" y="437"/>
      <point x="31" y="437"/>
      <point x="32" y="436" type="qcurve"/>
      <point x="67" y="401" type="line"/>
      <point x="68" y="400"/>
      <point x="68" y="400" type="qcurve"/>
      <point x="72" y="387"/>
      <point x="80" y="328" type="qcurve"/>
      <point x="100" y="177"/>
      <point x="128" y="127" type="qcurve"/>
      <point x="135" y="125"/>
      <point x="142" y="125" type="qcurve"/>
      <point x="265" y="125"/>
      <point x="345" y="192" type="qcurve"/>
      <point x="367" y="219"/>
      <point x="384" y="252" type="qcurve"/>
      <point x="416" y="315"/>
      <point x="416" y="359" type="qcurve"/>
      <point x="416" y="363"/>
      <point x="416" y="367" type="qcurve"/>
      <point x="415" y="381"/>
      <point x="391" y="444"/>
      <point x="376" y="469" type="qcurve"/>
      <point x="374" y="469" type="line"/>
      <point x="358" y="469"/>
      <point x="344" y="461" type="qcurve"/>
      <point x="333" y="446"/>
      <point x="315" y="412" type="qcurve"/>
      <point x="289" y="365"/>
      <point x="274" y="350" type="qcurve"/>
      <point x="238" y="314" type="line"/>
      <point x="221" y="297"/>
    </contour>
    <contour>
      <point x="91" y="727" type="qcurve"/>
      <point x="106" y="727"/>
      <point x="168" y="730"/>
      <point x="183" y="730" type="qcurve"/>
      <point x="204" y="730"/>
      <point x="219" y="728" type="qcurve"/>
      <point x="221" y="727"/>
      <point x="221" y="725" type="qcurve"/>
      <point x="205" y="628" type="line"/>
      <point x="203" y="612"/>
      <point x="174" y="507"/>
      <point x="173" y="475" type="qcurve"/>
      <point x="173" y="453"/>
      <point x="149" y="362"/>
      <point x="149" y="339" type="qcurve"/>
      <point x="184" y="304" type="line"/>
      <point x="186" y="302"/>
      <point x="196" y="302" type="qcurve"/>
      <point x="197" y="302"/>
      <point x="201" y="302"/>
      <point x="202" y="302" type="qcurve"/>
      <point x="219" y="302"/>
      <point x="235" y="318" type="qcurve"/>
      <point x="270" y="353" type="line"/>
      <point x="285" y="368"/>
      <point x="310" y="415" type="qcurve"/>
      <point x="329" y="449"/>
      <point x="340" y="464" type="qcurve"/>
      <point x="340" y="465"/>
      <point x="340" y="465" type="qcurve"/>
      <point x="356" y="474"/>
      <point x="374" y="474" type="qcurve"/>
      <point x="379" y="474"/>
      <point x="380" y="473" type="qcurve"/>
      <point x="396" y="447"/>
      <point x="420" y="382"/>
      <point x="421" y="367" type="qcurve"/>
      <point x="421" y="363"/>
      <point x="421" y="359" type="qcurve"/>
      <point x="421" y="314"/>
      <point x="389" y="250" type="qcurve"/>
      <point x="372" y="216"/>
      <point x="349" y="188" type="qcurve"/>
      <point x="348" y="188" type="line"/>
      <point x="267" y="120"/>
      <point x="142" y="120" type="qcurve"/>
      <point x="133" y="120"/>
      <point x="125" y="123" type="qcurve"/>
      <point x="124" y="123"/>
      <point x="124" y="124" type="qcurve"/>
      <point x="95" y="174"/>
      <point x="75" y="327" type="qcurve"/>
      <point x="67" y="385"/>
      <point x="63" y="398" type="qcurve"/>
      <point x="30" y="431" type="line"/>
      <point x="-2" y="398" type="line"/>
      <point x="2" y="385"/>
      <point x="9" y="328" type="qcurve"/>
      <point x="16" y="275"/>
      <point x="28" y="209"/>
      <point x="55" y="123"/>
      <point x="73" y="104" type="qcurve"/>
      <point x="109" y="69" type="line"/>
      <point x="124" y="54"/>
      <point x="142" y="54" type="qcurve"/>
      <point x="280" y="54"/>
      <point x="363" y="138" type="qcurve"/>
      <point x="399" y="173" type="line"/>
      <point x="432" y="206"/>
      <point x="455" y="252" type="qcurve"/>
      <point x="487" y="315"/>
      <point x="487" y="359" type="qcurve"/>
      <point x="487" y="363"/>
      <point x="487" y="367" type="qcurve"/>
      <point x="486" y="386"/>
      <point x="448" y="475"/>
      <point x="428" y="494" type="qcurve"/>
      <point x="393" y="529" type="line"/>
      <point x="382" y="540"/>
      <point x="374" y="540" type="qcurve"/>
      <point x="348" y="540"/>
      <point x="326" y="517" type="qcurve"/>
      <point x="290" y="482" type="line"/>
      <point x="279" y="470"/>
      <point x="257" y="436"/>
      <point x="231" y="389"/>
      <point x="225" y="378" type="qcurve"/>
      <point x="224" y="377"/>
      <point x="222" y="377" type="qcurve"/>
      <point x="220" y="377"/>
      <point x="220" y="380" type="qcurve"/>
      <point x="222" y="388"/>
      <point x="233" y="429"/>
      <point x="239" y="461"/>
      <point x="239" y="475" type="qcurve"/>
      <point x="240" y="507"/>
      <point x="268" y="612"/>
      <point x="271" y="628" type="qcurve"/>
      <point x="291" y="747" type="line"/>
      <point x="256" y="781" type="line"/>
      <point x="233" y="795"/>
      <point x="183" y="795" type="qcurve"/>
      <point x="168" y="795"/>
      <point x="106" y="792"/>
      <point x="91" y="792" type="qcurve"/>
      <point x="30" y="792"/>
      <point x="1" y="813" type="qcurve"/>
      <point x="-31" y="781" type="line"/>
      <point x="3" y="748" type="line"/>
      <point x="30" y="727"/>
    </contour>
  </outline>
</glyph>
<glyph name="uni098C" format="2">
  <advance width="442"/>
  <unicode hex="098C"/>
  <outline>
    <contour>
      <point x="209" y="186" type="qcurve"/>
      <point x="209" y="188"/>
      <point x="208" y="193"/>
      <point x="208" y="194" type="qcurve"/>
      <point x="209" y="200"/>
      <point x="209" y="206" type="qcurve"/>
      <point x="209" y="223"/>
      <point x="201" y="238" type="qcurve"/>
      <point x="175" y="254"/>
      <point x="144" y="260" type="qcurve"/>
      <point x="138" y="260"/>
      <point x="114" y="261"/>
      <point x="108" y="261" type="qcurve"/>
      <point x="98" y="261"/>
      <point x="90" y="260" type="qcurve"/>
      <point x="90" y="248"/>
      <point x="93" y="238" type="qcurve"/>
      <point x="96" y="238"/>
      <point x="100" y="238" type="qcurve"/>
      <point x="104" y="238"/>
      <point x="110" y="239" type="qcurve"/>
      <point x="116" y="245" type="line"/>
      <point x="117" y="246"/>
      <point x="119" y="246"/>
      <point x="120" y="245" type="qcurve"/>
      <point x="155" y="210" type="line"/>
      <point x="156" y="209"/>
      <point x="156" y="208" type="qcurve"/>
      <point x="156" y="204" type="line"/>
      <point x="156" y="203"/>
      <point x="155" y="202" type="qcurve"/>
      <point x="119" y="166" type="line"/>
      <point x="115" y="162"/>
      <point x="100" y="162" type="qcurve"/>
      <point x="79" y="162"/>
      <point x="67" y="175" type="qcurve"/>
      <point x="31" y="210" type="line"/>
      <point x="14" y="227"/>
      <point x="14" y="264" type="qcurve"/>
      <point x="14" y="279"/>
      <point x="23" y="288" type="qcurve"/>
      <point x="59" y="324" type="line"/>
      <point x="72" y="337"/>
      <point x="108" y="337" type="qcurve"/>
      <point x="114" y="337"/>
      <point x="138" y="336"/>
      <point x="144" y="336" type="qcurve"/>
      <point x="195" y="326"/>
      <point x="225" y="296" type="qcurve"/>
      <point x="260" y="261" type="line"/>
      <point x="285" y="237"/>
      <point x="285" y="206" type="qcurve"/>
      <point x="285" y="200"/>
      <point x="284" y="194" type="qcurve"/>
      <point x="284" y="190"/>
      <point x="284" y="186" type="qcurve"/>
      <point x="284" y="157"/>
      <point x="265" y="134" type="qcurve"/>
      <point x="292" y="141"/>
      <point x="315" y="158" type="qcurve"/>
      <point x="356" y="213"/>
      <point x="356" y="284" type="qcurve"/>
      <point x="356" y="386"/>
      <point x="262" y="486" type="qcurve"/>
      <point x="247" y="501"/>
      <point x="163" y="575"/>
      <point x="142" y="596" type="qcurve"/>
      <point x="107" y="631" type="line"/>
      <point x="30" y="708"/>
      <point x="30" y="772" type="qcurve"/>
      <point x="30" y="784" type="line"/>
      <point x="30" y="786"/>
      <point x="32" y="789" type="qcurve"/>
      <point x="68" y="824" type="line"/>
      <point x="71" y="827"/>
      <point x="87" y="835"/>
      <point x="89" y="836" type="qcurve"/>
      <point x="89" y="836"/>
      <point x="90" y="836" type="qcurve"/>
      <point x="91" y="836"/>
      <point x="92" y="835" type="qcurve"/>
      <point x="127" y="800" type="line"/>
      <point x="128" y="799"/>
      <point x="128" y="797"/>
      <point x="127" y="796" type="qcurve"/>
      <point x="106" y="775" type="line"/>
      <point x="106" y="772" type="line"/>
      <point x="106" y="716"/>
      <point x="165" y="651" type="qcurve"/>
      <point x="179" y="639"/>
      <point x="262" y="564"/>
      <point x="284" y="542" type="qcurve"/>
      <point x="319" y="507" type="line"/>
      <point x="372" y="454"/>
      <point x="432" y="347"/>
      <point x="432" y="284" type="qcurve"/>
      <point x="432" y="242"/>
      <point x="401" y="164"/>
      <point x="373" y="136" type="qcurve"/>
      <point x="337" y="100" type="line"/>
      <point x="289" y="52"/>
      <point x="222" y="52" type="qcurve"/>
      <point x="215" y="52"/>
      <point x="187" y="54"/>
      <point x="180" y="54" type="qcurve"/>
      <point x="178" y="54"/>
      <point x="176" y="56" type="qcurve"/>
      <point x="141" y="92" type="line"/>
      <point x="139" y="93"/>
      <point x="139" y="96" type="qcurve"/>
      <point x="139" y="99"/>
      <point x="142" y="102" type="qcurve"/>
      <point x="177" y="137" type="line"/>
      <point x="181" y="141"/>
      <point x="191" y="146" type="qcurve"/>
      <point x="195" y="148"/>
      <point x="199" y="150" type="qcurve"/>
      <point x="209" y="167"/>
    </contour>
    <contour>
      <point x="279" y="186" type="qcurve"/>
      <point x="279" y="188"/>
      <point x="279" y="193"/>
      <point x="279" y="194" type="qcurve"/>
      <point x="280" y="200"/>
      <point x="280" y="206" type="qcurve"/>
      <point x="280" y="235"/>
      <point x="257" y="257" type="qcurve"/>
      <point x="222" y="293" type="line"/>
      <point x="193" y="322"/>
      <point x="144" y="331" type="qcurve"/>
      <point x="138" y="331"/>
      <point x="114" y="332"/>
      <point x="108" y="332" type="qcurve"/>
      <point x="74" y="332"/>
      <point x="62" y="320" type="qcurve"/>
      <point x="27" y="285" type="line"/>
      <point x="19" y="277"/>
      <point x="19" y="264" type="qcurve"/>
      <point x="19" y="229"/>
      <point x="35" y="214" type="qcurve"/>
      <point x="70" y="178" type="line"/>
      <point x="81" y="167"/>
      <point x="100" y="167" type="qcurve"/>
      <point x="110" y="167"/>
      <point x="116" y="170" type="qcurve"/>
      <point x="151" y="205" type="line"/>
      <point x="151" y="207" type="line"/>
      <point x="118" y="240" type="line"/>
      <point x="113" y="235" type="line"/>
      <point x="112" y="234"/>
      <point x="112" y="234" type="qcurve"/>
      <point x="105" y="233"/>
      <point x="100" y="233" type="qcurve"/>
      <point x="89" y="233"/>
      <point x="88" y="235" type="qcurve"/>
      <point x="85" y="248"/>
      <point x="85" y="262" type="qcurve"/>
      <point x="85" y="265"/>
      <point x="87" y="265" type="qcurve"/>
      <point x="96" y="266"/>
      <point x="108" y="266" type="qcurve"/>
      <point x="114" y="266"/>
      <point x="138" y="265"/>
      <point x="144" y="265" type="qcurve"/>
      <point x="177" y="259"/>
      <point x="204" y="242" type="qcurve"/>
      <point x="204" y="242"/>
      <point x="205" y="241" type="qcurve"/>
      <point x="214" y="225"/>
      <point x="214" y="206" type="qcurve"/>
      <point x="214" y="200"/>
      <point x="213" y="194" type="qcurve"/>
      <point x="214" y="190"/>
      <point x="214" y="186" type="qcurve"/>
      <point x="214" y="165"/>
      <point x="203" y="147" type="qcurve"/>
      <point x="203" y="146"/>
      <point x="202" y="146" type="qcurve"/>
      <point x="198" y="143"/>
      <point x="193" y="141" type="qcurve"/>
      <point x="184" y="137"/>
      <point x="181" y="134" type="qcurve"/>
      <point x="146" y="98" type="line"/>
      <point x="144" y="97"/>
      <point x="144" y="96" type="qcurve"/>
      <point x="144" y="95"/>
      <point x="144" y="95" type="qcurve"/>
      <point x="180" y="60" type="line"/>
      <point x="180" y="59"/>
      <point x="181" y="59" type="qcurve"/>
      <point x="187" y="59"/>
      <point x="215" y="57"/>
      <point x="222" y="57" type="qcurve"/>
      <point x="287" y="57"/>
      <point x="334" y="104" type="qcurve"/>
      <point x="369" y="139" type="line"/>
      <point x="397" y="166"/>
      <point x="427" y="243"/>
      <point x="427" y="284" type="qcurve"/>
      <point x="427" y="346"/>
      <point x="368" y="451"/>
      <point x="316" y="503" type="qcurve"/>
      <point x="281" y="539" type="line"/>
      <point x="259" y="560"/>
      <point x="175" y="635"/>
      <point x="162" y="648" type="qcurve"/>
      <point x="101" y="714"/>
      <point x="101" y="772" type="qcurve"/>
      <point x="101" y="776" type="line"/>
      <point x="101" y="777"/>
      <point x="102" y="778" type="qcurve"/>
      <point x="122" y="798" type="line"/>
      <point x="90" y="830" type="line"/>
      <point x="72" y="821"/>
      <point x="71" y="821" type="qcurve"/>
      <point x="36" y="785" type="line"/>
      <point x="35" y="784"/>
      <point x="35" y="784" type="qcurve"/>
      <point x="35" y="772" type="line"/>
      <point x="35" y="710"/>
      <point x="111" y="634" type="qcurve"/>
      <point x="146" y="599" type="line"/>
      <point x="166" y="579"/>
      <point x="250" y="504"/>
      <point x="265" y="490" type="qcurve"/>
      <point x="361" y="388"/>
      <point x="361" y="284" type="qcurve"/>
      <point x="361" y="211"/>
      <point x="319" y="155" type="qcurve"/>
      <point x="319" y="155"/>
      <point x="318" y="154" type="qcurve"/>
      <point x="291" y="134"/>
      <point x="258" y="127" type="qcurve"/>
      <point x="257" y="127" type="line"/>
      <point x="255" y="127"/>
      <point x="255" y="129" type="qcurve"/>
      <point x="255" y="130"/>
      <point x="256" y="131" type="qcurve"/>
      <point x="279" y="155"/>
    </contour>
  </outline>
</glyph>
<glyph name="uni0993" format="2">
  <advance width="362"/>
  <unicode hex="0993"/>
  <outline>
    <contour>
      <point x="235" y="318" type="qcurve"/>
      <point x="235" y="320"/>
      <point x="236" y="330"/>
      <point x="236" y="332" type="qcurve"/>
      <point x="236" y="405"/>
      <point x="197" y="458" type="qcurve"/>
      <point x="191" y="462"/>
      <point x="185" y="466" type="qcurve"/>
      <point x="179" y="459" type="line"/>
      <point x="140" y="420"/>
      <point x="93" y="420" type="qcurve"/>
      <point x="89" y="420"/>
      <point x="85" y="424" type="qcurve"/>
      <point x="50" y="460" type="line"/>
      <point x="43" y="466"/>
      <point x="31" y="495"/>
      <point x="31" y="504" type="qcurve"/>
      <point x="31" y="509"/>
      <point x="35" y="513" type="qcurve"/>
      <point x="71" y="548" type="line"/>
      <point x="82" y="560"/>
      <point x="109" y="560" type="qcurve"/>
      <point x="111" y="560"/>
      <point x="113" y="560" type="qcurve"/>
      <point x="146" y="560"/>
      <point x="174" y="548" type="qcurve"/>
      <point x="187" y="577"/>
      <point x="187" y="605" type="qcurve"/>
      <point x="187" y="615"/>
      <point x="185" y="624" type="qcurve"/>
      <point x="175" y="683"/>
      <point x="156" y="715" type="qcurve"/>
      <point x="149" y="719"/>
      <point x="142" y="721" type="qcurve"/>
      <point x="108" y="687" type="line"/>
      <point x="96" y="675"/>
      <point x="75" y="674" type="qcurve"/>
      <point x="74" y="674"/>
      <point x="73" y="675" type="qcurve"/>
      <point x="38" y="710" type="line"/>
      <point x="37" y="711"/>
      <point x="37" y="713" type="qcurve"/>
      <point x="37" y="730"/>
      <point x="49" y="745" type="qcurve"/>
      <point x="36" y="746"/>
      <point x="25" y="746" type="qcurve"/>
      <point x="11" y="744"/>
      <point x="8" y="743" type="qcurve"/>
      <point x="8" y="742"/>
      <point x="7" y="742" type="qcurve"/>
      <point x="6" y="742"/>
      <point x="5" y="743" type="qcurve"/>
      <point x="-30" y="778" type="line"/>
      <point x="-31" y="779"/>
      <point x="-31" y="781"/>
      <point x="-30" y="782" type="qcurve"/>
      <point x="5" y="817" type="line"/>
      <point x="7" y="819"/>
      <point x="25" y="822" type="qcurve"/>
      <point x="87" y="822"/>
      <point x="110" y="799" type="qcurve"/>
      <point x="112" y="797" type="line"/>
      <point x="117" y="798"/>
      <point x="121" y="798" type="qcurve"/>
      <point x="124" y="798"/>
      <point x="127" y="798" type="qcurve"/>
      <point x="157" y="798"/>
      <point x="179" y="776" type="qcurve"/>
      <point x="214" y="740" type="line"/>
      <point x="247" y="708"/>
      <point x="261" y="624" type="qcurve"/>
      <point x="262" y="615"/>
      <point x="262" y="605" type="qcurve"/>
      <point x="262" y="554"/>
      <point x="227" y="509" type="qcurve"/>
      <point x="255" y="481" type="line"/>
      <point x="311" y="425"/>
      <point x="311" y="332" type="qcurve"/>
      <point x="311" y="325"/>
      <point x="311" y="318" type="qcurve"/>
      <point x="313" y="306"/>
      <point x="313" y="295" type="qcurve"/>
      <point x="313" y="223"/>
      <point x="246" y="156" type="qcurve"/>
      <point x="211" y="121" type="line"/>
      <point x="189" y="99"/>
      <point x="160" y="79" type="qcurve"/>
      <point x="131" y="57"/>
      <point x="100" y="57" type="qcurve"/>
      <point x="73" y="57"/>
      <point x="57" y="74" type="qcurve"/>
      <point x="21" y="109" type="line"/>
      <point x="3" y="127"/>
      <point x="3" y="162" type="qcurve"/>
      <point x="3" y="174" type="line"/>
      <point x="-15" y="270" type="line"/>
      <point x="-15" y="271"/>
      <point x="-14" y="272" type="qcurve"/>
      <point x="21" y="307" type="line"/>
      <point x="22" y="308"/>
      <point x="24" y="308"/>
      <point x="25" y="307" type="qcurve"/>
      <point x="60" y="272" type="line"/>
      <point x="61" y="271"/>
      <point x="61" y="270" type="qcurve"/>
      <point x="79" y="174" type="line"/>
      <point x="79" y="162" type="line"/>
      <point x="79" y="147"/>
      <point x="82" y="135" type="qcurve"/>
      <point x="91" y="133"/>
      <point x="100" y="133" type="qcurve"/>
      <point x="129" y="133"/>
      <point x="158" y="153" type="qcurve"/>
      <point x="174" y="165"/>
      <point x="189" y="178" type="qcurve"/>
      <point x="237" y="235"/>
      <point x="237" y="295" type="qcurve"/>
      <point x="237" y="306"/>
    </contour>
    <contour>
      <point x="7" y="748" type="line"/>
      <point x="10" y="749"/>
      <point x="25" y="751" type="qcurve"/>
      <point x="38" y="751"/>
      <point x="54" y="749" type="qcurve"/>
      <point x="57" y="749"/>
      <point x="57" y="746" type="qcurve"/>
      <point x="57" y="745"/>
      <point x="56" y="745" type="qcurve"/>
      <point x="42" y="731"/>
      <point x="42" y="713" type="qcurve"/>
      <point x="76" y="679" type="line"/>
      <point x="95" y="681"/>
      <point x="105" y="691" type="qcurve"/>
      <point x="139" y="725" type="line"/>
      <point x="140" y="726"/>
      <point x="141" y="726" type="qcurve"/>
      <point x="151" y="724"/>
      <point x="159" y="720" type="qcurve"/>
      <point x="160" y="719"/>
      <point x="160" y="719" type="qcurve"/>
      <point x="180" y="686"/>
      <point x="190" y="624" type="qcurve"/>
      <point x="192" y="615"/>
      <point x="192" y="605" type="qcurve"/>
      <point x="192" y="574"/>
      <point x="177" y="543" type="qcurve"/>
      <point x="177" y="542"/>
      <point x="175" y="542" type="qcurve"/>
      <point x="175" y="542"/>
      <point x="174" y="542" type="qcurve"/>
      <point x="146" y="555"/>
      <point x="113" y="555" type="qcurve"/>
      <point x="111" y="555"/>
      <point x="109" y="555" type="qcurve"/>
      <point x="84" y="555"/>
      <point x="74" y="545" type="qcurve"/>
      <point x="39" y="510" type="line"/>
      <point x="36" y="507"/>
      <point x="36" y="504" type="qcurve"/>
      <point x="36" y="497"/>
      <point x="47" y="469"/>
      <point x="53" y="463" type="qcurve"/>
      <point x="89" y="428" type="line"/>
      <point x="91" y="425"/>
      <point x="93" y="425" type="qcurve"/>
      <point x="138" y="425"/>
      <point x="175" y="463" type="qcurve"/>
      <point x="183" y="470" type="line"/>
      <point x="184" y="471"/>
      <point x="185" y="471" type="qcurve"/>
      <point x="186" y="471"/>
      <point x="186" y="471" type="qcurve"/>
      <point x="194" y="467"/>
      <point x="200" y="462" type="qcurve"/>
      <point x="201" y="462"/>
      <point x="201" y="461" type="qcurve"/>
      <point x="241" y="407"/>
      <point x="241" y="332" type="qcurve"/>
      <point x="241" y="325"/>
      <point x="240" y="318" type="qcurve"/>
      <point x="242" y="306"/>
      <point x="242" y="295" type="qcurve"/>
      <point x="242" y="233"/>
      <point x="192" y="174" type="qcurve"/>
      <point x="177" y="161"/>
      <point x="160" y="149" type="qcurve"/>
      <point x="131" y="128"/>
      <point x="100" y="128" type="qcurve"/>
      <point x="89" y="128"/>
      <point x="80" y="131" type="qcurve"/>
      <point x="79" y="131"/>
      <point x="78" y="133" type="qcurve"/>
      <point x="74" y="146"/>
      <point x="74" y="162" type="qcurve"/>
      <point x="74" y="174" type="line"/>
      <point x="56" y="269" type="line"/>
      <point x="23" y="302" type="line"/>
      <point x="-10" y="269" type="line"/>
      <point x="8" y="174" type="line"/>
      <point x="8" y="162" type="line"/>
      <point x="8" y="130"/>
      <point x="25" y="113" type="qcurve"/>
      <point x="60" y="77" type="line"/>
      <point x="75" y="62"/>
      <point x="100" y="62" type="qcurve"/>
      <point x="129" y="62"/>
      <point x="186" y="103"/>
      <point x="208" y="125" type="qcurve"/>
      <point x="243" y="160" type="line"/>
      <point x="308" y="225"/>
      <point x="308" y="295" type="qcurve"/>
      <point x="308" y="306"/>
      <point x="306" y="318" type="qcurve"/>
      <point x="306" y="320"/>
      <point x="306" y="330"/>
      <point x="306" y="332" type="qcurve"/>
      <point x="306" y="423"/>
      <point x="251" y="477" type="qcurve"/>
      <point x="222" y="507" type="line"/>
      <point x="221" y="508"/>
      <point x="221" y="510"/>
      <point x="222" y="510" type="qcurve"/>
      <point x="257" y="554"/>
      <point x="257" y="605" type="qcurve"/>
      <point x="257" y="615"/>
      <point x="256" y="624" type="qcurve"/>
      <point x="242" y="706"/>
      <point x="211" y="737" type="qcurve"/>
      <point x="175" y="772" type="line"/>
      <point x="155" y="793"/>
      <point x="127" y="793" type="qcurve"/>
      <point x="126" y="793"/>
      <point x="122" y="793"/>
      <point x="121" y="793" type="qcurve"/>
      <point x="116" y="793"/>
      <point x="112" y="792" type="qcurve"/>
      <point x="111" y="792"/>
      <point x="111" y="792" type="qcurve"/>
      <point x="110" y="792"/>
      <point x="106" y="796" type="qcurve"/>
      <point x="95" y="807"/>
      <point x="44" y="817"/>
      <point x="25" y="817" type="qcurve"/>
      <point x="11" y="815"/>
      <point x="9" y="813" type="qcurve"/>
      <point x="-25" y="780" type="line"/>
    </contour>
  </outline>
</glyph>
<glyph name="uni0999" format="2">
  <advance width="556"/>
  <unicode hex="0999"/>
  <outline>
    <contour>
      <point x="302" y="128" type="qcurve"/>
      <point x="305" y="128"/>
      <point x="316" y="129"/>
      <point x="319" y="129" type="qcurve"/>
      <point x="340" y="129"/>
      <point x="360" y="137" type="qcurve"/>
      <point x="389" y="148"/>
      <point x="413" y="166" type="qcurve"/>
      <point x="481" y="253"/>
      <point x="481" y="401" type="qcurve"/>
      <point x="481" y="410"/>
      <point x="481" y="419" type="qcurve"/>
      <point x="483" y="438"/>
      <point x="483" y="452" type="qcurve"/>
      <point x="483" y="454"/>
      <point x="483" y="457" type="qcurve"/>
      <point x="473" y="454"/>
      <point x="449" y="445" type="qcurve"/>
      <point x="394" y="424"/>
      <point x="363" y="423" type="qcurve"/>
      <point x="288" y="423"/>
      <point x="252" y="459" type="qcurve"/>
      <point x="217" y="494" type="line"/>
      <point x="178" y="533"/>
      <point x="177" y="626" type="qcurve"/>
      <point x="80" y="655"/>
      <point x="26" y="709" type="qcurve"/>
      <point x="-6" y="741" type="line"/>
      <point x="-7" y="741" type="line"/>
      <point x="-8" y="741"/>
      <point x="-9" y="742" type="qcurve"/>
      <point x="-44" y="777" type="line"/>
      <point x="-45" y="778"/>
      <point x="-45" y="780"/>
      <point x="-44" y="781" type="qcurve"/>
      <point x="-9" y="816" type="line"/>
      <point x="-8" y="817"/>
      <point x="-7" y="817" type="qcurve"/>
      <point x="-3" y="817" type="line"/>
      <point x="-2" y="817"/>
      <point x="-2" y="816" type="qcurve"/>
      <point x="2" y="814"/>
      <point x="5" y="811" type="qcurve"/>
      <point x="41" y="775" type="line"/>
      <point x="44" y="772"/>
      <point x="49" y="765" type="qcurve"/>
      <point x="102" y="723"/>
      <point x="188" y="698" type="qcurve"/>
      <point x="201" y="743"/>
      <point x="223" y="765" type="qcurve"/>
      <point x="258" y="800" type="line"/>
      <point x="278" y="820"/>
      <point x="305" y="820" type="qcurve"/>
      <point x="312" y="820"/>
      <point x="319" y="819" type="qcurve"/>
      <point x="346" y="819"/>
      <point x="359" y="806" type="qcurve"/>
      <point x="394" y="771" type="line"/>
      <point x="409" y="756"/>
      <point x="409" y="723" type="qcurve"/>
      <point x="409" y="692"/>
      <point x="386" y="669" type="qcurve"/>
      <point x="351" y="634" type="line"/>
      <point x="321" y="604"/>
      <point x="277" y="604" type="qcurve"/>
      <point x="268" y="604"/>
      <point x="253" y="607" type="qcurve"/>
      <point x="257" y="550"/>
      <point x="276" y="518" type="qcurve"/>
      <point x="308" y="499"/>
      <point x="363" y="499" type="qcurve"/>
      <point x="393" y="499"/>
      <point x="447" y="520" type="qcurve"/>
      <point x="482" y="534"/>
      <point x="495" y="534" type="qcurve"/>
      <point x="506" y="534"/>
      <point x="513" y="527" type="qcurve"/>
      <point x="549" y="492" type="line"/>
      <point x="559" y="481"/>
      <point x="559" y="452" type="qcurve"/>
      <point x="559" y="438"/>
      <point x="557" y="419" type="qcurve"/>
      <point x="557" y="410"/>
      <point x="557" y="401" type="qcurve"/>
      <point x="557" y="325"/>
      <point x="515" y="189"/>
      <point x="470" y="144" type="qcurve"/>
      <point x="435" y="109" type="line"/>
      <point x="403" y="77"/>
      <point x="362" y="61" type="qcurve"/>
      <point x="341" y="53"/>
      <point x="319" y="53" type="qcurve"/>
      <point x="310" y="52"/>
      <point x="302" y="52" type="qcurve"/>
      <point x="226" y="52"/>
      <point x="172" y="106" type="qcurve"/>
      <point x="137" y="142" type="line"/>
      <point x="115" y="164"/>
      <point x="98" y="194" type="qcurve"/>
      <point x="85" y="209"/>
      <point x="65" y="242"/>
      <point x="34" y="303"/>
      <point x="31" y="308" type="qcurve"/>
      <point x="11" y="347"/>
      <point x="-11" y="392" type="qcurve"/>
      <point x="-11" y="392"/>
      <point x="-11" y="393" type="qcurve"/>
      <point x="-11" y="394"/>
      <point x="-10" y="395" type="qcurve"/>
      <point x="25" y="430" type="line"/>
      <point x="26" y="431"/>
      <point x="28" y="431"/>
      <point x="29" y="430" type="qcurve"/>
      <point x="64" y="395" type="line"/>
      <point x="64" y="394"/>
      <point x="65" y="394" type="qcurve"/>
      <point x="86" y="349"/>
      <point x="107" y="310" type="qcurve"/>
      <point x="112" y="301"/>
      <point x="131" y="262"/>
      <point x="143" y="239"/>
      <point x="163" y="208"/>
      <point x="172" y="197" type="qcurve"/>
      <point x="173" y="196" type="line"/>
      <point x="183" y="179"/>
      <point x="194" y="165" type="qcurve"/>
      <point x="241" y="128"/>
    </contour>
    <contour>
      <point x="302" y="57" type="qcurve"/>
      <point x="305" y="57"/>
      <point x="316" y="58"/>
      <point x="319" y="58" type="qcurve"/>
      <point x="340" y="58"/>
      <point x="360" y="66" type="qcurve"/>
      <point x="400" y="81"/>
      <point x="431" y="112" type="qcurve"/>
      <point x="467" y="147" type="line"/>
      <point x="510" y="191"/>
      <point x="552" y="326"/>
      <point x="552" y="401" type="qcurve"/>
      <point x="552" y="410"/>
      <point x="552" y="419" type="qcurve"/>
      <point x="554" y="438"/>
      <point x="554" y="452" type="qcurve"/>
      <point x="554" y="479"/>
      <point x="545" y="488" type="qcurve"/>
      <point x="510" y="524" type="line"/>
      <point x="504" y="529"/>
      <point x="495" y="529" type="qcurve"/>
      <point x="483" y="529"/>
      <point x="449" y="515" type="qcurve"/>
      <point x="394" y="494"/>
      <point x="363" y="494" type="qcurve"/>
      <point x="307" y="494"/>
      <point x="273" y="514" type="qcurve"/>
      <point x="272" y="514"/>
      <point x="272" y="515" type="qcurve"/>
      <point x="251" y="549"/>
      <point x="248" y="610" type="qcurve"/>
      <point x="248" y="613"/>
      <point x="251" y="613" type="qcurve"/>
      <point x="268" y="609"/>
      <point x="277" y="609" type="qcurve"/>
      <point x="319" y="609"/>
      <point x="347" y="637" type="qcurve"/>
      <point x="382" y="673" type="line"/>
      <point x="404" y="694"/>
      <point x="404" y="723" type="qcurve"/>
      <point x="404" y="753"/>
      <point x="390" y="767" type="qcurve"/>
      <point x="355" y="802" type="line"/>
      <point x="344" y="814"/>
      <point x="319" y="814" type="qcurve"/>
      <point x="312" y="815"/>
      <point x="305" y="815" type="qcurve"/>
      <point x="281" y="815"/>
      <point x="262" y="796" type="qcurve"/>
      <point x="226" y="761" type="line"/>
      <point x="205" y="740"/>
      <point x="192" y="695" type="qcurve"/>
      <point x="191" y="693"/>
      <point x="189" y="693" type="qcurve"/>
      <point x="100" y="718"/>
      <point x="46" y="762" type="qcurve"/>
      <point x="46" y="762"/>
      <point x="45" y="762" type="qcurve"/>
      <point x="40" y="769"/>
      <point x="37" y="772" type="qcurve"/>
      <point x="2" y="807" type="line"/>
      <point x="-1" y="810"/>
      <point x="-4" y="812" type="qcurve"/>
      <point x="-6" y="812" type="line"/>
      <point x="-39" y="779" type="line"/>
      <point x="-6" y="746" type="line"/>
      <point x="-5" y="746" type="line"/>
      <point x="-4" y="746"/>
      <point x="-4" y="745" type="qcurve"/>
      <point x="29" y="713" type="line"/>
      <point x="83" y="659"/>
      <point x="180" y="630" type="qcurve"/>
      <point x="182" y="629"/>
      <point x="182" y="628" type="qcurve"/>
      <point x="183" y="536"/>
      <point x="221" y="498" type="qcurve"/>
      <point x="256" y="463" type="line"/>
      <point x="290" y="428"/>
      <point x="363" y="428" type="qcurve"/>
      <point x="393" y="429"/>
      <point x="447" y="449" type="qcurve"/>
      <point x="474" y="460"/>
      <point x="485" y="462" type="qcurve"/>
      <point x="486" y="462" type="line"/>
      <point x="488" y="462"/>
      <point x="488" y="452" type="qcurve"/>
      <point x="488" y="438"/>
      <point x="486" y="419" type="qcurve"/>
      <point x="486" y="410"/>
      <point x="486" y="401" type="qcurve"/>
      <point x="486" y="251"/>
      <point x="416" y="163" type="qcurve"/>
      <point x="391" y="143"/>
      <point x="362" y="132" type="qcurve"/>
      <point x="341" y="124"/>
      <point x="319" y="124" type="qcurve"/>
      <point x="310" y="123"/>
      <point x="302" y="123" type="qcurve"/>
      <point x="239" y="123"/>
      <point x="191" y="161" type="qcurve"/>
      <point x="191" y="161"/>
      <point x="190" y="161" type="qcurve"/>
      <point x="179" y="176"/>
      <point x="168" y="194" type="qcurve"/>
      <point x="155" y="209"/>
      <point x="135" y="242"/>
      <point x="105" y="303"/>
      <point x="102" y="308" type="qcurve"/>
      <point x="82" y="345"/>
      <point x="60" y="392" type="qcurve"/>
      <point x="27" y="425" type="line"/>
      <point x="-5" y="392" type="line"/>
      <point x="18" y="345"/>
      <point x="36" y="310" type="qcurve"/>
      <point x="41" y="301"/>
      <point x="60" y="262"/>
      <point x="72" y="239"/>
      <point x="92" y="208"/>
      <point x="102" y="197" type="qcurve"/>
      <point x="102" y="197"/>
      <point x="102" y="196" type="qcurve"/>
      <point x="119" y="167"/>
      <point x="140" y="145" type="qcurve"/>
      <point x="176" y="110" type="line"/>
      <point x="228" y="57"/>
    </contour>
    <contour>
      <point x="277" y="675" type="qcurve"/>
      <point x="266" y="675"/>
      <point x="255" y="677" type="qcurve"/>
      <point x="253" y="678"/>
      <point x="253" y="680" type="qcurve"/>
      <point x="253" y="680"/>
      <point x="254" y="680" type="qcurve"/>
      <point x="262" y="717"/>
      <point x="277" y="742" type="qcurve"/>
      <point x="277" y="743"/>
      <point x="278" y="743" type="qcurve"/>
      <point x="291" y="749"/>
      <point x="305" y="749" type="qcurve"/>
      <point x="312" y="749"/>
      <point x="319" y="748" type="qcurve"/>
      <point x="327" y="748"/>
      <point x="334" y="747" type="qcurve"/>
      <point x="336" y="747"/>
      <point x="336" y="745" type="qcurve"/>
      <point x="338" y="734"/>
      <point x="338" y="723" type="qcurve"/>
      <point x="338" y="705"/>
      <point x="330" y="689" type="qcurve"/>
      <point x="330" y="689"/>
      <point x="329" y="688" type="qcurve"/>
      <point x="305" y="675"/>
    </contour>
    <contour>
      <point x="277" y="680" type="qcurve"/>
      <point x="303" y="680"/>
      <point x="326" y="692" type="qcurve"/>
      <point x="333" y="707"/>
      <point x="333" y="723" type="qcurve"/>
      <point x="333" y="732"/>
      <point x="331" y="742" type="qcurve"/>
      <point x="326" y="743"/>
      <point x="319" y="743" type="qcurve"/>
      <point x="312" y="744"/>
      <point x="305" y="744" type="qcurve"/>
      <point x="292" y="744"/>
      <point x="281" y="739" type="qcurve"/>
      <point x="267" y="715"/>
      <point x="259" y="682" type="qcurve"/>
      <point x="268" y="680"/>
    </contour>
  </outline>
</glyph>
<glyph name="uni099B" format="2">
  <advance width="506"/>
  <unicode hex="099B"/>
  <outline>
    <contour>
      <point x="229" y="780"/>
      <point x="229" y="782"/>
      <point x="229" y="783" type="qcurve"/>
      <point x="265" y="818" type="line"/>
      <point x="265" y="819"/>
      <point x="266" y="819" type="qcurve"/>
      <point x="412" y="817"/>
      <point x="492" y="815" type="qcurve"/>
      <point x="508" y="819" type="line"/>
      <point x="509" y="819"/>
      <point x="510" y="818" type="qcurve"/>
      <point x="546" y="783" type="line"/>
      <point x="546" y="782"/>
      <point x="546" y="780"/>
      <point x="546" y="779" type="qcurve"/>
      <point x="510" y="744" type="line"/>
      <point x="510" y="743"/>
      <point x="509" y="743" type="qcurve"/>
      <point x="493" y="739" type="line"/>
      <point x="493" y="739"/>
      <point x="492" y="739" type="qcurve"/>
      <point x="411" y="741"/>
      <point x="266" y="743" type="qcurve"/>
      <point x="265" y="743"/>
      <point x="265" y="744" type="qcurve"/>
      <point x="229" y="779" type="line"/>
    </contour>
    <contour>
      <point x="492" y="810" type="qcurve"/>
      <point x="412" y="812"/>
      <point x="267" y="814" type="qcurve"/>
      <point x="235" y="781" type="line"/>
      <point x="267" y="748" type="line"/>
      <point x="411" y="746"/>
      <point x="492" y="744" type="qcurve"/>
      <point x="507" y="748" type="line"/>
      <point x="540" y="781" type="line"/>
      <point x="508" y="814" type="line"/>
      <point x="493" y="810" type="line"/>
      <point x="493" y="810"/>
    </contour>
    <contour>
      <point x="145" y="741" type="qcurve"/>
      <point x="124" y="741"/>
      <point x="70" y="737"/>
      <point x="51" y="737" type="qcurve"/>
      <point x="45" y="737"/>
      <point x="20" y="737"/>
      <point x="13" y="737" type="qcurve"/>
      <point x="6" y="737"/>
      <point x="0" y="737" type="qcurve"/>
      <point x="-1" y="737"/>
      <point x="-1" y="738" type="qcurve"/>
      <point x="-37" y="773" type="line"/>
      <point x="-38" y="774"/>
      <point x="-38" y="777" type="qcurve"/>
      <point x="-38" y="779"/>
      <point x="-37" y="781" type="qcurve"/>
      <point x="-1" y="816" type="line"/>
      <point x="0" y="817"/>
      <point x="3" y="817"/>
      <point x="7" y="813" type="qcurve"/>
      <point x="10" y="813"/>
      <point x="13" y="813" type="qcurve"/>
      <point x="20" y="813"/>
      <point x="45" y="813"/>
      <point x="51" y="813" type="qcurve"/>
      <point x="70" y="813"/>
      <point x="124" y="817"/>
      <point x="145" y="817" type="qcurve"/>
      <point x="214" y="817"/>
      <point x="228" y="804" type="qcurve"/>
      <point x="263" y="768" type="line"/>
      <point x="266" y="765"/>
      <point x="266" y="761" type="qcurve"/>
      <point x="266" y="761"/>
      <point x="266" y="760" type="qcurve"/>
      <point x="252" y="722"/>
      <point x="210" y="656" type="qcurve"/>
      <point x="206" y="647"/>
      <point x="185" y="606"/>
      <point x="173" y="581"/>
      <point x="162" y="543"/>
      <point x="162" y="526" type="qcurve"/>
      <point x="166" y="531"/>
      <point x="177" y="548"/>
      <point x="187" y="562"/>
      <point x="192" y="567" type="qcurve"/>
      <point x="227" y="602" type="line"/>
      <point x="248" y="623"/>
      <point x="298" y="623" type="qcurve"/>
      <point x="304" y="623"/>
      <point x="309" y="623" type="qcurve"/>
      <point x="345" y="623"/>
      <point x="368" y="611" type="qcurve"/>
      <point x="386" y="600"/>
      <point x="398" y="588" type="qcurve"/>
      <point x="434" y="553" type="line"/>
      <point x="464" y="522"/>
      <point x="464" y="465" type="qcurve"/>
      <point x="464" y="441"/>
      <point x="442" y="408" type="qcurve"/>
      <point x="413" y="365"/>
      <point x="381" y="333" type="qcurve"/>
      <point x="346" y="298" type="line"/>
      <point x="297" y="249"/>
      <point x="243" y="226" type="qcurve"/>
      <point x="257" y="196"/>
      <point x="262" y="188" type="qcurve"/>
      <point x="274" y="168"/>
      <point x="284" y="152" type="qcurve"/>
      <point x="307" y="139" type="line"/>
      <point x="373" y="135" type="line"/>
      <point x="374" y="135"/>
      <point x="374" y="134" type="qcurve"/>
      <point x="410" y="99" type="line"/>
      <point x="410" y="98"/>
      <point x="410" y="96"/>
      <point x="410" y="95" type="qcurve"/>
      <point x="374" y="60" type="line"/>
      <point x="373" y="59"/>
      <point x="372" y="59" type="qcurve"/>
      <point x="306" y="63" type="line"/>
      <point x="306" y="63"/>
      <point x="305" y="63" type="qcurve"/>
      <point x="261" y="89" type="line"/>
      <point x="261" y="90"/>
      <point x="261" y="90" type="qcurve"/>
      <point x="225" y="125" type="line"/>
      <point x="225" y="126" type="line"/>
      <point x="208" y="152"/>
      <point x="187" y="186" type="qcurve"/>
      <point x="182" y="194"/>
      <point x="175" y="207" type="qcurve"/>
      <point x="159" y="205"/>
      <point x="142" y="205" type="qcurve"/>
      <point x="132" y="205"/>
      <point x="127" y="210" type="qcurve"/>
      <point x="92" y="246" type="line"/>
      <point x="87" y="251"/>
      <point x="87" y="261" type="qcurve"/>
      <point x="87" y="270"/>
      <point x="94" y="277" type="qcurve"/>
      <point x="130" y="313" type="line"/>
      <point x="140" y="323"/>
      <point x="150" y="323" type="qcurve"/>
      <point x="151" y="323"/>
      <point x="151" y="323" type="qcurve"/>
      <point x="167" y="318"/>
      <point x="179" y="306" type="qcurve"/>
      <point x="198" y="287" type="line"/>
      <point x="265" y="303"/>
      <point x="324" y="355" type="qcurve"/>
      <point x="347" y="380"/>
      <point x="367" y="410" type="qcurve"/>
      <point x="389" y="442"/>
      <point x="389" y="465" type="qcurve"/>
      <point x="389" y="505"/>
      <point x="374" y="530" type="qcurve"/>
      <point x="369" y="533"/>
      <point x="365" y="536" type="qcurve"/>
      <point x="368" y="528"/>
      <point x="368" y="520" type="qcurve"/>
      <point x="368" y="519"/>
      <point x="368" y="519" type="qcurve"/>
      <point x="368" y="465"/>
      <point x="336" y="433" type="qcurve"/>
      <point x="301" y="398" type="line"/>
      <point x="262" y="359"/>
      <point x="190" y="359" type="qcurve"/>
      <point x="174" y="359"/>
      <point x="162" y="371" type="qcurve"/>
      <point x="126" y="407" type="line"/>
      <point x="123" y="410"/>
      <point x="103" y="440" type="qcurve"/>
      <point x="88" y="464"/>
      <point x="87" y="519" type="qcurve"/>
      <point x="86" y="522"/>
      <point x="86" y="525" type="qcurve"/>
      <point x="86" y="543"/>
      <point x="97" y="582"/>
      <point x="109" y="608"/>
      <point x="131" y="649"/>
      <point x="135" y="658" type="qcurve"/>
      <point x="168" y="711"/>
      <point x="182" y="740" type="qcurve"/>
      <point x="165" y="741"/>
    </contour>
    <contour>
      <point x="13" y="742" type="qcurve"/>
      <point x="20" y="742"/>
      <point x="45" y="742"/>
      <point x="51" y="742" type="qcurve"/>
      <point x="70" y="742"/>
      <point x="124" y="746"/>
      <point x="145" y="746" type="qcurve"/>
      <point x="168" y="746"/>
      <point x="186" y="745" type="qcurve"/>
      <point x="188" y="744"/>
      <point x="188" y="742" type="qcurve"/>
      <point x="188" y="742"/>
      <point x="188" y="741" type="qcurve"/>
      <point x="174" y="711"/>
      <point x="139" y="656" type="qcurve"/>
      <point x="135" y="647"/>
      <point x="114" y="606"/>
      <point x="102" y="581"/>
      <point x="91" y="542"/>
      <point x="91" y="525" type="qcurve"/>
      <point x="91" y="522"/>
      <point x="92" y="519" type="qcurve"/>
      <point x="93" y="466"/>
      <point x="107" y="442" type="qcurve"/>
      <point x="127" y="413"/>
      <point x="130" y="410" type="qcurve"/>
      <point x="165" y="375" type="line"/>
      <point x="176" y="364"/>
      <point x="190" y="364" type="qcurve"/>
      <point x="260" y="364"/>
      <point x="297" y="401" type="qcurve"/>
      <point x="333" y="437" type="line"/>
      <point x="363" y="467"/>
      <point x="363" y="519" type="qcurve"/>
      <point x="363" y="519"/>
      <point x="363" y="520" type="qcurve"/>
      <point x="363" y="532"/>
      <point x="355" y="540" type="qcurve"/>
      <point x="355" y="541"/>
      <point x="355" y="542" type="qcurve"/>
      <point x="355" y="545"/>
      <point x="357" y="545" type="qcurve"/>
      <point x="358" y="545"/>
      <point x="358" y="544" type="qcurve"/>
      <point x="367" y="541"/>
      <point x="377" y="534" type="qcurve"/>
      <point x="378" y="534"/>
      <point x="378" y="533" type="qcurve"/>
      <point x="394" y="507"/>
      <point x="394" y="465" type="qcurve"/>
      <point x="394" y="441"/>
      <point x="371" y="408" type="qcurve"/>
      <point x="350" y="377"/>
      <point x="328" y="352" type="qcurve"/>
      <point x="266" y="297"/>
      <point x="197" y="282" type="qcurve"/>
      <point x="196" y="282"/>
      <point x="195" y="283" type="qcurve"/>
      <point x="176" y="302" type="line"/>
      <point x="164" y="313"/>
      <point x="150" y="318" type="qcurve"/>
      <point x="142" y="318"/>
      <point x="133" y="309" type="qcurve"/>
      <point x="98" y="274" type="line"/>
      <point x="92" y="268"/>
      <point x="92" y="261" type="qcurve"/>
      <point x="92" y="253"/>
      <point x="95" y="249" type="qcurve"/>
      <point x="131" y="214" type="line"/>
      <point x="134" y="210"/>
      <point x="142" y="210" type="qcurve"/>
      <point x="160" y="210"/>
      <point x="177" y="212" type="qcurve"/>
      <point x="177" y="213"/>
      <point x="177" y="213" type="qcurve"/>
      <point x="178" y="213"/>
      <point x="179" y="211" type="qcurve"/>
      <point x="186" y="197"/>
      <point x="191" y="188" type="qcurve"/>
      <point x="212" y="154"/>
      <point x="229" y="129" type="qcurve"/>
      <point x="264" y="94" type="line"/>
      <point x="307" y="68" type="line"/>
      <point x="371" y="64" type="line"/>
      <point x="404" y="97" type="line"/>
      <point x="371" y="130" type="line"/>
      <point x="306" y="134" type="line"/>
      <point x="306" y="134"/>
      <point x="305" y="134" type="qcurve"/>
      <point x="281" y="148" type="line"/>
      <point x="281" y="149"/>
      <point x="281" y="149" type="qcurve"/>
      <point x="270" y="165"/>
      <point x="258" y="186" type="qcurve"/>
      <point x="254" y="192"/>
      <point x="237" y="226" type="qcurve"/>
      <point x="237" y="227"/>
      <point x="237" y="227" type="qcurve"/>
      <point x="237" y="229"/>
      <point x="238" y="230" type="qcurve"/>
      <point x="293" y="252"/>
      <point x="342" y="301" type="qcurve"/>
      <point x="378" y="337" type="line"/>
      <point x="409" y="369"/>
      <point x="438" y="410" type="qcurve"/>
      <point x="459" y="442"/>
      <point x="459" y="465" type="qcurve"/>
      <point x="459" y="466"/>
      <point x="459" y="468"/>
      <point x="459" y="469" type="qcurve"/>
      <point x="459" y="520"/>
      <point x="430" y="549" type="qcurve"/>
      <point x="395" y="585" type="line"/>
      <point x="383" y="596"/>
      <point x="365" y="606" type="qcurve"/>
      <point x="344" y="618"/>
      <point x="309" y="618" type="qcurve"/>
      <point x="307" y="618"/>
      <point x="300" y="618"/>
      <point x="298" y="618" type="qcurve"/>
      <point x="250" y="618"/>
      <point x="231" y="598" type="qcurve"/>
      <point x="195" y="563" type="line"/>
      <point x="189" y="557"/>
      <point x="178" y="540" type="qcurve"/>
      <point x="168" y="526"/>
      <point x="162" y="518" type="qcurve"/>
      <point x="161" y="517"/>
      <point x="160" y="517" type="qcurve"/>
      <point x="157" y="517"/>
      <point x="157" y="525" type="qcurve"/>
      <point x="157" y="543"/>
      <point x="168" y="582"/>
      <point x="180" y="608"/>
      <point x="201" y="649"/>
      <point x="205" y="658" type="qcurve"/>
      <point x="206" y="658"/>
      <point x="206" y="658" type="qcurve"/>
      <point x="247" y="724"/>
      <point x="261" y="761" type="qcurve"/>
      <point x="261" y="763"/>
      <point x="260" y="765" type="qcurve"/>
      <point x="224" y="800" type="line"/>
      <point x="212" y="812"/>
      <point x="145" y="812" type="qcurve"/>
      <point x="124" y="812"/>
      <point x="70" y="808"/>
      <point x="51" y="808" type="qcurve"/>
      <point x="45" y="808"/>
      <point x="20" y="808"/>
      <point x="13" y="808" type="qcurve"/>
      <point x="10" y="808"/>
      <point x="6" y="808" type="qcurve"/>
      <point x="5" y="808"/>
      <point x="2" y="812" type="qcurve"/>
      <point x="-33" y="777" type="line"/>
      <point x="-33" y="777"/>
      <point x="-33" y="776" type="qcurve"/>
      <point x="1" y="742" type="line"/>
      <point x="7" y="742"/>
    </contour>
    <contour>
      <point x="293" y="518" type="qcurve"/>
      <point x="295" y="519"/>
      <point x="295" y="519" type="qcurve"/>
      <point x="298" y="519"/>
      <point x="298" y="516" type="qcurve"/>
      <point x="297" y="480"/>
      <point x="281" y="453" type="qcurve"/>
      <point x="281" y="453"/>
      <point x="280" y="452" type="qcurve"/>
      <point x="244" y="430"/>
      <point x="190" y="430" type="qcurve"/>
      <point x="180" y="430"/>
      <point x="179" y="432" type="qcurve"/>
      <point x="176" y="437"/>
      <point x="174" y="440" type="qcurve"/>
      <point x="160" y="461"/>
      <point x="158" y="499" type="qcurve"/>
      <point x="158" y="502"/>
      <point x="161" y="502" type="qcurve"/>
      <point x="162" y="502"/>
      <point x="164" y="499" type="qcurve"/>
      <point x="182" y="481"/>
      <point x="186" y="477" type="qcurve"/>
      <point x="206" y="496" type="line"/>
      <point x="241" y="527"/>
      <point x="268" y="527" type="qcurve"/>
      <point x="282" y="527"/>
    </contour>
    <contour>
      <point x="268" y="522" type="qcurve"/>
      <point x="243" y="522"/>
      <point x="209" y="493" type="qcurve"/>
      <point x="188" y="472" type="line"/>
      <point x="188" y="471"/>
      <point x="187" y="471" type="qcurve"/>
      <point x="185" y="471"/>
      <point x="185" y="472" type="qcurve"/>
      <point x="184" y="472"/>
      <point x="177" y="480" type="qcurve"/>
      <point x="172" y="484"/>
      <point x="164" y="493" type="qcurve"/>
      <point x="166" y="461"/>
      <point x="178" y="442" type="qcurve"/>
      <point x="180" y="440"/>
      <point x="182" y="436" type="qcurve"/>
      <point x="185" y="435"/>
      <point x="190" y="435" type="qcurve"/>
      <point x="242" y="435"/>
      <point x="277" y="456" type="qcurve"/>
      <point x="291" y="480"/>
      <point x="292" y="513" type="qcurve"/>
      <point x="291" y="513"/>
      <point x="291" y="514" type="qcurve"/>
      <point x="281" y="522"/>
    </contour>
  </outline>
</glyph>
<glyph name="uni099C" format="2">
  <advance width="520"/>
  <unicode hex="099C"/>
  <outline>
    <contour>
      <point x="358" y="776"/>
      <point x="358" y="778"/>
      <point x="359" y="779" type="qcurve"/>
      <point x="394" y="814" type="line"/>
      <point x="395" y="815"/>
      <point x="396" y="815" type="qcurve"/>
      <point x="522" y="817"/>
      <point x="522" y="817" type="qcurve"/>
      <point x="523" y="817"/>
      <point x="524" y="816" type="qcurve"/>
      <point x="559" y="781" type="line"/>
      <point x="560" y="780"/>
      <point x="560" y="778"/>
      <point x="559" y="777" type="qcurve"/>
      <point x="524" y="742" type="line"/>
      <point x="523" y="741"/>
      <point x="522" y="741" type="qcurve"/>
      <point x="396" y="739"/>
      <point x="396" y="739" type="qcurve"/>
      <point x="395" y="739"/>
      <point x="394" y="740" type="qcurve"/>
      <point x="359" y="775" type="line"/>
    </contour>
    <contour>
      <point x="364" y="777" type="line"/>
      <point x="397" y="744" type="line"/>
      <point x="521" y="746" type="line"/>
      <point x="554" y="779" type="line"/>
      <point x="521" y="812" type="line"/>
      <point x="397" y="810" type="line"/>
    </contour>
    <contour>
      <point x="291" y="66" type="qcurve"/>
      <point x="281" y="66"/>
      <point x="241" y="65"/>
      <point x="231" y="65" type="qcurve"/>
      <point x="153" y="65"/>
      <point x="127" y="91" type="qcurve"/>
      <point x="123" y="95" type="line"/>
      <point x="121" y="96"/>
      <point x="105" y="98"/>
      <point x="102" y="101" type="qcurve"/>
      <point x="67" y="136" type="line"/>
      <point x="64" y="139"/>
      <point x="64" y="144" type="qcurve"/>
      <point x="64" y="156"/>
      <point x="76" y="169" type="qcurve"/>
      <point x="112" y="204" type="line"/>
      <point x="134" y="226"/>
      <point x="209" y="258" type="qcurve"/>
      <point x="225" y="264"/>
      <point x="229" y="267" type="qcurve"/>
      <point x="288" y="296"/>
      <point x="320" y="321" type="qcurve"/>
      <point x="332" y="337"/>
      <point x="339" y="355" type="qcurve"/>
      <point x="335" y="349"/>
      <point x="329" y="343" type="qcurve"/>
      <point x="294" y="308" type="line"/>
      <point x="266" y="280"/>
      <point x="168" y="251"/>
      <point x="128" y="251" type="qcurve"/>
      <point x="73" y="251"/>
      <point x="34" y="289" type="qcurve"/>
      <point x="-1" y="325" type="line"/>
      <point x="-34" y="358"/>
      <point x="-34" y="403" type="qcurve"/>
      <point x="-34" y="475"/>
      <point x="17" y="526" type="qcurve"/>
      <point x="53" y="562" type="line"/>
      <point x="92" y="601"/>
      <point x="144" y="606" type="qcurve"/>
      <point x="164" y="629"/>
      <point x="225" y="690" type="qcurve"/>
      <point x="247" y="712"/>
      <point x="272" y="735" type="qcurve"/>
      <point x="245" y="733"/>
      <point x="214" y="733" type="qcurve"/>
      <point x="173" y="733"/>
      <point x="24" y="742"/>
      <point x="0" y="743" type="qcurve"/>
      <point x="-1" y="743"/>
      <point x="-2" y="744" type="qcurve"/>
      <point x="-37" y="779" type="line"/>
      <point x="-38" y="780"/>
      <point x="-38" y="782"/>
      <point x="-37" y="783" type="qcurve"/>
      <point x="-2" y="818" type="line"/>
      <point x="-1" y="819"/>
      <point x="0" y="819" type="qcurve"/>
      <point x="25" y="818"/>
      <point x="173" y="809"/>
      <point x="214" y="809" type="qcurve"/>
      <point x="258" y="809"/>
      <point x="296" y="813" type="qcurve"/>
      <point x="314" y="815"/>
      <point x="345" y="815" type="qcurve"/>
      <point x="348" y="815"/>
      <point x="362" y="815"/>
      <point x="366" y="815" type="qcurve"/>
      <point x="367" y="815"/>
      <point x="368" y="814" type="qcurve"/>
      <point x="403" y="779" type="line"/>
      <point x="404" y="778"/>
      <point x="404" y="776"/>
      <point x="403" y="775" type="qcurve"/>
      <point x="368" y="740" type="line"/>
      <point x="368" y="740"/>
      <point x="363" y="736"/>
      <point x="355" y="730"/>
      <point x="344" y="721"/>
      <point x="330" y="709"/>
      <point x="315" y="695"/>
      <point x="296" y="679"/>
      <point x="278" y="663"/>
      <point x="257" y="643"/>
      <point x="247" y="634" type="qcurve"/>
      <point x="231" y="617"/>
      <point x="218" y="602" type="qcurve"/>
      <point x="299" y="589"/>
      <point x="344" y="544" type="qcurve"/>
      <point x="379" y="509" type="line"/>
      <point x="424" y="464"/>
      <point x="424" y="395" type="qcurve"/>
      <point x="421" y="343"/>
      <point x="378" y="300" type="qcurve"/>
      <point x="343" y="264" type="line"/>
      <point x="307" y="229"/>
      <point x="231" y="191" type="qcurve"/>
      <point x="227" y="189"/>
      <point x="211" y="183" type="qcurve"/>
      <point x="169" y="165"/>
      <point x="148" y="153" type="qcurve"/>
      <point x="175" y="141"/>
      <point x="231" y="141" type="qcurve"/>
      <point x="241" y="141"/>
      <point x="281" y="142"/>
      <point x="291" y="142" type="qcurve"/>
      <point x="305" y="142"/>
      <point x="314" y="141" type="qcurve"/>
      <point x="315" y="141"/>
      <point x="316" y="140" type="qcurve"/>
      <point x="351" y="105" type="line"/>
      <point x="352" y="104"/>
      <point x="352" y="102"/>
      <point x="351" y="101" type="qcurve"/>
      <point x="316" y="66" type="line"/>
      <point x="315" y="65"/>
      <point x="314" y="65" type="qcurve"/>
      <point x="305" y="66"/>
    </contour>
    <contour>
      <point x="365" y="810" type="line"/>
      <point x="362" y="810"/>
      <point x="348" y="810"/>
      <point x="345" y="810" type="qcurve"/>
      <point x="314" y="810"/>
      <point x="296" y="808" type="qcurve"/>
      <point x="259" y="804"/>
      <point x="214" y="804" type="qcurve"/>
      <point x="173" y="804"/>
      <point x="25" y="813"/>
      <point x="1" y="814" type="qcurve"/>
      <point x="-32" y="781" type="line"/>
      <point x="1" y="748" type="line"/>
      <point x="25" y="747"/>
      <point x="173" y="738"/>
      <point x="214" y="738" type="qcurve"/>
      <point x="249" y="738"/>
      <point x="279" y="740" type="qcurve"/>
      <point x="282" y="740"/>
      <point x="282" y="738" type="qcurve"/>
      <point x="282" y="737"/>
      <point x="281" y="736" type="qcurve"/>
      <point x="254" y="712"/>
      <point x="217" y="675" type="qcurve"/>
      <point x="169" y="627"/>
      <point x="147" y="602" type="qcurve"/>
      <point x="147" y="601"/>
      <point x="146" y="601" type="qcurve"/>
      <point x="95" y="597"/>
      <point x="56" y="558" type="qcurve"/>
      <point x="21" y="523" type="line"/>
      <point x="-29" y="473"/>
      <point x="-29" y="403" type="qcurve"/>
      <point x="-29" y="360"/>
      <point x="3" y="328" type="qcurve"/>
      <point x="38" y="293" type="line"/>
      <point x="75" y="256"/>
      <point x="128" y="256" type="qcurve"/>
      <point x="167" y="256"/>
      <point x="264" y="285"/>
      <point x="290" y="311" type="qcurve"/>
      <point x="326" y="347" type="line"/>
      <point x="342" y="363"/>
      <point x="347" y="382" type="qcurve"/>
      <point x="347" y="383"/>
      <point x="349" y="383" type="qcurve"/>
      <point x="352" y="383"/>
      <point x="352" y="381" type="qcurve"/>
      <point x="346" y="347"/>
      <point x="323" y="318" type="qcurve"/>
      <point x="291" y="292"/>
      <point x="231" y="262" type="qcurve"/>
      <point x="227" y="260"/>
      <point x="211" y="253" type="qcurve"/>
      <point x="136" y="222"/>
      <point x="115" y="201" type="qcurve"/>
      <point x="80" y="165" type="line"/>
      <point x="69" y="154"/>
      <point x="69" y="145" type="qcurve"/>
      <point x="69" y="145"/>
      <point x="69" y="144" type="qcurve"/>
      <point x="69" y="141"/>
      <point x="70" y="140" type="qcurve"/>
      <point x="106" y="104" type="line"/>
      <point x="108" y="102"/>
      <point x="124" y="101"/>
      <point x="126" y="99" type="qcurve"/>
      <point x="126" y="99"/>
      <point x="130" y="95" type="qcurve"/>
      <point x="155" y="70"/>
      <point x="231" y="70" type="qcurve"/>
      <point x="241" y="70"/>
      <point x="281" y="71"/>
      <point x="291" y="71" type="qcurve"/>
      <point x="304" y="71"/>
      <point x="313" y="70" type="qcurve"/>
      <point x="346" y="103" type="line"/>
      <point x="313" y="136" type="line"/>
      <point x="304" y="137"/>
      <point x="291" y="137" type="qcurve"/>
      <point x="281" y="137"/>
      <point x="241" y="136"/>
      <point x="231" y="136" type="qcurve"/>
      <point x="170" y="136"/>
      <point x="142" y="151" type="qcurve"/>
      <point x="141" y="152"/>
      <point x="141" y="154"/>
      <point x="142" y="155" type="qcurve"/>
      <point x="164" y="168"/>
      <point x="209" y="187" type="qcurve"/>
      <point x="225" y="194"/>
      <point x="229" y="196" type="qcurve"/>
      <point x="304" y="233"/>
      <point x="339" y="268" type="qcurve"/>
      <point x="374" y="303" type="line"/>
      <point x="416" y="345"/>
      <point x="419" y="395" type="qcurve"/>
      <point x="419" y="462"/>
      <point x="376" y="505" type="qcurve"/>
      <point x="340" y="540" type="line"/>
      <point x="295" y="586"/>
      <point x="213" y="598" type="qcurve"/>
      <point x="211" y="598"/>
      <point x="211" y="600" type="qcurve"/>
      <point x="211" y="601"/>
      <point x="211" y="602" type="qcurve"/>
      <point x="226" y="619"/>
      <point x="243" y="637" type="qcurve"/>
      <point x="304" y="695"/>
      <point x="364" y="744" type="qcurve"/>
      <point x="398" y="777" type="line"/>
    </contour>
    <contour>
      <point x="286" y="508" type="qcurve"/>
      <point x="286" y="511"/>
      <point x="288" y="511" type="qcurve"/>
      <point x="289" y="511"/>
      <point x="289" y="510" type="qcurve"/>
      <point x="308" y="502"/>
      <point x="324" y="490" type="qcurve"/>
      <point x="325" y="490"/>
      <point x="325" y="489" type="qcurve"/>
      <point x="344" y="463"/>
      <point x="350" y="430" type="qcurve"/>
      <point x="350" y="427"/>
      <point x="347" y="427" type="qcurve"/>
      <point x="346" y="427"/>
      <point x="345" y="429" type="qcurve"/>
      <point x="338" y="454"/>
      <point x="320" y="472" type="qcurve"/>
      <point x="286" y="506" type="line"/>
      <point x="286" y="507"/>
    </contour>
    <contour>
      <point x="301" y="499" type="qcurve"/>
      <point x="324" y="476" type="line"/>
      <point x="329" y="471"/>
      <point x="334" y="464" type="qcurve"/>
      <point x="328" y="476"/>
      <point x="321" y="486" type="qcurve"/>
      <point x="311" y="493"/>
    </contour>
    <contour>
      <point x="206" y="472" type="qcurve"/>
      <point x="241" y="472"/>
      <point x="268" y="456" type="qcurve"/>
      <point x="268" y="456"/>
      <point x="269" y="455" type="qcurve"/>
      <point x="283" y="431"/>
      <point x="283" y="399" type="qcurve"/>
      <point x="283" y="380"/>
      <point x="273" y="362" type="qcurve"/>
      <point x="247" y="345"/>
      <point x="142" y="322"/>
      <point x="128" y="322" type="qcurve"/>
      <point x="127" y="322"/>
      <point x="127" y="322" type="qcurve"/>
      <point x="87" y="322"/>
      <point x="55" y="344" type="qcurve"/>
      <point x="54" y="344"/>
      <point x="54" y="344" type="qcurve"/>
      <point x="37" y="371"/>
      <point x="37" y="403" type="qcurve"/>
      <point x="37" y="460"/>
      <point x="71" y="507" type="qcurve"/>
      <point x="72" y="507"/>
      <point x="72" y="508" type="qcurve"/>
      <point x="78" y="512"/>
      <point x="85" y="516" type="qcurve"/>
      <point x="86" y="517"/>
      <point x="87" y="517" type="qcurve"/>
      <point x="89" y="517"/>
      <point x="89" y="514" type="qcurve"/>
      <point x="89" y="514"/>
      <point x="89" y="513" type="qcurve"/>
      <point x="87" y="507"/>
      <point x="85" y="494" type="qcurve"/>
      <point x="118" y="461" type="line"/>
      <point x="120" y="463"/>
      <point x="121" y="464" type="qcurve"/>
      <point x="139" y="472"/>
    </contour>
    <contour>
      <point x="206" y="467" type="qcurve"/>
      <point x="141" y="467"/>
      <point x="123" y="459" type="qcurve"/>
      <point x="120" y="456" type="line"/>
      <point x="119" y="455"/>
      <point x="117" y="455"/>
      <point x="116" y="456" type="qcurve"/>
      <point x="81" y="491" type="line"/>
      <point x="80" y="492"/>
      <point x="80" y="493" type="qcurve"/>
      <point x="80" y="498"/>
      <point x="83" y="509" type="qcurve"/>
      <point x="79" y="506"/>
      <point x="75" y="504" type="qcurve"/>
      <point x="42" y="458"/>
      <point x="42" y="403" type="qcurve"/>
      <point x="42" y="373"/>
      <point x="58" y="348" type="qcurve"/>
      <point x="90" y="327"/>
      <point x="128" y="327" type="qcurve"/>
      <point x="129" y="327"/>
      <point x="129" y="327" type="qcurve"/>
      <point x="150" y="328"/>
      <point x="246" y="350"/>
      <point x="269" y="365" type="qcurve"/>
      <point x="278" y="381"/>
      <point x="278" y="399" type="qcurve"/>
      <point x="278" y="429"/>
      <point x="265" y="452" type="qcurve"/>
      <point x="239" y="467"/>
    </contour>
  </outline>
</glyph>
<glyph name="uni09A0" format="2">
  <advance width="484"/>
  <unicode hex="09A0"/>
  <outline>
    <contour>
      <point x="227" y="814" type="line"/>
      <point x="251" y="814"/>
      <point x="352" y="832"/>
      <point x="378" y="832" type="qcurve"/>
      <point x="392" y="832"/>
      <point x="423" y="827"/>
      <point x="459" y="819"/>
      <point x="468" y="818" type="qcurve"/>
      <point x="486" y="816" type="line"/>
      <point x="487" y="816"/>
      <point x="488" y="815" type="qcurve"/>
      <point x="523" y="780" type="line"/>
      <point x="524" y="779"/>
      <point x="524" y="777"/>
      <point x="523" y="776" type="qcurve"/>
      <point x="488" y="741" type="line"/>
      <point x="487" y="740"/>
      <point x="486" y="740" type="qcurve"/>
      <point x="468" y="742"/>
      <point x="468" y="742" type="qcurve"/>
      <point x="458" y="744"/>
      <point x="422" y="751"/>
      <point x="392" y="756"/>
      <point x="378" y="756" type="qcurve"/>
      <point x="352" y="756"/>
      <point x="250" y="738"/>
      <point x="224" y="738" type="qcurve"/>
      <point x="223" y="738"/>
      <point x="223" y="738"/>
      <point x="221" y="738"/>
      <point x="221" y="738" type="qcurve"/>
      <point x="218" y="738"/>
      <point x="217" y="739" type="qcurve"/>
      <point x="182" y="775" type="line"/>
      <point x="180" y="776"/>
      <point x="180" y="778" type="qcurve"/>
      <point x="180" y="781"/>
      <point x="183" y="784" type="qcurve"/>
      <point x="218" y="819" type="line"/>
      <point x="219" y="820"/>
      <point x="221" y="820"/>
      <point x="222" y="819" type="qcurve"/>
    </contour>
    <contour>
      <point x="378" y="827" type="qcurve"/>
      <point x="352" y="827"/>
      <point x="251" y="809"/>
      <point x="226" y="809" type="qcurve"/>
      <point x="225" y="809"/>
      <point x="224" y="810" type="qcurve"/>
      <point x="220" y="814" type="line"/>
      <point x="187" y="780" type="line"/>
      <point x="186" y="779"/>
      <point x="185" y="778" type="qcurve"/>
      <point x="220" y="743" type="line"/>
      <point x="220" y="743"/>
      <point x="221" y="743"/>
      <point x="223" y="743"/>
      <point x="224" y="743"/>
      <point x="224" y="743" type="qcurve"/>
      <point x="250" y="743"/>
      <point x="352" y="761"/>
      <point x="378" y="761" type="qcurve"/>
      <point x="392" y="761"/>
      <point x="423" y="756"/>
      <point x="459" y="749"/>
      <point x="468" y="747" type="qcurve"/>
      <point x="485" y="745" type="line"/>
      <point x="518" y="778" type="line"/>
      <point x="485" y="811" type="line"/>
      <point x="468" y="813"/>
      <point x="468" y="813" type="qcurve"/>
      <point x="458" y="814"/>
      <point x="422" y="822"/>
      <point x="392" y="827"/>
    </contour>
    <contour>
      <point x="308" y="58" type="qcurve"/>
      <point x="293" y="58"/>
      <point x="231" y="67"/>
      <point x="216" y="67" type="qcurve"/>
      <point x="214" y="67"/>
      <point x="204" y="66"/>
      <point x="201" y="66" type="qcurve"/>
      <point x="173" y="66"/>
      <point x="153" y="85" type="qcurve"/>
      <point x="118" y="120" type="line"/>
      <point x="106" y="133"/>
      <point x="104" y="150" type="qcurve"/>
      <point x="104" y="186"/>
      <point x="130" y="267"/>
      <point x="156" y="316"/>
      <point x="182" y="360" type="qcurve"/>
      <point x="208" y="405"/>
      <point x="235" y="457"/>
      <point x="262" y="541"/>
      <point x="262" y="580" type="qcurve"/>
      <point x="262" y="628"/>
      <point x="231" y="666" type="qcurve"/>
      <point x="183" y="706"/>
      <point x="115" y="724" type="qcurve"/>
      <point x="96" y="731"/>
      <point x="16" y="736"/>
      <point x="-1" y="740" type="qcurve"/>
      <point x="-1" y="740"/>
      <point x="-2" y="741" type="qcurve"/>
      <point x="-37" y="776" type="line"/>
      <point x="-38" y="777"/>
      <point x="-38" y="779"/>
      <point x="-37" y="780" type="qcurve"/>
      <point x="-2" y="815" type="line"/>
      <point x="-1" y="816"/>
      <point x="0" y="816" type="qcurve"/>
      <point x="0" y="816"/>
      <point x="1" y="816" type="qcurve"/>
      <point x="7" y="814"/>
      <point x="15" y="813" type="qcurve"/>
      <point x="4" y="830"/>
      <point x="4" y="850" type="qcurve"/>
      <point x="4" y="865"/>
      <point x="15" y="875" type="qcurve"/>
      <point x="50" y="911" type="line"/>
      <point x="59" y="920"/>
      <point x="86" y="930" type="qcurve"/>
      <point x="103" y="937"/>
      <point x="108" y="941" type="qcurve"/>
      <point x="109" y="942"/>
      <point x="110" y="942" type="qcurve"/>
      <point x="164" y="944"/>
      <point x="164" y="944" type="qcurve"/>
      <point x="165" y="944"/>
      <point x="166" y="943" type="qcurve"/>
      <point x="201" y="908" type="line"/>
      <point x="202" y="907"/>
      <point x="202" y="905"/>
      <point x="201" y="904" type="qcurve"/>
      <point x="166" y="869" type="line"/>
      <point x="165" y="868"/>
      <point x="164" y="868" type="qcurve"/>
      <point x="111" y="866" type="line"/>
      <point x="106" y="863"/>
      <point x="80" y="852" type="qcurve"/>
      <point x="80" y="851"/>
      <point x="80" y="850" type="qcurve"/>
      <point x="80" y="835"/>
      <point x="86" y="823" type="qcurve"/>
      <point x="101" y="814"/>
      <point x="145" y="799"/>
      <point x="175" y="793"/>
      <point x="235" y="782"/>
      <point x="246" y="780" type="qcurve"/>
      <point x="303" y="768"/>
      <point x="343" y="729" type="qcurve"/>
      <point x="378" y="693" type="line"/>
      <point x="403" y="669"/>
      <point x="439" y="601"/>
      <point x="463" y="508"/>
      <point x="474" y="448"/>
      <point x="482" y="393" type="qcurve"/>
      <point x="493" y="321"/>
      <point x="500" y="291" type="qcurve"/>
      <point x="500" y="290"/>
      <point x="500" y="290" type="qcurve"/>
      <point x="500" y="245"/>
      <point x="471" y="162"/>
      <point x="443" y="134" type="qcurve"/>
      <point x="408" y="99" type="line"/>
      <point x="367" y="58"/>
    </contour>
    <contour>
      <point x="201" y="71" type="qcurve"/>
      <point x="204" y="71"/>
      <point x="214" y="72"/>
      <point x="216" y="72" type="qcurve"/>
      <point x="231" y="72"/>
      <point x="293" y="63"/>
      <point x="308" y="63" type="qcurve"/>
      <point x="365" y="63"/>
      <point x="404" y="102" type="qcurve"/>
      <point x="440" y="137" type="line"/>
      <point x="467" y="164"/>
      <point x="495" y="246"/>
      <point x="495" y="290" type="qcurve"/>
      <point x="488" y="320"/>
      <point x="477" y="392" type="qcurve"/>
      <point x="469" y="447"/>
      <point x="458" y="508"/>
      <point x="435" y="599"/>
      <point x="399" y="666"/>
      <point x="375" y="690" type="qcurve"/>
      <point x="340" y="725" type="line"/>
      <point x="301" y="764"/>
      <point x="246" y="775" type="qcurve"/>
      <point x="234" y="777"/>
      <point x="174" y="788"/>
      <point x="143" y="795"/>
      <point x="99" y="809"/>
      <point x="83" y="819" type="qcurve"/>
      <point x="82" y="819"/>
      <point x="82" y="820" type="qcurve"/>
      <point x="75" y="834"/>
      <point x="75" y="850" type="qcurve"/>
      <point x="75" y="855"/>
      <point x="77" y="856" type="qcurve"/>
      <point x="105" y="868"/>
      <point x="108" y="871" type="qcurve"/>
      <point x="109" y="871"/>
      <point x="110" y="871" type="qcurve"/>
      <point x="163" y="873" type="line"/>
      <point x="196" y="906" type="line"/>
      <point x="163" y="939" type="line"/>
      <point x="111" y="937" type="line"/>
      <point x="105" y="933"/>
      <point x="88" y="926" type="qcurve"/>
      <point x="62" y="915"/>
      <point x="54" y="907" type="qcurve"/>
      <point x="18" y="872" type="line"/>
      <point x="9" y="863"/>
      <point x="9" y="850" type="qcurve"/>
      <point x="9" y="828"/>
      <point x="22" y="811" type="qcurve"/>
      <point x="22" y="811"/>
      <point x="22" y="810" type="qcurve"/>
      <point x="22" y="807"/>
      <point x="20" y="807" type="qcurve"/>
      <point x="9" y="809"/>
      <point x="1" y="811" type="qcurve"/>
      <point x="-32" y="778" type="line"/>
      <point x="1" y="745" type="line"/>
      <point x="18" y="741"/>
      <point x="97" y="736"/>
      <point x="117" y="729" type="qcurve"/>
      <point x="186" y="711"/>
      <point x="234" y="669" type="qcurve"/>
      <point x="235" y="669" type="line"/>
      <point x="267" y="630"/>
      <point x="267" y="580" type="qcurve"/>
      <point x="267" y="541"/>
      <point x="240" y="455"/>
      <point x="213" y="403"/>
      <point x="186" y="357" type="qcurve"/>
      <point x="160" y="314"/>
      <point x="135" y="264"/>
      <point x="109" y="186"/>
      <point x="109" y="150" type="qcurve"/>
      <point x="110" y="135"/>
      <point x="122" y="124" type="qcurve"/>
      <point x="157" y="89" type="line"/>
      <point x="175" y="71"/>
    </contour>
    <contour>
      <point x="308" y="129" type="qcurve"/>
      <point x="293" y="129"/>
      <point x="231" y="137"/>
      <point x="216" y="137" type="qcurve"/>
      <point x="214" y="137"/>
      <point x="204" y="137"/>
      <point x="201" y="137" type="qcurve"/>
      <point x="189" y="137"/>
      <point x="178" y="141" type="qcurve"/>
      <point x="175" y="142"/>
      <point x="175" y="150" type="qcurve"/>
      <point x="175" y="186"/>
      <point x="201" y="267"/>
      <point x="227" y="316"/>
      <point x="253" y="360" type="qcurve"/>
      <point x="279" y="405"/>
      <point x="306" y="457"/>
      <point x="333" y="541"/>
      <point x="333" y="580" type="qcurve"/>
      <point x="333" y="612"/>
      <point x="310" y="659"/>
      <point x="286" y="682" type="qcurve"/>
      <point x="271" y="698" type="line"/>
      <point x="270" y="698"/>
      <point x="270" y="699" type="qcurve"/>
      <point x="270" y="702"/>
      <point x="273" y="702" type="qcurve"/>
      <point x="301" y="692"/>
      <point x="324" y="674" type="qcurve"/>
      <point x="325" y="674"/>
      <point x="325" y="674" type="qcurve"/>
      <point x="351" y="641"/>
      <point x="388" y="534"/>
      <point x="402" y="460"/>
      <point x="411" y="393" type="qcurve"/>
      <point x="422" y="321"/>
      <point x="429" y="291" type="qcurve"/>
      <point x="429" y="290"/>
      <point x="429" y="290" type="qcurve"/>
      <point x="429" y="210"/>
      <point x="389" y="154" type="qcurve"/>
      <point x="389" y="153"/>
      <point x="389" y="153" type="qcurve"/>
      <point x="354" y="129"/>
    </contour>
    <contour>
      <point x="201" y="142" type="qcurve"/>
      <point x="204" y="142"/>
      <point x="214" y="142"/>
      <point x="216" y="142" type="qcurve"/>
      <point x="231" y="142"/>
      <point x="293" y="134"/>
      <point x="308" y="134" type="qcurve"/>
      <point x="352" y="134"/>
      <point x="385" y="157" type="qcurve"/>
      <point x="424" y="211"/>
      <point x="424" y="290" type="qcurve"/>
      <point x="417" y="320"/>
      <point x="407" y="392" type="qcurve"/>
      <point x="397" y="459"/>
      <point x="383" y="533"/>
      <point x="346" y="638"/>
      <point x="321" y="671" type="qcurve"/>
      <point x="303" y="684"/>
      <point x="283" y="693" type="qcurve"/>
      <point x="290" y="686" type="line"/>
      <point x="338" y="638"/>
      <point x="338" y="580" type="qcurve"/>
      <point x="338" y="541"/>
      <point x="311" y="455"/>
      <point x="284" y="403"/>
      <point x="257" y="357" type="qcurve"/>
      <point x="231" y="314"/>
      <point x="205" y="264"/>
      <point x="180" y="186"/>
      <point x="180" y="150" type="qcurve"/>
      <point x="180" y="148"/>
      <point x="181" y="145" type="qcurve"/>
      <point x="191" y="142"/>
    </contour>
  </outline>
</glyph>
<glyph name="uni09A4" format="2">
  <advance width="612"/>
  <unicode hex="09A4"/>
  <outline>
    <contour>
      <point x="102" y="740" type="qcurve"/>
      <point x="0" y="740" type="line"/>
      <point x="-1" y="740"/>
      <point x="-2" y="741" type="qcurve"/>
      <point x="-37" y="776" type="line"/>
      <point x="-38" y="777"/>
      <point x="-38" y="779"/>
      <point x="-37" y="780" type="qcurve"/>
      <point x="-2" y="815" type="line"/>
      <point x="-1" y="816"/>
      <point x="0" y="816" type="qcurve"/>
      <point x="102" y="816" type="line"/>
      <point x="168" y="816"/>
      <point x="210" y="796" type="qcurve"/>
      <point x="226" y="804"/>
      <point x="242" y="804" type="qcurve"/>
      <point x="252" y="804" type="line"/>
      <point x="301" y="822"/>
      <point x="404" y="824" type="qcurve"/>
      <point x="424" y="824"/>
      <point x="443" y="824" type="qcurve"/>
      <point x="533" y="824"/>
      <point x="614" y="812" type="qcurve"/>
      <point x="615" y="812"/>
      <point x="616" y="811" type="qcurve"/>
      <point x="651" y="776" type="line"/>
      <point x="652" y="775"/>
      <point x="652" y="773"/>
      <point x="651" y="772" type="qcurve"/>
      <point x="616" y="737" type="line"/>
      <point x="615" y="736"/>
      <point x="614" y="736" type="qcurve"/>
      <point x="533" y="749"/>
      <point x="443" y="749" type="qcurve"/>
      <point x="424" y="749"/>
      <point x="404" y="748" type="qcurve"/>
      <point x="323" y="746"/>
      <point x="282" y="737" type="qcurve"/>
      <point x="294" y="725"/>
      <point x="301" y="715" type="qcurve"/>
      <point x="307" y="717"/>
      <point x="326" y="722"/>
      <point x="339" y="724"/>
      <point x="340" y="724" type="qcurve"/>
      <point x="360" y="724"/>
      <point x="395" y="710"/>
      <point x="412" y="697"/>
      <point x="427" y="683" type="qcurve"/>
      <point x="450" y="661"/>
      <point x="465" y="652" type="qcurve"/>
      <point x="466" y="651"/>
      <point x="466" y="651" type="qcurve"/>
      <point x="501" y="616" type="line"/>
      <point x="501" y="615"/>
      <point x="502" y="615" type="qcurve"/>
      <point x="530" y="553" type="line"/>
      <point x="530" y="553"/>
      <point x="550" y="481" type="qcurve"/>
      <point x="550" y="480"/>
      <point x="550" y="480" type="qcurve"/>
      <point x="560" y="392" type="line"/>
      <point x="558" y="280" type="line"/>
      <point x="558" y="280"/>
      <point x="558" y="279" type="qcurve"/>
      <point x="557" y="275"/>
      <point x="549" y="247"/>
      <point x="545" y="236"/>
      <point x="537" y="216"/>
      <point x="528" y="201"/>
      <point x="521" y="194" type="qcurve"/>
      <point x="520" y="193"/>
      <point x="484" y="146"/>
      <point x="474" y="136" type="qcurve"/>
      <point x="439" y="101" type="line"/>
      <point x="419" y="81"/>
      <point x="399" y="74" type="qcurve"/>
      <point x="362" y="62"/>
      <point x="308" y="62" type="qcurve"/>
      <point x="254" y="62"/>
      <point x="152" y="91"/>
      <point x="122" y="121" type="qcurve"/>
      <point x="87" y="156" type="line"/>
      <point x="54" y="189"/>
      <point x="54" y="236" type="qcurve"/>
      <point x="40" y="386" type="line"/>
      <point x="40" y="422"/>
      <point x="60" y="547"/>
      <point x="111" y="701"/>
      <point x="145" y="738" type="qcurve"/>
      <point x="125" y="740"/>
    </contour>
    <contour>
      <point x="443" y="819" type="qcurve"/>
      <point x="424" y="819"/>
      <point x="404" y="819" type="qcurve"/>
      <point x="302" y="817"/>
      <point x="253" y="799" type="qcurve"/>
      <point x="252" y="799"/>
      <point x="252" y="799" type="qcurve"/>
      <point x="242" y="799" type="line"/>
      <point x="226" y="799"/>
      <point x="212" y="791" type="qcurve"/>
      <point x="211" y="791"/>
      <point x="210" y="791"/>
      <point x="209" y="791" type="qcurve"/>
      <point x="168" y="811"/>
      <point x="102" y="811" type="qcurve"/>
      <point x="1" y="811" type="line"/>
      <point x="-32" y="778" type="line"/>
      <point x="1" y="745" type="line"/>
      <point x="102" y="745" type="line"/>
      <point x="128" y="745"/>
      <point x="150" y="742" type="qcurve"/>
      <point x="153" y="742"/>
      <point x="153" y="740" type="qcurve"/>
      <point x="153" y="739"/>
      <point x="152" y="738" type="qcurve"/>
      <point x="101" y="687"/>
      <point x="40" y="443"/>
      <point x="45" y="386" type="qcurve"/>
      <point x="59" y="236" type="line"/>
      <point x="59" y="191"/>
      <point x="91" y="160" type="qcurve"/>
      <point x="126" y="125" type="line"/>
      <point x="155" y="96"/>
      <point x="255" y="67"/>
      <point x="308" y="67" type="qcurve"/>
      <point x="361" y="67"/>
      <point x="397" y="79" type="qcurve"/>
      <point x="416" y="85"/>
      <point x="435" y="104" type="qcurve"/>
      <point x="470" y="139" type="line"/>
      <point x="478" y="147"/>
      <point x="494" y="167"/>
      <point x="512" y="191"/>
      <point x="517" y="198" type="qcurve"/>
      <point x="517" y="198"/>
      <point x="518" y="198" type="qcurve"/>
      <point x="523" y="204"/>
      <point x="533" y="218"/>
      <point x="540" y="239"/>
      <point x="544" y="249"/>
      <point x="552" y="277"/>
      <point x="553" y="280" type="qcurve"/>
      <point x="555" y="392" type="line"/>
      <point x="545" y="480" type="line"/>
      <point x="525" y="551" type="line"/>
      <point x="497" y="613" type="line"/>
      <point x="462" y="647" type="line"/>
      <point x="447" y="657"/>
      <point x="423" y="679" type="qcurve"/>
      <point x="409" y="693"/>
      <point x="392" y="706"/>
      <point x="359" y="719"/>
      <point x="340" y="719" type="qcurve"/>
      <point x="322" y="719"/>
      <point x="301" y="709" type="qcurve"/>
      <point x="300" y="709"/>
      <point x="300" y="709" type="qcurve"/>
      <point x="299" y="709"/>
      <point x="298" y="710" type="qcurve"/>
      <point x="291" y="722"/>
      <point x="276" y="737" type="qcurve"/>
      <point x="275" y="737"/>
      <point x="275" y="738" type="qcurve"/>
      <point x="275" y="740"/>
      <point x="277" y="741" type="qcurve"/>
      <point x="319" y="751"/>
      <point x="404" y="753" type="qcurve"/>
      <point x="424" y="754"/>
      <point x="443" y="754" type="qcurve"/>
      <point x="533" y="754"/>
      <point x="613" y="741" type="qcurve"/>
      <point x="646" y="774" type="line"/>
      <point x="613" y="807" type="line"/>
      <point x="533" y="819"/>
    </contour>
    <contour>
      <point x="317" y="632" type="qcurve"/>
      <point x="317" y="635"/>
      <point x="316" y="645"/>
      <point x="316" y="648" type="qcurve"/>
      <point x="316" y="649"/>
      <point x="318" y="650" type="qcurve"/>
      <point x="330" y="653"/>
      <point x="340" y="653" type="qcurve"/>
      <point x="352" y="653"/>
      <point x="374" y="648"/>
      <point x="388" y="643"/>
      <point x="407" y="630"/>
      <point x="414" y="624"/>
      <point x="434" y="605"/>
      <point x="436" y="603" type="qcurve"/>
      <point x="437" y="603"/>
      <point x="437" y="602" type="qcurve"/>
      <point x="459" y="553" type="line"/>
      <point x="479" y="481" type="line"/>
      <point x="479" y="480"/>
      <point x="479" y="480" type="qcurve"/>
      <point x="489" y="392" type="line"/>
      <point x="487" y="280" type="line"/>
      <point x="487" y="280"/>
      <point x="487" y="279" type="qcurve"/>
      <point x="486" y="275"/>
      <point x="478" y="247"/>
      <point x="474" y="236"/>
      <point x="467" y="216"/>
      <point x="457" y="201"/>
      <point x="451" y="194" type="qcurve"/>
      <point x="445" y="188"/>
      <point x="426" y="162"/>
      <point x="422" y="157" type="qcurve"/>
      <point x="421" y="157"/>
      <point x="421" y="157" type="qcurve"/>
      <point x="410" y="149"/>
      <point x="399" y="145" type="qcurve"/>
      <point x="362" y="133"/>
      <point x="308" y="133" type="qcurve"/>
      <point x="205" y="133"/>
      <point x="143" y="175" type="qcurve"/>
      <point x="142" y="175"/>
      <point x="142" y="176" type="qcurve"/>
      <point x="129" y="197"/>
      <point x="125" y="236" type="qcurve"/>
      <point x="111" y="386" type="line"/>
      <point x="111" y="445"/>
      <point x="159" y="661"/>
      <point x="201" y="720" type="qcurve"/>
      <point x="201" y="721"/>
      <point x="202" y="721" type="qcurve"/>
      <point x="206" y="723"/>
      <point x="209" y="725" type="qcurve"/>
      <point x="210" y="725"/>
      <point x="211" y="725"/>
      <point x="212" y="725" type="qcurve"/>
      <point x="221" y="721"/>
      <point x="229" y="715" type="qcurve"/>
      <point x="230" y="715"/>
      <point x="230" y="715" type="qcurve"/>
      <point x="242" y="695"/>
      <point x="248" y="670" type="qcurve"/>
      <point x="248" y="669"/>
      <point x="247" y="668" type="qcurve"/>
      <point x="223" y="644" type="line"/>
      <point x="197" y="618"/>
      <point x="197" y="592" type="qcurve"/>
      <point x="197" y="589"/>
      <point x="201" y="567"/>
      <point x="202" y="566" type="qcurve"/>
      <point x="237" y="531" type="line"/>
      <point x="248" y="531"/>
      <point x="258" y="542" type="qcurve"/>
      <point x="293" y="577" type="line"/>
      <point x="303" y="587"/>
      <point x="317" y="620"/>
    </contour>
    <contour>
      <point x="192" y="592" type="qcurve"/>
      <point x="192" y="620"/>
      <point x="220" y="648" type="qcurve"/>
      <point x="242" y="671" type="line"/>
      <point x="237" y="694"/>
      <point x="226" y="712" type="qcurve"/>
      <point x="219" y="716"/>
      <point x="211" y="720" type="qcurve"/>
      <point x="208" y="719"/>
      <point x="205" y="717" type="qcurve"/>
      <point x="162" y="657"/>
      <point x="111" y="436"/>
      <point x="116" y="386" type="qcurve"/>
      <point x="130" y="236" type="line"/>
      <point x="133" y="199"/>
      <point x="146" y="179" type="qcurve"/>
      <point x="207" y="138"/>
      <point x="308" y="138" type="qcurve"/>
      <point x="361" y="138"/>
      <point x="397" y="150" type="qcurve"/>
      <point x="408" y="153"/>
      <point x="418" y="160" type="qcurve"/>
      <point x="422" y="166"/>
      <point x="441" y="191"/>
      <point x="447" y="198" type="qcurve"/>
      <point x="453" y="204"/>
      <point x="462" y="218"/>
      <point x="470" y="239"/>
      <point x="473" y="249"/>
      <point x="481" y="277"/>
      <point x="482" y="280" type="qcurve"/>
      <point x="484" y="392" type="line"/>
      <point x="474" y="480" type="line"/>
      <point x="454" y="551" type="line"/>
      <point x="432" y="600" type="line"/>
      <point x="431" y="601"/>
      <point x="411" y="620"/>
      <point x="404" y="625"/>
      <point x="386" y="639"/>
      <point x="372" y="643"/>
      <point x="351" y="648"/>
      <point x="340" y="648" type="qcurve"/>
      <point x="331" y="648"/>
      <point x="321" y="646" type="qcurve"/>
      <point x="322" y="639"/>
      <point x="322" y="632" type="qcurve"/>
      <point x="322" y="619"/>
      <point x="308" y="585"/>
      <point x="297" y="574" type="qcurve"/>
      <point x="261" y="538" type="line"/>
      <point x="249" y="526"/>
      <point x="236" y="526" type="qcurve"/>
      <point x="235" y="526"/>
      <point x="233" y="527" type="qcurve"/>
      <point x="198" y="563" type="line"/>
      <point x="192" y="569"/>
    </contour>
  </outline>
</glyph>
<glyph name="uni09AA" format="2">
  <advance width="551"/>
  <unicode hex="09AA"/>
  <outline>
    <contour>
      <point x="19" y="630"/>
      <point x="17" y="630"/>
      <point x="16" y="631" type="qcurve"/>
      <point x="-19" y="666" type="line"/>
      <point x="-20" y="667"/>
      <point x="-20" y="668" type="qcurve"/>
      <point x="-20" y="668"/>
      <point x="-20" y="669" type="qcurve"/>
      <point x="-19" y="671"/>
      <point x="-19" y="681" type="qcurve"/>
      <point x="-19" y="698"/>
      <point x="-15" y="703" type="qcurve"/>
      <point x="-9" y="713"/>
      <point x="29" y="767" type="qcurve"/>
      <point x="29" y="767"/>
      <point x="29" y="768" type="qcurve"/>
      <point x="64" y="803" type="line"/>
      <point x="65" y="804"/>
      <point x="66" y="804" type="qcurve"/>
      <point x="194" y="828" type="line"/>
      <point x="194" y="828"/>
      <point x="310" y="828" type="qcurve"/>
      <point x="310" y="828"/>
      <point x="311" y="828" type="qcurve"/>
      <point x="368" y="813"/>
      <point x="385" y="808" type="qcurve"/>
      <point x="423" y="796" type="line"/>
      <point x="423" y="796"/>
      <point x="424" y="795" type="qcurve"/>
      <point x="459" y="760" type="line"/>
      <point x="460" y="759"/>
      <point x="460" y="757"/>
      <point x="459" y="756" type="qcurve"/>
      <point x="424" y="721" type="line"/>
      <point x="423" y="720"/>
      <point x="422" y="720" type="qcurve"/>
      <point x="422" y="720"/>
      <point x="421" y="720" type="qcurve"/>
      <point x="396" y="729"/>
      <point x="317" y="750" type="qcurve"/>
      <point x="310" y="752" type="line"/>
      <point x="194" y="752" type="line"/>
      <point x="80" y="731" type="line"/>
      <point x="68" y="713"/>
      <point x="59" y="701" type="qcurve"/>
      <point x="57" y="697"/>
      <point x="57" y="680" type="qcurve"/>
      <point x="57" y="668"/>
      <point x="55" y="666" type="qcurve"/>
      <point x="20" y="631" type="line"/>
    </contour>
    <contour>
      <point x="194" y="757" type="line"/>
      <point x="310" y="757" type="line"/>
      <point x="310" y="757"/>
      <point x="311" y="757" type="qcurve"/>
      <point x="318" y="755"/>
      <point x="336" y="750" type="qcurve"/>
      <point x="394" y="735"/>
      <point x="421" y="726" type="qcurve"/>
      <point x="454" y="758" type="line"/>
      <point x="421" y="791" type="line"/>
      <point x="383" y="803" type="line"/>
      <point x="366" y="808"/>
      <point x="310" y="823" type="qcurve"/>
      <point x="194" y="823" type="line"/>
      <point x="67" y="799" type="line"/>
      <point x="33" y="764" type="line"/>
      <point x="-5" y="710"/>
      <point x="-11" y="701" type="qcurve"/>
      <point x="-13" y="698"/>
      <point x="-14" y="672"/>
      <point x="-15" y="669" type="qcurve"/>
      <point x="18" y="636" type="line"/>
      <point x="51" y="669" type="line"/>
      <point x="52" y="673"/>
      <point x="52" y="699"/>
      <point x="55" y="703" type="qcurve"/>
      <point x="64" y="716"/>
      <point x="77" y="734" type="qcurve"/>
      <point x="77" y="735"/>
      <point x="78" y="735" type="qcurve"/>
    </contour>
    <contour>
      <point x="485" y="370" type="qcurve"/>
      <point x="485" y="362"/>
      <point x="484" y="329"/>
      <point x="484" y="321" type="qcurve"/>
      <point x="484" y="318"/>
      <point x="485" y="302" type="qcurve"/>
      <point x="488" y="240"/>
      <point x="488" y="203" type="qcurve"/>
      <point x="488" y="115"/>
      <point x="472" y="99" type="qcurve"/>
      <point x="437" y="64" type="line"/>
      <point x="433" y="60"/>
      <point x="428" y="60" type="qcurve"/>
      <point x="426" y="60"/>
      <point x="424" y="62" type="qcurve"/>
      <point x="389" y="97" type="line"/>
      <point x="382" y="104"/>
      <point x="358" y="159"/>
      <point x="358" y="166" type="qcurve"/>
      <point x="358" y="168"/>
      <point x="359" y="178"/>
      <point x="359" y="181" type="qcurve"/>
      <point x="359" y="195"/>
      <point x="354" y="249"/>
      <point x="354" y="260" type="qcurve"/>
      <point x="354" y="276"/>
      <point x="354" y="292" type="qcurve"/>
      <point x="354" y="412"/>
      <point x="376" y="534" type="qcurve"/>
      <point x="384" y="579"/>
      <point x="398" y="617" type="qcurve"/>
      <point x="396" y="645"/>
      <point x="396" y="658" type="qcurve"/>
      <point x="394" y="709"/>
      <point x="389" y="736" type="qcurve"/>
      <point x="382" y="734"/>
      <point x="363" y="722"/>
      <point x="353" y="715"/>
      <point x="329" y="695"/>
      <point x="328" y="694" type="qcurve"/>
      <point x="321" y="686"/>
      <point x="313" y="675" type="qcurve"/>
      <point x="290" y="640"/>
      <point x="266" y="575" type="qcurve"/>
      <point x="261" y="563"/>
      <point x="258" y="553" type="qcurve"/>
      <point x="253" y="533"/>
      <point x="251" y="531" type="qcurve"/>
      <point x="215" y="495" type="line"/>
      <point x="215" y="494"/>
      <point x="212" y="494"/>
      <point x="212" y="495" type="qcurve"/>
      <point x="176" y="531" type="line"/>
      <point x="176" y="531"/>
      <point x="176" y="532" type="qcurve"/>
      <point x="176" y="536"/>
      <point x="182" y="555" type="qcurve"/>
      <point x="190" y="585"/>
      <point x="190" y="602" type="qcurve"/>
      <point x="190" y="639"/>
      <point x="164" y="673" type="qcurve"/>
      <point x="97" y="726"/>
      <point x="1" y="743" type="qcurve"/>
      <point x="0" y="743"/>
      <point x="-1" y="744" type="qcurve"/>
      <point x="-36" y="779" type="line"/>
      <point x="-37" y="780"/>
      <point x="-37" y="782"/>
      <point x="-36" y="783" type="qcurve"/>
      <point x="-1" y="818" type="line"/>
      <point x="0" y="819"/>
      <point x="1" y="819" type="qcurve"/>
      <point x="52" y="810"/>
      <point x="154" y="763"/>
      <point x="187" y="730" type="qcurve"/>
      <point x="222" y="694" type="line"/>
      <point x="231" y="686"/>
      <point x="238" y="677" type="qcurve"/>
      <point x="254" y="701"/>
      <point x="271" y="718" type="qcurve"/>
      <point x="306" y="753" type="line"/>
      <point x="311" y="758"/>
      <point x="334" y="777" type="qcurve"/>
      <point x="379" y="814"/>
      <point x="402" y="814" type="qcurve"/>
      <point x="409" y="814"/>
      <point x="414" y="808" type="qcurve"/>
      <point x="450" y="773" type="line"/>
      <point x="459" y="764"/>
      <point x="464" y="739" type="qcurve"/>
      <point x="532" y="807" type="line"/>
      <point x="533" y="807"/>
      <point x="533" y="808" type="qcurve"/>
      <point x="567" y="822" type="line"/>
      <point x="568" y="822"/>
      <point x="568" y="822" type="qcurve"/>
      <point x="569" y="822"/>
      <point x="570" y="821" type="qcurve"/>
      <point x="605" y="786" type="line"/>
      <point x="606" y="785"/>
      <point x="606" y="783"/>
      <point x="605" y="782" type="qcurve"/>
      <point x="570" y="747" type="line"/>
      <point x="569" y="747"/>
      <point x="569" y="746" type="qcurve"/>
      <point x="535" y="733" type="line"/>
      <point x="521" y="718" type="line"/>
      <point x="489" y="661"/>
      <point x="474" y="616" type="qcurve"/>
      <point x="485" y="407"/>
    </contour>
    <contour>
      <point x="364" y="181" type="qcurve"/>
      <point x="364" y="178"/>
      <point x="363" y="168"/>
      <point x="363" y="166" type="qcurve"/>
      <point x="363" y="161"/>
      <point x="387" y="106"/>
      <point x="392" y="101" type="qcurve"/>
      <point x="428" y="66" type="line"/>
      <point x="428" y="65"/>
      <point x="428" y="65" type="qcurve"/>
      <point x="431" y="65"/>
      <point x="433" y="68" type="qcurve"/>
      <point x="469" y="103" type="line"/>
      <point x="483" y="118"/>
      <point x="483" y="203" type="qcurve"/>
      <point x="483" y="240"/>
      <point x="480" y="302" type="qcurve"/>
      <point x="479" y="318"/>
      <point x="479" y="321" type="qcurve"/>
      <point x="479" y="329"/>
      <point x="480" y="362"/>
      <point x="480" y="370" type="qcurve"/>
      <point x="480" y="406"/>
      <point x="468" y="616" type="qcurve"/>
      <point x="468" y="616"/>
      <point x="468" y="617" type="qcurve"/>
      <point x="468" y="617"/>
      <point x="469" y="617" type="qcurve"/>
      <point x="485" y="663"/>
      <point x="517" y="721" type="qcurve"/>
      <point x="517" y="722"/>
      <point x="518" y="722" type="qcurve"/>
      <point x="532" y="736" type="line"/>
      <point x="533" y="737"/>
      <point x="533" y="737" type="qcurve"/>
      <point x="567" y="751" type="line"/>
      <point x="600" y="784" type="line"/>
      <point x="567" y="816" type="line"/>
      <point x="535" y="803" type="line"/>
      <point x="464" y="732" type="line"/>
      <point x="464" y="732"/>
      <point x="463" y="732" type="qcurve"/>
      <point x="461" y="732"/>
      <point x="460" y="734" type="qcurve"/>
      <point x="455" y="761"/>
      <point x="446" y="769" type="qcurve"/>
      <point x="411" y="805" type="line"/>
      <point x="407" y="809"/>
      <point x="397" y="809"/>
      <point x="387" y="806"/>
      <point x="375" y="800"/>
      <point x="366" y="795"/>
      <point x="352" y="785"/>
      <point x="346" y="780"/>
      <point x="331" y="768"/>
      <point x="330" y="767" type="qcurve"/>
      <point x="316" y="756"/>
      <point x="310" y="749" type="qcurve"/>
      <point x="274" y="714" type="line"/>
      <point x="257" y="697"/>
      <point x="240" y="671" type="qcurve"/>
      <point x="239" y="670"/>
      <point x="237" y="670"/>
      <point x="236" y="671" type="qcurve"/>
      <point x="229" y="681"/>
      <point x="219" y="691" type="qcurve"/>
      <point x="183" y="726" type="line"/>
      <point x="151" y="759"/>
      <point x="51" y="805"/>
      <point x="2" y="814" type="qcurve"/>
      <point x="-31" y="781" type="line"/>
      <point x="2" y="748" type="line"/>
      <point x="99" y="730"/>
      <point x="167" y="677" type="qcurve"/>
      <point x="167" y="676"/>
      <point x="168" y="676" type="qcurve"/>
      <point x="195" y="641"/>
      <point x="195" y="602" type="qcurve"/>
      <point x="195" y="585"/>
      <point x="187" y="554" type="qcurve"/>
      <point x="187" y="553"/>
      <point x="187" y="553" type="qcurve"/>
      <point x="182" y="539"/>
      <point x="181" y="533" type="qcurve"/>
      <point x="214" y="500" type="line"/>
      <point x="247" y="534" type="line"/>
      <point x="249" y="539"/>
      <point x="253" y="555" type="qcurve"/>
      <point x="256" y="565"/>
      <point x="261" y="577" type="qcurve"/>
      <point x="286" y="642"/>
      <point x="309" y="677" type="qcurve"/>
      <point x="317" y="689"/>
      <point x="324" y="698" type="qcurve"/>
      <point x="326" y="700"/>
      <point x="351" y="720"/>
      <point x="362" y="728"/>
      <point x="382" y="739"/>
      <point x="390" y="742" type="qcurve"/>
      <point x="391" y="742"/>
      <point x="391" y="742" type="qcurve"/>
      <point x="393" y="742"/>
      <point x="393" y="740" type="qcurve"/>
      <point x="399" y="712"/>
      <point x="401" y="658" type="qcurve"/>
      <point x="401" y="645"/>
      <point x="403" y="617" type="qcurve"/>
      <point x="403" y="616"/>
      <point x="403" y="616" type="qcurve"/>
      <point x="389" y="578"/>
      <point x="381" y="534" type="qcurve"/>
      <point x="359" y="411"/>
      <point x="359" y="292" type="qcurve"/>
      <point x="359" y="258"/>
      <point x="361" y="225" type="qcurve"/>
      <point x="364" y="195"/>
    </contour>
  </outline>
</glyph>
<glyph name="uni09BC" format="2">
  <advance width="2"/>
  <unicode hex="09BC"/>
  <outline>
    <contour>
      <point x="-302" y="-112" type="qcurve"/>
      <point x="-300" y="-112"/>
      <point x="-294" y="-105"/>
      <point x="-285" y="-92"/>
      <point x="-284" y="-91" type="qcurve"/>
      <point x="-283" y="-89"/>
      <point x="-282" y="-88" type="qcurve"/>
      <point x="-282" y="-88"/>
      <point x="-283" y="-87"/>
      <point x="-283" y="-87" type="qcurve"/>
      <point x="-319" y="-61"/>
      <point x="-334" y="-61" type="qcurve"/>
      <point x="-344" y="-61"/>
      <point x="-344" y="-77" type="qcurve"/>
      <point x="-344" y="-86"/>
      <point x="-341" y="-100" type="qcurve"/>
      <point x="-340" y="-101"/>
      <point x="-340" y="-101" type="qcurve"/>
      <point x="-341" y="-101" type="line"/>
      <point x="-338" y="-101"/>
      <point x="-335" y="-101" type="qcurve"/>
      <point x="-323" y="-101"/>
      <point x="-304" y="-112" type="qcurve"/>
      <point x="-303" y="-112"/>
    </contour>
    <contour>
      <point x="-283" y="-97" type="qcurve"/>
      <point x="-283" y="-98"/>
      <point x="-288" y="-106"/>
      <point x="-290" y="-109"/>
      <point x="-295" y="-115"/>
      <point x="-300" y="-117"/>
      <point x="-302" y="-117" type="qcurve"/>
      <point x="-304" y="-117"/>
      <point x="-306" y="-116" type="qcurve"/>
      <point x="-325" y="-106"/>
      <point x="-335" y="-106" type="qcurve"/>
      <point x="-340" y="-106"/>
      <point x="-343" y="-108" type="qcurve"/>
      <point x="-344" y="-109"/>
      <point x="-345" y="-109" type="qcurve"/>
      <point x="-347" y="-109"/>
      <point x="-347" y="-106" type="qcurve"/>
      <point x="-347" y="-105"/>
      <point x="-347" y="-104" type="qcurve"/>
      <point x="-346" y="-103"/>
      <point x="-346" y="-101" type="qcurve"/>
      <point x="-349" y="-86"/>
      <point x="-349" y="-77" type="qcurve"/>
      <point x="-349" y="-56"/>
      <point x="-334" y="-56" type="qcurve"/>
      <point x="-321" y="-56"/>
      <point x="-295" y="-73" type="qcurve"/>
      <point x="-301" y="-64"/>
      <point x="-302" y="-58" type="qcurve"/>
      <point x="-302" y="-49"/>
      <point x="-315" y="-36"/>
      <point x="-324" y="-36" type="qcurve"/>
      <point x="-329" y="-36"/>
      <point x="-333" y="-37" type="qcurve"/>
      <point x="-349" y="-45"/>
      <point x="-358" y="-54" type="qcurve"/>
      <point x="-368" y="-65"/>
      <point x="-368" y="-79" type="qcurve"/>
      <point x="-368" y="-103"/>
      <point x="-332" y="-136"/>
      <point x="-308" y="-136" type="qcurve"/>
      <point x="-299" y="-136"/>
      <point x="-284" y="-114"/>
    </contour>
  </outline>
</glyph>
